{
.appVersion = "1286";
copyright = "Copyright 2011 - 2016 The Montserrat Project Authors (julieta.ulanovsky@gmail.com)";
customParameters = (
{
name = licenseURL;
value = "http://scripts.sil.org/OFL";
},
{
name = license;
value = "This Font Software is licensed under the SIL Open Font License, Version 1.1. This license is available with a FAQ at: http://scripts.sil.org/OFL";
},
{
name = vendorID;
value = "ULA ";
},
{
name = panose;
value = (
0,
0,
9,
0,
0,
0,
0,
0,
0,
0
);
},
{
name = unicodeRanges;
value = (
0,
1,
2,
29,
32
);
},
{
name = fsType;
value = (
);
},
{
name = blueScale;
value = 0.037;
}
);
date = "2016-11-17 09:32:37 +0000";
designer = "Julieta Ulanovsky";
designerURL = "http://www.zkysky.com.ar/";
familyName = "Montserrat FFS";
featurePrefixes = (
{
code = "lookup lookup_0 {\012sub A by ordfeminine;\012sub O by ordmasculine;\012sub a by ordfeminine;\012sub i by idotless;\012sub j by jdotless;\012sub o by ordmasculine;\012sub zero.numr by zero.dnom;\012sub one.numr by one.dnom;\012sub two.numr by two.dnom;\012sub three.numr by three.dnom;\012sub four.numr by four.dnom;\012sub five.numr by five.dnom;\012sub six.numr by six.dnom;\012sub seven.numr by seven.dnom;\012sub eight.numr by eight.dnom;\012sub nine.numr by nine.dnom;\012sub periodcentered by periodcentered.loclCAT;\012sub hookabovecomb by hookabovecomb.case;\012} lookup_0;\012";
name = lookup_0;
}
);
features = (
{

glyphs = (
{
glyphname = A;
layers = (
{
hints = (
{
horizontal = 1;
place = "{0, 21}";
target = up;
type = BottomGhost;
},
{
horizontal = 1;
place = "{112, 152}";
type = Stem;
},
{
horizontal = 1;
place = "{701, -20}";
target = down;
type = TopGhost;
},
{
place = "{-8, 802}";
type = Stem;
}
);
layerId = "32B14746-0B3F-40B0-A5C5-A5220BCE1F35";
paths = (
{
closed = 1;
nodes = (
"572 0 LINE",
"794 0 LINE",
"505 701 LINE",
"291 701 LINE",
"-8 0 LINE",
"206 0 LINE",
"248 112 LINE",
"531 112 LINE"
);
},
{
closed = 1;
nodes = (
"306 264 LINE",
"392 493 LINE",
"476 264 LINE"
);
}
);
width = 786;
}
);
leftKerningGroup = A;
note = A;
rightKerningGroup = A;
unicode = 0041;
},
{
glyphname = Aacute;
layers = (
{
hints = (
{
horizontal = 1;
place = "{0, 21}";
target = up;
type = BottomGhost;
},
{
horizontal = 1;
place = "{112, 152}";
type = Stem;
},
{
horizontal = 1;
place = "{701, -20}";
target = down;
type = TopGhost;
},
{
place = "{-8, 802}";
type = Stem;
}
);
layerId = "32B14746-0B3F-40B0-A5C5-A5220BCE1F35";
paths = (
{
closed = 1;
nodes = (
"579 874 LINE",
"404 932 LINE",
"297 752 LINE",
"445 752 LINE"
);
},
{
closed = 1;
nodes = (
"572 0 LINE",
"794 0 LINE",
"505 701 LINE",
"291 701 LINE",
"-8 0 LINE",
"206 0 LINE",
"248 112 LINE",
"531 112 LINE"
);
},
{
closed = 1;
nodes = (
"306 264 LINE",
"392 493 LINE",
"476 264 LINE"
);
}
);
width = 786;
}
);
leftKerningGroup = A;
note = Aacute;
rightKerningGroup = A;
unicode = 00C1;
},
{
glyphname = Abreve;
layers = (
{
hints = (
{
horizontal = 1;
place = "{0, 21}";
target = up;
type = BottomGhost;
},
{
horizontal = 1;
place = "{112, 152}";
type = Stem;
},
{
horizontal = 1;
place = "{701, -20}";
target = down;
type = TopGhost;
},
{
horizontal = 1;
place = "{755, 167}";
type = Stem;
},
{
place = "{219, 123}";
type = Stem;
},
{
place = "{446, 123}";
type = Stem;
}
);
layerId = "32B14746-0B3F-40B0-A5C5-A5220BCE1F35";
paths = (
{
closed = 1;
nodes = (
"495 755 OFFCURVE",
"564 820 OFFCURVE",
"569 922 CURVE",
"446 922 LINE",
"443 890 OFFCURVE",
"423 868 OFFCURVE",
"394 868 CURVE SMOOTH",
"365 868 OFFCURVE",
"345 890 OFFCURVE",
"342 922 CURVE",
"219 922 LINE",
"224 820 OFFCURVE",
"293 755 OFFCURVE",
"394 755 CURVE SMOOTH"
);
},
{
closed = 1;
nodes = (
"572 0 LINE",
"794 0 LINE",
"505 701 LINE",
"291 701 LINE",
"-8 0 LINE",
"206 0 LINE",
"248 112 LINE",
"531 112 LINE"
);
},
{
closed = 1;
nodes = (
"306 264 LINE",
"392 493 LINE",
"476 264 LINE"
);
}
);
width = 786;
}
);
leftKerningGroup = A;
note = Abreve;
rightKerningGroup = A;
unicode = 0102;
},
{
glyphname = Abreveacute;
layers = (
{
hints = (
{
horizontal = 1;
place = "{0, 21}";
target = up;
type = BottomGhost;
},
{
horizontal = 1;
place = "{112, 152}";
type = Stem;
},
{
horizontal = 1;
place = "{701, -20}";
target = down;
type = TopGhost;
},
{
horizontal = 1;
place = "{756, 122}";
type = Stem;
},
{
place = "{-8, 802}";
type = Stem;
},
{
place = "{265, 90}";
type = Stem;
},
{
place = "{433, 90}";
type = Stem;
}
);
layerId = "32B14746-0B3F-40B0-A5C5-A5220BCE1F35";
paths = (
{
closed = 1;
nodes = (
"564 993 LINE",
"427 1039 LINE",
"341 897 LINE",
"457 897 LINE"
);
},
{
closed = 1;
nodes = (
"468 756 OFFCURVE",
"519 804 OFFCURVE",
"523 878 CURVE",
"433 878 LINE",
"431 854 OFFCURVE",
"416 837 OFFCURVE",
"394 837 CURVE SMOOTH",
"372 837 OFFCURVE",
"357 854 OFFCURVE",
"355 878 CURVE",
"265 878 LINE",
"269 804 OFFCURVE",
"320 756 OFFCURVE",
"394 756 CURVE SMOOTH"
);
},
{
closed = 1;
nodes = (
"572 0 LINE",
"794 0 LINE",
"505 701 LINE",
"291 701 LINE",
"-8 0 LINE",
"206 0 LINE",
"248 112 LINE",
"531 112 LINE"
);
},
{
closed = 1;
nodes = (
"306 264 LINE",
"392 493 LINE",
"476 264 LINE"
);
}
);
width = 786;
}
);
note = uni1EAE;
unicode = 1EAE;
},
{
glyphname = Abrevedotbelow;
layers = (
{
hints = (
{
horizontal = 1;
place = "{-224, 164}";
type = Stem;
},
{
horizontal = 1;
place = "{0, 21}";
target = up;
type = BottomGhost;
},
{
horizontal = 1;
place = "{112, 152}";
type = Stem;
},
{
horizontal = 1;
place = "{701, -20}";
target = down;
type = TopGhost;
},
{
horizontal = 1;
place = "{748, 122}";
type = Stem;
},
{
place = "{265, 90}";
type = Stem;
},
{
place = "{433, 90}";
type = Stem;
},
{
place = "{305, 163}";
type = Stem;
}
);
layerId = "32B14746-0B3F-40B0-A5C5-A5220BCE1F35";
paths = (
{
closed = 1;
nodes = (
"468 748 OFFCURVE",
"519 796 OFFCURVE",
"523 870 CURVE",
"433 870 LINE",
"431 846 OFFCURVE",
"416 829 OFFCURVE",
"394 829 CURVE SMOOTH",
"372 829 OFFCURVE",
"357 846 OFFCURVE",
"355 870 CURVE",
"265 870 LINE",
"269 796 OFFCURVE",
"320 748 OFFCURVE",
"394 748 CURVE SMOOTH"
);
},
{
closed = 1;
nodes = (
"794 0 LINE",
"505 701 LINE",
"291 701 LINE",
"-8 0 LINE",
"206 0 LINE",
"248 112 LINE",
"531 112 LINE",
"572 0 LINE"
);
},
{
closed = 1;
nodes = (
"306 264 LINE",
"392 493 LINE",
"476 264 LINE"
);
},
{
closed = 1;
nodes = (
"338 -60 OFFCURVE",
"304 -95 OFFCURVE",
"305 -142 CURVE SMOOTH",
"306 -190 OFFCURVE",
"338 -224 OFFCURVE",
"386 -224 CURVE SMOOTH",
"433 -224 OFFCURVE",
"468 -190 OFFCURVE",
"468 -142 CURVE SMOOTH",
"468 -95 OFFCURVE",
"433 -60 OFFCURVE",
"386 -60 CURVE SMOOTH"
);
}
);
width = 786;
}
);
note = uni1EB6;
unicode = 1EB6;
},
{
glyphname = Abrevegrave;
layers = (
{
hints = (
{
horizontal = 1;
place = "{0, 21}";
target = up;
type = BottomGhost;
},
{
horizontal = 1;
place = "{112, 152}";
type = Stem;
},
{
horizontal = 1;
place = "{701, -20}";
target = down;
type = TopGhost;
},
{
horizontal = 1;
place = "{756, 122}";
type = Stem;
},
{
place = "{-8, 802}";
type = Stem;
},
{
place = "{265, 90}";
type = Stem;
},
{
place = "{433, 90}";
type = Stem;
}
);
layerId = "32B14746-0B3F-40B0-A5C5-A5220BCE1F35";
paths = (
{
closed = 1;
nodes = (
"452 897 LINE",
"367 1039 LINE",
"229 993 LINE",
"336 897 LINE"
);
},
{
closed = 1;
nodes = (
"372 837 OFFCURVE",
"357 854 OFFCURVE",
"355 878 CURVE",
"265 878 LINE",
"269 804 OFFCURVE",
"320 756 OFFCURVE",
"394 756 CURVE SMOOTH",
"468 756 OFFCURVE",
"519 804 OFFCURVE",
"523 878 CURVE",
"433 878 LINE",
"431 854 OFFCURVE",
"416 837 OFFCURVE",
"394 837 CURVE SMOOTH"
);
},
{
closed = 1;
nodes = (
"572 0 LINE",
"794 0 LINE",
"505 701 LINE",
"291 701 LINE",
"-8 0 LINE",
"206 0 LINE",
"248 112 LINE",
"531 112 LINE"
);
},
{
closed = 1;
nodes = (
"306 264 LINE",
"392 493 LINE",
"476 264 LINE"
);
}
);
width = 786;
}
);
note = uni1EB0;
unicode = 1EB0;
},
{
glyphname = Abrevehookabove;
layers = (
{
hints = (
{
horizontal = 1;
place = "{0, 21}";
target = up;
type = BottomGhost;
},
{
horizontal = 1;
place = "{112, 152}";
type = Stem;
},
{
horizontal = 1;
place = "{701, -20}";
target = down;
type = TopGhost;
},
{
horizontal = 1;
place = "{756, 122}";
type = Stem;
},
{
horizontal = 1;
place = "{1019, 71}";
type = Stem;
},
{
place = "{265, 90}";
type = Stem;
},
{
place = "{426, 82}";
type = Stem;
},
{
place = "{433, 14}";
type = Stem;
}
);
layerId = "32B14746-0B3F-40B0-A5C5-A5220BCE1F35";
paths = (
{
closed = 1;
nodes = (
"415 1019 OFFCURVE",
"426 1004 OFFCURVE",
"426 986 CURVE SMOOTH",
"426 960 OFFCURVE",
"408 937 OFFCURVE",
"379 911 CURVE",
"447 888 LINE",
"483 921 OFFCURVE",
"508 954 OFFCURVE",
"508 997 CURVE SMOOTH",
"508 1050 OFFCURVE",
"468 1090 OFFCURVE",
"400 1090 CURVE SMOOTH",
"341 1090 OFFCURVE",
"296 1061 OFFCURVE",
"285 1008 CURVE",
"361 982 LINE",
"363 1004 OFFCURVE",
"375 1019 OFFCURVE",
"396 1019 CURVE SMOOTH"
);
},
{
closed = 1;
nodes = (
"468 756 OFFCURVE",
"519 804 OFFCURVE",
"523 878 CURVE",
"433 878 LINE",
"431 854 OFFCURVE",
"416 837 OFFCURVE",
"394 837 CURVE SMOOTH",
"372 837 OFFCURVE",
"357 854 OFFCURVE",
"355 878 CURVE",
"265 878 LINE",
"269 804 OFFCURVE",
"320 756 OFFCURVE",
"394 756 CURVE SMOOTH"
);
},
{
closed = 1;
nodes = (
"572 0 LINE",
"794 0 LINE",
"505 701 LINE",
"291 701 LINE",
"-8 0 LINE",
"206 0 LINE",
"248 112 LINE",
"531 112 LINE"
);
},
{
closed = 1;
nodes = (
"306 264 LINE",
"392 493 LINE",
"476 264 LINE"
);
}
);
width = 786;
}
);
note = uni1EB2;
unicode = 1EB2;
},
{
glyphname = Abrevetilde;
layers = (
{
hints = (
{
horizontal = 1;
place = "{0, 21}";
target = up;
type = BottomGhost;
},
{
horizontal = 1;
place = "{112, 152}";
type = Stem;
},
{
horizontal = 1;
place = "{701, -20}";
target = down;
type = TopGhost;
},
{
horizontal = 1;
place = "{756, 122}";
type = Stem;
},
{
horizontal = 1;
place = "{918, 125}";
type = Stem;
},
{
place = "{255, 89}";
type = Stem;
},
{
place = "{444, 88}";
type = Stem;
},
{
horizontal = 1;
place = "{915, 125}";
type = Stem;
},
{
place = "{265, 90}";
type = Stem;
},
{
place = "{433, 90}";
type = Stem;
}
);
layerId = "32B14746-0B3F-40B0-A5C5-A5220BCE1F35";
paths = (
{
closed = 1;
nodes = (
"384 949 OFFCURVE",
"404 915 OFFCURVE",
"450 915 CURVE SMOOTH",
"505 915 OFFCURVE",
"532 956 OFFCURVE",
"532 1040 CURVE",
"444 1040 LINE",
"444 1020 OFFCURVE",
"438 1009 OFFCURVE",
"423 1009 CURVE SMOOTH",
"403 1009 OFFCURVE",
"383 1043 OFFCURVE",
"337 1043 CURVE SMOOTH",
"282 1043 OFFCURVE",
"255 1003 OFFCURVE",
"255 918 CURVE",
"344 918 LINE",
"344 938 OFFCURVE",
"350 949 OFFCURVE",
"364 949 CURVE SMOOTH"
);
},
{
closed = 1;
nodes = (
"372 837 OFFCURVE",
"357 854 OFFCURVE",
"355 878 CURVE",
"265 878 LINE",
"269 804 OFFCURVE",
"320 756 OFFCURVE",
"394 756 CURVE SMOOTH",
"468 756 OFFCURVE",
"519 804 OFFCURVE",
"523 878 CURVE",
"433 878 LINE",
"431 854 OFFCURVE",
"416 837 OFFCURVE",
"394 837 CURVE SMOOTH"
);
},
{
closed = 1;
nodes = (
"572 0 LINE",
"794 0 LINE",
"505 701 LINE",
"291 701 LINE",
"-8 0 LINE",
"206 0 LINE",
"248 112 LINE",
"531 112 LINE"
);
},
{
closed = 1;
nodes = (
"306 264 LINE",
"392 493 LINE",
"476 264 LINE"
);
}
);
width = 786;
}
);
note = uni1EB4;
unicode = 1EB4;
},
{
glyphname = Acircumflex;
layers = (
{
hints = (
{
horizontal = 1;
place = "{0, 21}";
target = up;
type = BottomGhost;
},
{
horizontal = 1;
place = "{112, 152}";
type = Stem;
},
{
horizontal = 1;
place = "{701, -20}";
target = down;
type = TopGhost;
},
{
horizontal = 1;
place = "{766, 157}";
type = Stem;
},
{
place = "{-8, 802}";
type = Stem;
}
);
layerId = "32B14746-0B3F-40B0-A5C5-A5220BCE1F35";
paths = (
{
closed = 1;
nodes = (
"394 849 LINE",
"450 766 LINE",
"589 766 LINE",
"472 923 LINE",
"316 923 LINE",
"199 766 LINE",
"338 766 LINE"
);
},
{
closed = 1;
nodes = (
"572 0 LINE",
"794 0 LINE",
"505 701 LINE",
"291 701 LINE",
"-8 0 LINE",
"206 0 LINE",
"248 112 LINE",
"531 112 LINE"
);
},
{
closed = 1;
nodes = (
"306 264 LINE",
"392 493 LINE",
"476 264 LINE"
);
}
);
width = 786;
}
);
leftKerningGroup = A;
note = Acircumflex;
rightKerningGroup = A;
unicode = 00C2;
},
{
glyphname = Acircumflexacute;
layers = (
{
hints = (
{
horizontal = 1;
place = "{0, 21}";
target = up;
type = BottomGhost;
},
{
horizontal = 1;
place = "{112, 152}";
type = Stem;
},
{
horizontal = 1;
place = "{701, -20}";
target = down;
type = TopGhost;
},
{
horizontal = 1;
place = "{755, 126}";
type = Stem;
},
{
place = "{-8, 802}";
type = Stem;
}
);
layerId = "32B14746-0B3F-40B0-A5C5-A5220BCE1F35";
paths = (
{
closed = 1;
nodes = (
"739 936 LINE",
"605 982 LINE",
"520 840 LINE",
"632 840 LINE"
);
},
{
closed = 1;
nodes = (
"394 823 LINE",
"439 755 LINE",
"548 755 LINE",
"455 881 LINE",
"333 881 LINE",
"240 755 LINE",
"349 755 LINE"
);
},
{
closed = 1;
nodes = (
"572 0 LINE",
"794 0 LINE",
"505 701 LINE",
"291 701 LINE",
"-8 0 LINE",
"206 0 LINE",
"248 112 LINE",
"531 112 LINE"
);
},
{
closed = 1;
nodes = (
"306 264 LINE",
"392 493 LINE",
"476 264 LINE"
);
}
);
width = 786;
}
);
note = uni1EA4;
unicode = 1EA4;
},
{
glyphname = Acircumflexdotbelow;
layers = (
{
hints = (
{
horizontal = 1;
place = "{-224, 164}";
type = Stem;
},
{
horizontal = 1;
place = "{0, 21}";
target = up;
type = BottomGhost;
},
{
horizontal = 1;
place = "{112, 152}";
type = Stem;
},
{
horizontal = 1;
place = "{701, -20}";
target = down;
type = TopGhost;
},
{
horizontal = 1;
place = "{747, 126}";
type = Stem;
},
{
place = "{305, 163}";
type = Stem;
}
);
layerId = "32B14746-0B3F-40B0-A5C5-A5220BCE1F35";
paths = (
{
closed = 1;
nodes = (
"394 815 LINE",
"439 747 LINE",
"548 747 LINE",
"455 873 LINE",
"333 873 LINE",
"240 747 LINE",
"349 747 LINE"
);
},
{
closed = 1;
nodes = (
"794 0 LINE",
"505 701 LINE",
"291 701 LINE",
"-8 0 LINE",
"206 0 LINE",
"248 112 LINE",
"531 112 LINE",
"572 0 LINE"
);
},
{
closed = 1;
nodes = (
"306 264 LINE",
"392 493 LINE",
"476 264 LINE"
);
},
{
closed = 1;
nodes = (
"338 -60 OFFCURVE",
"304 -95 OFFCURVE",
"305 -142 CURVE SMOOTH",
"306 -190 OFFCURVE",
"338 -224 OFFCURVE",
"386 -224 CURVE SMOOTH",
"433 -224 OFFCURVE",
"468 -190 OFFCURVE",
"468 -142 CURVE SMOOTH",
"468 -95 OFFCURVE",
"433 -60 OFFCURVE",
"386 -60 CURVE SMOOTH"
);
}
);
width = 786;
}
);
note = uni1EAC;
unicode = 1EAC;
},
{
glyphname = Acircumflexgrave;
layers = (
{
hints = (
{
horizontal = 1;
place = "{0, 21}";
target = up;
type = BottomGhost;
},
{
horizontal = 1;
place = "{112, 152}";
type = Stem;
},
{
horizontal = 1;
place = "{701, -20}";
target = down;
type = TopGhost;
},
{
horizontal = 1;
place = "{755, 126}";
type = Stem;
},
{
place = "{-8, 802}";
type = Stem;
}
);
layerId = "32B14746-0B3F-40B0-A5C5-A5220BCE1F35";
paths = (
{
closed = 1;
nodes = (
"656 840 LINE",
"571 982 LINE",
"437 936 LINE",
"544 840 LINE"
);
},
{
closed = 1;
nodes = (
"394 823 LINE",
"439 755 LINE",
"548 755 LINE",
"455 881 LINE",
"333 881 LINE",
"240 755 LINE",
"349 755 LINE"
);
},
{
closed = 1;
nodes = (
"572 0 LINE",
"794 0 LINE",
"505 701 LINE",
"291 701 LINE",
"-8 0 LINE",
"206 0 LINE",
"248 112 LINE",
"531 112 LINE"
);
},
{
closed = 1;
nodes = (
"306 264 LINE",
"392 493 LINE",
"476 264 LINE"
);
}
);
width = 786;
}
);
note = uni1EA6;
unicode = 1EA6;
},
{
glyphname = Acircumflexhookabove;
layers = (
{
hints = (
{
horizontal = 1;
place = "{0, 21}";
target = up;
type = BottomGhost;
},
{
horizontal = 1;
place = "{112, 152}";
type = Stem;
},
{
horizontal = 1;
place = "{701, -20}";
target = down;
type = TopGhost;
},
{
horizontal = 1;
place = "{755, 126}";
type = Stem;
},
{
horizontal = 1;
place = "{954, 71}";
type = Stem;
},
{
place = "{558, 82}";
type = Stem;
}
);
layerId = "32B14746-0B3F-40B0-A5C5-A5220BCE1F35";
paths = (
{
closed = 1;
nodes = (
"547 954 OFFCURVE",
"558 939 OFFCURVE",
"558 921 CURVE SMOOTH",
"558 895 OFFCURVE",
"540 872 OFFCURVE",
"511 846 CURVE",
"579 823 LINE",
"615 856 OFFCURVE",
"640 889 OFFCURVE",
"640 932 CURVE SMOOTH",
"640 985 OFFCURVE",
"600 1025 OFFCURVE",
"532 1025 CURVE SMOOTH",
"473 1025 OFFCURVE",
"428 996 OFFCURVE",
"417 943 CURVE",
"493 917 LINE",
"495 939 OFFCURVE",
"507 954 OFFCURVE",
"528 954 CURVE SMOOTH"
);
},
{
closed = 1;
nodes = (
"394 823 LINE",
"439 755 LINE",
"548 755 LINE",
"455 881 LINE",
"333 881 LINE",
"240 755 LINE",
"349 755 LINE"
);
},
{
closed = 1;
nodes = (
"572 0 LINE",
"794 0 LINE",
"505 701 LINE",
"291 701 LINE",
"-8 0 LINE",
"206 0 LINE",
"248 112 LINE",
"531 112 LINE"
);
},
{
closed = 1;
nodes = (
"306 264 LINE",
"392 493 LINE",
"476 264 LINE"
);
}
);
width = 786;
}
);
note = uni1EA8;
unicode = 1EA8;
},
{
glyphname = Acircumflextilde;
layers = (
{
hints = (
{
horizontal = 1;
place = "{0, 21}";
target = up;
type = BottomGhost;
},
{
horizontal = 1;
place = "{112, 152}";
type = Stem;
},
{
horizontal = 1;
place = "{701, -20}";
target = down;
type = TopGhost;
},
{
horizontal = 1;
place = "{755, 126}";
type = Stem;
},
{
horizontal = 1;
place = "{914, 126}";
type = Stem;
},
{
place = "{254, 89}";
type = Stem;
},
{
place = "{443, 89}";
type = Stem;
},
{
horizontal = 1;
place = "{911, 126}";
type = Stem;
}
);
layerId = "32B14746-0B3F-40B0-A5C5-A5220BCE1F35";
paths = (
{
closed = 1;
nodes = (
"383 945 OFFCURVE",
"403 911 OFFCURVE",
"450 911 CURVE SMOOTH",
"505 911 OFFCURVE",
"532 952 OFFCURVE",
"532 1037 CURVE",
"443 1037 LINE",
"443 1016 OFFCURVE",
"437 1006 OFFCURVE",
"422 1006 CURVE SMOOTH",
"403 1006 OFFCURVE",
"382 1040 OFFCURVE",
"337 1040 CURVE SMOOTH",
"281 1040 OFFCURVE",
"254 999 OFFCURVE",
"254 914 CURVE",
"343 914 LINE",
"343 934 OFFCURVE",
"350 945 OFFCURVE",
"364 945 CURVE SMOOTH"
);
},
{
closed = 1;
nodes = (
"394 823 LINE",
"439 755 LINE",
"548 755 LINE",
"455 881 LINE",
"333 881 LINE",
"240 755 LINE",
"349 755 LINE"
);
},
{
closed = 1;
nodes = (
"572 0 LINE",
"794 0 LINE",
"505 701 LINE",
"291 701 LINE",
"-8 0 LINE",
"206 0 LINE",
"248 112 LINE",
"531 112 LINE"
);
},
{
closed = 1;
nodes = (
"306 264 LINE",
"392 493 LINE",
"476 264 LINE"
);
}
);
width = 786;
}
);
note = uni1EAA;
unicode = 1EAA;
},
{
glyphname = Adblgrave;
layers = (
{
hints = (
{
horizontal = 1;
place = "{0, 21}";
target = up;
type = BottomGhost;
},
{
horizontal = 1;
place = "{112, 152}";
type = Stem;
},
{
horizontal = 1;
place = "{701, -20}";
target = down;
type = TopGhost;
},
{
place = "{-8, 802}";
type = Stem;
}
);
layerId = "32B14746-0B3F-40B0-A5C5-A5220BCE1F35";
paths = (
{
closed = 1;
nodes = (
"383 752 LINE",
"297 933 LINE",
"149 882 LINE",
"238 752 LINE"
);
},
{
closed = 1;
nodes = (
"593 752 LINE",
"506 933 LINE",
"358 882 LINE",
"448 752 LINE"
);
},
{
closed = 1;
nodes = (
"572 0 LINE",
"794 0 LINE",
"505 701 LINE",
"291 701 LINE",
"-8 0 LINE",
"206 0 LINE",
"248 112 LINE",
"531 112 LINE"
);
},
{
closed = 1;
nodes = (
"306 264 LINE",
"392 493 LINE",
"476 264 LINE"
);
}
);
width = 786;
}
);
note = uni0200;
unicode = 0200;
},
{
glyphname = Adieresis;
layers = (
{
hints = (
{
horizontal = 1;
place = "{0, 21}";
target = up;
type = BottomGhost;
},
{
horizontal = 1;
place = "{112, 152}";
type = Stem;
},
{
horizontal = 1;
place = "{701, -20}";
target = down;
type = TopGhost;
},
{
horizontal = 1;
place = "{767, 170}";
type = Stem;
},
{
place = "{209, 169}";
type = Stem;
},
{
place = "{410, 170}";
type = Stem;
}
);
layerId = "32B14746-0B3F-40B0-A5C5-A5220BCE1F35";
paths = (
{
closed = 1;
nodes = (
"343 767 OFFCURVE",
"378 803 OFFCURVE",
"378 852 CURVE SMOOTH",
"378 902 OFFCURVE",
"343 937 OFFCURVE",
"293 937 CURVE SMOOTH",
"243 937 OFFCURVE",
"209 902 OFFCURVE",
"209 852 CURVE SMOOTH",
"209 803 OFFCURVE",
"243 767 OFFCURVE",
"293 767 CURVE SMOOTH"
);
},
{
closed = 1;
nodes = (
"545 767 OFFCURVE",
"580 803 OFFCURVE",
"580 852 CURVE SMOOTH",
"580 902 OFFCURVE",
"545 937 OFFCURVE",
"495 937 CURVE SMOOTH",
"445 937 OFFCURVE",
"410 902 OFFCURVE",
"410 852 CURVE SMOOTH",
"410 803 OFFCURVE",
"445 767 OFFCURVE",
"495 767 CURVE SMOOTH"
);
},
{
closed = 1;
nodes = (
"572 0 LINE",
"794 0 LINE",
"505 701 LINE",
"291 701 LINE",
"-8 0 LINE",
"206 0 LINE",
"248 112 LINE",
"531 112 LINE"
);
},
{
closed = 1;
nodes = (
"306 264 LINE",
"392 493 LINE",
"476 264 LINE"
);
}
);
width = 786;
}
);
leftKerningGroup = A;
note = Adieresis;
rightKerningGroup = A;
unicode = 00C4;
},
{
glyphname = Adotbelow;
layers = (
{
hints = (
{
horizontal = 1;
place = "{-224, 164}";
type = Stem;
},
{
horizontal = 1;
place = "{0, 21}";
target = up;
type = BottomGhost;
},
{
horizontal = 1;
place = "{112, 152}";
type = Stem;
},
{
horizontal = 1;
place = "{701, -20}";
target = down;
type = TopGhost;
},
{
place = "{305, 163}";
type = Stem;
}
);
layerId = "32B14746-0B3F-40B0-A5C5-A5220BCE1F35";
paths = (
{
closed = 1;
nodes = (
"794 0 LINE",
"505 701 LINE",
"291 701 LINE",
"-8 0 LINE",
"206 0 LINE",
"248 112 LINE",
"531 112 LINE",
"572 0 LINE"
);
},
{
closed = 1;
nodes = (
"306 264 LINE",
"392 493 LINE",
"476 264 LINE"
);
},
{
closed = 1;
nodes = (
"338 -60 OFFCURVE",
"304 -95 OFFCURVE",
"305 -142 CURVE SMOOTH",
"306 -190 OFFCURVE",
"338 -224 OFFCURVE",
"386 -224 CURVE SMOOTH",
"433 -224 OFFCURVE",
"468 -190 OFFCURVE",
"468 -142 CURVE SMOOTH",
"468 -95 OFFCURVE",
"433 -60 OFFCURVE",
"386 -60 CURVE SMOOTH"
);
}
);
width = 786;
}
);
note = uni1EA0;
unicode = 1EA0;
},
{
glyphname = Agrave;
layers = (
{
hints = (
{
horizontal = 1;
place = "{0, 21}";
target = up;
type = BottomGhost;
},
{
horizontal = 1;
place = "{112, 152}";
type = Stem;
},
{
horizontal = 1;
place = "{701, -20}";
target = down;
type = TopGhost;
},
{
place = "{-8, 802}";
type = Stem;
}
);
layerId = "32B14746-0B3F-40B0-A5C5-A5220BCE1F35";
paths = (
{
closed = 1;
nodes = (
"496 752 LINE",
"389 932 LINE",
"214 874 LINE",
"348 752 LINE"
);
},
{
closed = 1;
nodes = (
"572 0 LINE",
"794 0 LINE",
"505 701 LINE",
"291 701 LINE",
"-8 0 LINE",
"206 0 LINE",
"248 112 LINE",
"531 112 LINE"
);
},
{
closed = 1;
nodes = (
"306 264 LINE",
"392 493 LINE",
"476 264 LINE"
);
}
);
width = 786;
}
);
leftKerningGroup = A;
note = Agrave;
rightKerningGroup = A;
unicode = 00C0;
},
{
glyphname = Ahookabove;
layers = (
{
hints = (
{
horizontal = 1;
place = "{0, 21}";
target = up;
type = BottomGhost;
},
{
horizontal = 1;
place = "{112, 152}";
type = Stem;
},
{
horizontal = 1;
place = "{701, -20}";
target = down;
type = TopGhost;
},
{
horizontal = 1;
place = "{875, 83}";
type = Stem;
},
{
place = "{431, 94}";
type = Stem;
}
);
layerId = "32B14746-0B3F-40B0-A5C5-A5220BCE1F35";
paths = (
{
closed = 1;
nodes = (
"419 875 OFFCURVE",
"431 859 OFFCURVE",
"431 840 CURVE SMOOTH",
"431 814 OFFCURVE",
"414 793 OFFCURVE",
"384 765 CURVE",
"464 739 LINE",
"501 772 OFFCURVE",
"525 808 OFFCURVE",
"525 849 CURVE SMOOTH",
"525 911 OFFCURVE",
"479 958 OFFCURVE",
"401 958 CURVE SMOOTH",
"332 958 OFFCURVE",
"280 925 OFFCURVE",
"268 865 CURVE",
"356 836 LINE",
"358 859 OFFCURVE",
"372 875 OFFCURVE",
"396 875 CURVE SMOOTH"
);
},
{
closed = 1;
nodes = (
"572 0 LINE",
"794 0 LINE",
"505 701 LINE",
"291 701 LINE",
"-8 0 LINE",
"206 0 LINE",
"248 112 LINE",
"531 112 LINE"
);
},
{
closed = 1;
nodes = (
"306 264 LINE",
"392 493 LINE",
"476 264 LINE"
);
}
);
width = 786;
}
);
note = uni1EA2;
unicode = 1EA2;
},
{
glyphname = Ainvertedbreve;
layers = (
{
hints = (
{
horizontal = 1;
place = "{0, 21}";
target = up;
type = BottomGhost;
},
{
horizontal = 1;
place = "{112, 152}";
type = Stem;
},
{
horizontal = 1;
place = "{701, -20}";
target = down;
type = TopGhost;
},
{
horizontal = 1;
place = "{755, 167}";
type = Stem;
},
{
place = "{219, 123}";
type = Stem;
},
{
place = "{446, 123}";
type = Stem;
}
);
layerId = "32B14746-0B3F-40B0-A5C5-A5220BCE1F35";
paths = (
{
closed = 1;
nodes = (
"423 808 OFFCURVE",
"443 787 OFFCURVE",
"446 755 CURVE",
"569 755 LINE",
"564 856 OFFCURVE",
"495 922 OFFCURVE",
"394 922 CURVE SMOOTH",
"293 922 OFFCURVE",
"224 856 OFFCURVE",
"219 755 CURVE",
"342 755 LINE",
"345 787 OFFCURVE",
"365 808 OFFCURVE",
"394 808 CURVE SMOOTH"
);
},
{
closed = 1;
nodes = (
"572 0 LINE",
"794 0 LINE",
"505 701 LINE",
"291 701 LINE",
"-8 0 LINE",
"206 0 LINE",
"248 112 LINE",
"531 112 LINE"
);
},
{
closed = 1;
nodes = (
"306 264 LINE",
"392 493 LINE",
"476 264 LINE"
);
}
);
width = 786;
}
);
note = uni0202;
unicode = 0202;
},
{
glyphname = Amacron;
layers = (
{
hints = (
{
horizontal = 1;
place = "{0, 21}";
target = up;
type = BottomGhost;
},
{
horizontal = 1;
place = "{112, 152}";
type = Stem;
},
{
horizontal = 1;
place = "{701, -20}";
target = down;
type = TopGhost;
},
{
horizontal = 1;
place = "{785, 133}";
type = Stem;
},
{
place = "{249, 290}";
type = Stem;
}
);
layerId = "32B14746-0B3F-40B0-A5C5-A5220BCE1F35";
paths = (
{
closed = 1;
nodes = (
"539 918 LINE",
"249 918 LINE",
"249 785 LINE",
"539 785 LINE"
);
},
{
closed = 1;
nodes = (
"572 0 LINE",
"794 0 LINE",
"505 701 LINE",
"291 701 LINE",
"-8 0 LINE",
"206 0 LINE",
"248 112 LINE",
"531 112 LINE"
);
},
{
closed = 1;
nodes = (
"306 264 LINE",
"392 493 LINE",
"476 264 LINE"
);
}
);
width = 786;
}
);
leftKerningGroup = A;
note = Amacron;
rightKerningGroup = A;
unicode = 0100;
},
{
glyphname = Aogonek;
layers = (
{
hints = (
{
horizontal = 1;
place = "{-203, 21}";
target = up;
type = BottomGhost;
},
{
horizontal = 1;
place = "{0, 21}";
target = up;
type = BottomGhost;
},
{
horizontal = 1;
place = "{112, 152}";
type = Stem;
},
{
horizontal = 1;
place = "{701, -20}";
target = down;
type = TopGhost;
},
{
place = "{593, 100}";
type = Stem;
},
{
horizontal = 1;
place = "{-203, 99}";
type = Stem;
}
);
layerId = "32B14746-0B3F-40B0-A5C5-A5220BCE1F35";
paths = (
{
closed = 1;
nodes = (
"794 0 LINE",
"505 701 LINE",
"291 701 LINE",
"-8 0 LINE",
"206 0 LINE",
"249 112 LINE",
"531 112 LINE",
"572 0 LINE",
"638 0 LINE",
"612 -39 OFFCURVE",
"593 -78 OFFCURVE",
"593 -118 CURVE SMOOTH",
"593 -184 OFFCURVE",
"644 -203 OFFCURVE",
"686 -203 CURVE SMOOTH",
"732 -203 OFFCURVE",
"774 -179 OFFCURVE",
"800 -132 CURVE",
"750 -73 LINE",
"738 -92 OFFCURVE",
"725 -104 OFFCURVE",
"711 -104 CURVE SMOOTH",
"700 -104 OFFCURVE",
"693 -97 OFFCURVE",
"693 -85 CURVE SMOOTH",
"693 -67 OFFCURVE",
"709 -36 OFFCURVE",
"734 0 CURVE"
);
},
{
closed = 1;
nodes = (
"392 493 LINE",
"476 264 LINE",
"305 264 LINE"
);
}
);
width = 786;
}
);
leftKerningGroup = A;
note = Aogonek;
rightKerningGroup = A;
unicode = 0104;
},
{
glyphname = Aring;
layers = (
{
hints = (
{
horizontal = 1;
place = "{0, 21}";
target = up;
type = BottomGhost;
},
{
horizontal = 1;
place = "{112, 152}";
type = Stem;
},
{
horizontal = 1;
place = "{811, 84}";
type = Stem;
},
{
place = "{266, 83}";
type = Stem;
},
{
place = "{445, 84}";
type = Stem;
}
);
layerId = "32B14746-0B3F-40B0-A5C5-A5220BCE1F35";
paths = (
{
closed = 1;
nodes = (
"572 0 LINE",
"794 0 LINE",
"508 693 LINE",
"521 713 OFFCURVE",
"529 738 OFFCURVE",
"529 764 CURVE SMOOTH",
"529 837 OFFCURVE",
"471 895 OFFCURVE",
"397 895 CURVE SMOOTH",
"324 895 OFFCURVE",
"266 837 OFFCURVE",
"266 764 CURVE SMOOTH",
"266 737 OFFCURVE",
"274 713 OFFCURVE",
"287 692 CURVE",
"-8 0 LINE",
"206 0 LINE",
"248 112 LINE",
"531 112 LINE"
);
},
{
closed = 1;
nodes = (
"424 811 OFFCURVE",
"445 791 OFFCURVE",
"445 764 CURVE SMOOTH",
"445 737 OFFCURVE",
"424 717 OFFCURVE",
"397 717 CURVE SMOOTH",
"370 717 OFFCURVE",
"349 737 OFFCURVE",
"349 764 CURVE SMOOTH",
"349 791 OFFCURVE",
"370 811 OFFCURVE",
"397 811 CURVE SMOOTH"
);
},
{
closed = 1;
nodes = (
"306 264 LINE",
"392 493 LINE",
"476 264 LINE"
);
}
);
width = 786;
}
);
leftKerningGroup = A;
note = Aring;
rightKerningGroup = A;
unicode = 00C5;
},
{
glyphname = Aringacute;
layers = (
{
hints = (
{
horizontal = 1;
place = "{0, 21}";
target = up;
type = BottomGhost;
},
{
horizontal = 1;
place = "{112, 152}";
type = Stem;
},
{
horizontal = 1;
place = "{701, -20}";
target = down;
type = TopGhost;
},
{
horizontal = 1;
place = "{734, 77}";
type = Stem;
},
{
horizontal = 1;
place = "{901, 77}";
type = Stem;
},
{
place = "{271, 78}";
type = Stem;
},
{
place = "{439, 78}";
type = Stem;
}
);
layerId = "32B14746-0B3F-40B0-A5C5-A5220BCE1F35";
paths = (
{
closed = 1;
nodes = (
"581 1126 LINE",
"406 1184 LINE",
"299 1004 LINE",
"447 1004 LINE"
);
},
{
closed = 1;
nodes = (
"462 734 OFFCURVE",
"517 788 OFFCURVE",
"517 856 CURVE SMOOTH",
"517 924 OFFCURVE",
"462 978 OFFCURVE",
"394 978 CURVE SMOOTH",
"326 978 OFFCURVE",
"271 924 OFFCURVE",
"271 856 CURVE SMOOTH",
"271 788 OFFCURVE",
"326 734 OFFCURVE",
"394 734 CURVE SMOOTH"
);
},
{
closed = 1;
nodes = (
"419 901 OFFCURVE",
"439 881 OFFCURVE",
"439 856 CURVE SMOOTH",
"439 831 OFFCURVE",
"419 811 OFFCURVE",
"394 811 CURVE SMOOTH",
"369 811 OFFCURVE",
"349 831 OFFCURVE",
"349 856 CURVE SMOOTH",
"349 881 OFFCURVE",
"369 901 OFFCURVE",
"394 901 CURVE SMOOTH"
);
},
{
closed = 1;
nodes = (
"572 0 LINE",
"794 0 LINE",
"505 701 LINE",
"291 701 LINE",
"-8 0 LINE",
"206 0 LINE",
"248 112 LINE",
"531 112 LINE"
);
},
{
closed = 1;
nodes = (
"306 264 LINE",
"392 493 LINE",
"476 264 LINE"
);
}
);
width = 786;
}
);
note = Aringacute;
unicode = 01FA;
},
{
glyphname = Atilde;
layers = (
{
hints = (
{
horizontal = 1;
place = "{0, 21}";
target = up;
type = BottomGhost;
},
{
horizontal = 1;
place = "{112, 152}";
type = Stem;
},
{
horizontal = 1;
place = "{701, -20}";
target = down;
type = TopGhost;
},
{
horizontal = 1;
place = "{774, 171}";
type = Stem;
},
{
place = "{207, 123}";
type = Stem;
},
{
place = "{459, 122}";
type = Stem;
},
{
horizontal = 1;
place = "{771, 171}";
type = Stem;
}
);
layerId = "32B14746-0B3F-40B0-A5C5-A5220BCE1F35";
paths = (
{
closed = 1;
nodes = (
"382 814 OFFCURVE",
"408 771 OFFCURVE",
"470 771 CURVE SMOOTH",
"545 771 OFFCURVE",
"581 826 OFFCURVE",
"581 942 CURVE",
"459 942 LINE",
"459 915 OFFCURVE",
"451 902 OFFCURVE",
"432 902 CURVE SMOOTH",
"407 902 OFFCURVE",
"379 945 OFFCURVE",
"319 945 CURVE SMOOTH",
"244 945 OFFCURVE",
"207 890 OFFCURVE",
"207 774 CURVE",
"330 774 LINE",
"330 801 OFFCURVE",
"338 814 OFFCURVE",
"356 814 CURVE SMOOTH"
);
},
{
closed = 1;
nodes = (
"572 0 LINE",
"794 0 LINE",
"505 701 LINE",
"291 701 LINE",
"-8 0 LINE",
"206 0 LINE",
"248 112 LINE",
"531 112 LINE"
);
},
{
closed = 1;
nodes = (
"306 264 LINE",
"392 493 LINE",
"476 264 LINE"
);
}
);
width = 786;
}
);
leftKerningGroup = A;
note = Atilde;
rightKerningGroup = A;
unicode = 00C3;
},
{
glyphname = AE;
layers = (
{
hints = (
{
horizontal = 1;
place = "{0, 160}";
type = Stem;
},
{
horizontal = 1;
place = "{271, 160}";
type = Stem;
},
{
horizontal = 1;
place = "{541, 160}";
type = Stem;
},
{
place = "{503, 208}";
type = Stem;
},
{
horizontal = 1;
place = "{133, 150}";
type = Stem;
}
);
layerId = "32B14746-0B3F-40B0-A5C5-A5220BCE1F35";
paths = (
{
closed = 1;
nodes = (
"711 160 LINE",
"711 271 LINE",
"1042 271 LINE",
"1042 431 LINE",
"711 431 LINE",
"711 541 LINE",
"1076 541 LINE",
"1076 701 LINE",
"386 701 LINE",
"-8 0 LINE",
"208 0 LINE",
"276 133 LINE",
"503 133 LINE",
"503 0 LINE",
"1086 0 LINE",
"1086 160 LINE"
);
},
{
closed = 1;
nodes = (
"353 283 LINE",
"485 542 LINE",
"503 542 LINE",
"503 283 LINE"
);
}
);
width = 1127;
}
);
leftKerningGroup = A;
note = AE;
unicode = 00C6;
},
{
glyphname = AEacute;
layers = (
{
hints = (
{
horizontal = 1;
place = "{0, 160}";
type = Stem;
},
{
horizontal = 1;
place = "{271, 160}";
type = Stem;
},
{
horizontal = 1;
place = "{541, 160}";
type = Stem;
},
{
place = "{503, 208}";
type = Stem;
},
{
horizontal = 1;
place = "{133, 150}";
type = Stem;
}
);
layerId = "32B14746-0B3F-40B0-A5C5-A5220BCE1F35";
paths = (
{
closed = 1;
nodes = (
"943 874 LINE",
"768 932 LINE",
"661 752 LINE",
"809 752 LINE"
);
},
{
closed = 1;
nodes = (
"711 160 LINE",
"711 271 LINE",
"1042 271 LINE",
"1042 431 LINE",
"711 431 LINE",
"711 541 LINE",
"1076 541 LINE",
"1076 701 LINE",
"386 701 LINE",
"-8 0 LINE",
"208 0 LINE",
"276 133 LINE",
"503 133 LINE",
"503 0 LINE",
"1086 0 LINE",
"1086 160 LINE"
);
},
{
closed = 1;
nodes = (
"353 283 LINE",
"485 542 LINE",
"503 542 LINE",
"503 283 LINE"
);
}
);
width = 1127;
}
);
note = AEacute;
unicode = 01FC;
},
{
glyphname = B;
layers = (
{
hints = (
{
horizontal = 1;
place = "{0, 156}";
type = Stem;
},
{
horizontal = 1;
place = "{283, 143}";
type = Stem;
},
{
horizontal = 1;
place = "{545, 156}";
type = Stem;
},
{
place = "{59, 207}";
type = Stem;
},
{
place = "{459, 213}";
type = Stem;
},
{
place = "{479, 215}";
type = Stem;
}
);
layerId = "32B14746-0B3F-40B0-A5C5-A5220BCE1F35";
paths = (
{
closed = 1;
nodes = (
"59 701 LINE",
"59 0 LINE",
"418 0 LINE SMOOTH",
"586 0 OFFCURVE",
"694 76 OFFCURVE",
"694 196 CURVE SMOOTH",
"694 285 OFFCURVE",
"639 355 OFFCURVE",
"553 373 CURVE",
"626 394 OFFCURVE",
"672 453 OFFCURVE",
"672 524 CURVE SMOOTH",
"672 632 OFFCURVE",
"567 701 OFFCURVE",
"403 701 CURVE SMOOTH"
);
},
{
closed = 1;
nodes = (
"266 426 LINE",
"266 545 LINE",
"392 545 LINE SMOOTH",
"433 545 OFFCURVE",
"459 523 OFFCURVE",
"459 487 CURVE SMOOTH",
"459 450 OFFCURVE",
"433 426 OFFCURVE",
"392 426 CURVE SMOOTH"
);
},
{
closed = 1;
nodes = (
"266 156 LINE",
"266 283 LINE",
"392 283 LINE SMOOTH",
"445 284 OFFCURVE",
"479 260 OFFCURVE",
"479 222 CURVE SMOOTH",
"479 181 OFFCURVE",
"445 155 OFFCURVE",
"392 156 CURVE SMOOTH"
);
}
);
width = 720;
}
);
leftKerningGroup = B;
note = B;
rightKerningGroup = B;
unicode = 0042;
},
{
glyphname = C;
layers = (
{
hints = (
{
horizontal = 1;
place = "{-9, 182}";
type = Stem;
},
{
horizontal = 1;
place = "{534, 173}";
type = Stem;
},
{
place = "{19, 213}";
type = Stem;
}
);
layerId = "32B14746-0B3F-40B0-A5C5-A5220BCE1F35";
paths = (
{
closed = 1;
nodes = (
"686 583 LINE",
"615 659 OFFCURVE",
"502 707 OFFCURVE",
"396 707 CURVE SMOOTH",
"179 707 OFFCURVE",
"19 556 OFFCURVE",
"19 352 CURVE SMOOTH",
"19 145 OFFCURVE",
"176 -9 OFFCURVE",
"389 -9 CURVE SMOOTH",
"495 -9 OFFCURVE",
"610 44 OFFCURVE",
"686 126 CURVE",
"566 254 LINE",
"518 205 OFFCURVE",
"453 173 OFFCURVE",
"399 173 CURVE SMOOTH",
"304 173 OFFCURVE",
"232 251 OFFCURVE",
"232 354 CURVE SMOOTH",
"232 457 OFFCURVE",
"304 534 OFFCURVE",
"399 534 CURVE SMOOTH",
"457 534 OFFCURVE",
"522 497 OFFCURVE",
"566 441 CURVE"
);
}
);
width = 690;
}
);
leftKerningGroup = C;
note = C;
rightKerningGroup = C;
unicode = 0043;
},
{
glyphname = Cacute;
layers = (
{
hints = (
{
horizontal = 1;
place = "{-9, 182}";
type = Stem;
},
{
horizontal = 1;
place = "{534, 173}";
type = Stem;
},
{
place = "{19, 213}";
type = Stem;
}
);
layerId = "32B14746-0B3F-40B0-A5C5-A5220BCE1F35";
paths = (
{
closed = 1;
nodes = (
"399 932 LINE",
"292 752 LINE",
"440 752 LINE",
"574 874 LINE"
);
},
{
closed = 1;
nodes = (
"686 583 LINE",
"615 659 OFFCURVE",
"502 707 OFFCURVE",
"396 707 CURVE SMOOTH",
"179 707 OFFCURVE",
"19 556 OFFCURVE",
"19 352 CURVE SMOOTH",
"19 145 OFFCURVE",
"176 -9 OFFCURVE",
"389 -9 CURVE SMOOTH",
"495 -9 OFFCURVE",
"610 44 OFFCURVE",
"686 126 CURVE",
"566 254 LINE",
"518 205 OFFCURVE",
"453 173 OFFCURVE",
"399 173 CURVE SMOOTH",
"304 173 OFFCURVE",
"232 251 OFFCURVE",
"232 354 CURVE SMOOTH",
"232 457 OFFCURVE",
"304 534 OFFCURVE",
"399 534 CURVE SMOOTH",
"457 534 OFFCURVE",
"522 497 OFFCURVE",
"566 441 CURVE"
);
}
);
width = 690;
}
);
leftKerningGroup = C;
note = Cacute;
rightKerningGroup = C;
unicode = 0106;
},
{
glyphname = Ccaron;
layers = (
{
hints = (
{
horizontal = 1;
place = "{-9, 182}";
type = Stem;
},
{
horizontal = 1;
place = "{534, 173}";
type = Stem;
},
{
horizontal = 1;
place = "{751, 172}";
type = Stem;
},
{
place = "{19, 213}";
type = Stem;
}
);
layerId = "32B14746-0B3F-40B0-A5C5-A5220BCE1F35";
paths = (
{
closed = 1;
nodes = (
"172 923 LINE",
"299 751 LINE",
"469 751 LINE",
"596 923 LINE",
"445 923 LINE",
"384 832 LINE",
"323 923 LINE"
);
},
{
closed = 1;
nodes = (
"686 583 LINE",
"615 659 OFFCURVE",
"502 707 OFFCURVE",
"396 707 CURVE SMOOTH",
"179 707 OFFCURVE",
"19 556 OFFCURVE",
"19 352 CURVE SMOOTH",
"19 145 OFFCURVE",
"176 -9 OFFCURVE",
"389 -9 CURVE SMOOTH",
"495 -9 OFFCURVE",
"610 44 OFFCURVE",
"686 126 CURVE",
"566 254 LINE",
"518 205 OFFCURVE",
"453 173 OFFCURVE",
"399 173 CURVE SMOOTH",
"304 173 OFFCURVE",
"232 251 OFFCURVE",
"232 354 CURVE SMOOTH",
"232 457 OFFCURVE",
"304 534 OFFCURVE",
"399 534 CURVE SMOOTH",
"457 534 OFFCURVE",
"522 497 OFFCURVE",
"566 441 CURVE"
);
}
);
width = 690;
}
);
leftKerningGroup = C;
note = Ccaron;
rightKerningGroup = C;
unicode = 010C;
},
{
glyphname = Ccedilla;
layers = (
{
hints = (
{
horizontal = 1;
place = "{-242, 95}";
type = Stem;
},
{
horizontal = 1;
place = "{-5, 21}";
target = up;
type = BottomGhost;
},
{
horizontal = 1;
place = "{534, 173}";
type = Stem;
},
{
place = "{19, 213}";
type = Stem;
},
{
place = "{375, 112}";
type = Stem;
}
);
layerId = "32B14746-0B3F-40B0-A5C5-A5220BCE1F35";
paths = (
{
closed = 1;
nodes = (
"304 173 OFFCURVE",
"232 251 OFFCURVE",
"232 354 CURVE SMOOTH",
"232 457 OFFCURVE",
"304 534 OFFCURVE",
"399 534 CURVE SMOOTH",
"457 534 OFFCURVE",
"522 497 OFFCURVE",
"566 441 CURVE",
"686 583 LINE",
"615 659 OFFCURVE",
"502 707 OFFCURVE",
"396 707 CURVE SMOOTH",
"179 707 OFFCURVE",
"19 556 OFFCURVE",
"19 352 CURVE SMOOTH",
"19 163 OFFCURVE",
"149 19 OFFCURVE",
"333 -5 CURVE",
"295 -82 LINE",
"307 -80 OFFCURVE",
"322 -78 OFFCURVE",
"331 -78 CURVE SMOOTH",
"359 -78 OFFCURVE",
"375 -92 OFFCURVE",
"375 -113 CURVE SMOOTH",
"375 -133 OFFCURVE",
"360 -147 OFFCURVE",
"336 -147 CURVE SMOOTH",
"320 -147 OFFCURVE",
"303 -139 OFFCURVE",
"291 -127 CURVE",
"255 -209 LINE",
"284 -229 OFFCURVE",
"323 -242 OFFCURVE",
"353 -242 CURVE SMOOTH",
"434 -242 OFFCURVE",
"487 -199 OFFCURVE",
"487 -133 CURVE SMOOTH",
"487 -95 OFFCURVE",
"461 -64 OFFCURVE",
"420 -51 CURVE",
"444 -4 LINE",
"533 10 OFFCURVE",
"623 58 OFFCURVE",
"686 126 CURVE",
"566 254 LINE",
"518 205 OFFCURVE",
"453 173 OFFCURVE",
"399 173 CURVE SMOOTH"
);
}
);
width = 690;
}
);
leftKerningGroup = C;
note = Ccedilla;
rightKerningGroup = C;
unicode = 00C7;
},
{
glyphname = Ccedillaacute;
layers = (
{
hints = (
{
horizontal = 1;
place = "{-258, 95}";
type = Stem;
},
{
horizontal = 1;
place = "{-3, 21}";
target = up;
type = BottomGhost;
},
{
horizontal = 1;
place = "{534, 173}";
type = Stem;
},
{
place = "{19, 213}";
type = Stem;
},
{
place = "{350, 112}";
type = Stem;
}
);
layerId = "32B14746-0B3F-40B0-A5C5-A5220BCE1F35";
paths = (
{
closed = 1;
nodes = (
"576 874 LINE",
"401 932 LINE",
"294 752 LINE",
"442 752 LINE"
);
},
{
closed = 1;
nodes = (
"304 173 OFFCURVE",
"232 251 OFFCURVE",
"232 354 CURVE SMOOTH",
"232 457 OFFCURVE",
"304 534 OFFCURVE",
"399 534 CURVE SMOOTH",
"457 534 OFFCURVE",
"522 497 OFFCURVE",
"566 441 CURVE",
"686 583 LINE",
"615 659 OFFCURVE",
"502 707 OFFCURVE",
"396 707 CURVE SMOOTH",
"179 707 OFFCURVE",
"19 556 OFFCURVE",
"19 352 CURVE SMOOTH",
"19 169 OFFCURVE",
"142 27 OFFCURVE",
"318 -3 CURVE",
"270 -98 LINE",
"282 -96 OFFCURVE",
"297 -94 OFFCURVE",
"306 -94 CURVE SMOOTH",
"334 -94 OFFCURVE",
"350 -108 OFFCURVE",
"350 -129 CURVE SMOOTH",
"350 -149 OFFCURVE",
"335 -163 OFFCURVE",
"311 -163 CURVE SMOOTH",
"295 -163 OFFCURVE",
"278 -155 OFFCURVE",
"266 -143 CURVE",
"230 -225 LINE",
"259 -245 OFFCURVE",
"298 -258 OFFCURVE",
"328 -258 CURVE SMOOTH",
"409 -258 OFFCURVE",
"462 -215 OFFCURVE",
"462 -149 CURVE SMOOTH",
"462 -111 OFFCURVE",
"436 -80 OFFCURVE",
"395 -67 CURVE",
"426 -7 LINE",
"521 4 OFFCURVE",
"619 54 OFFCURVE",
"686 126 CURVE",
"566 254 LINE",
"518 205 OFFCURVE",
"453 173 OFFCURVE",
"399 173 CURVE SMOOTH"
);
}
);
width = 690;
}
);
note = uni1E08;
unicode = 1E08;
},
{
glyphname = Ccircumflex;
layers = (
{
hints = (
{
horizontal = 1;
place = "{-9, 182}";
type = Stem;
},
{
horizontal = 1;
place = "{534, 173}";
type = Stem;
},
{
horizontal = 1;
place = "{766, 157}";
type = Stem;
},
{
place = "{19, 213}";
type = Stem;
}
);
layerId = "32B14746-0B3F-40B0-A5C5-A5220BCE1F35";
paths = (
{
closed = 1;
nodes = (
"311 923 LINE",
"194 766 LINE",
"333 766 LINE",
"389 849 LINE",
"445 766 LINE",
"584 766 LINE",
"467 923 LINE"
);
},
{
closed = 1;
nodes = (
"686 583 LINE",
"615 659 OFFCURVE",
"502 707 OFFCURVE",
"396 707 CURVE SMOOTH",
"179 707 OFFCURVE",
"19 556 OFFCURVE",
"19 352 CURVE SMOOTH",
"19 145 OFFCURVE",
"176 -9 OFFCURVE",
"389 -9 CURVE SMOOTH",
"495 -9 OFFCURVE",
"610 44 OFFCURVE",
"686 126 CURVE",
"566 254 LINE",
"518 205 OFFCURVE",
"453 173 OFFCURVE",
"399 173 CURVE SMOOTH",
"304 173 OFFCURVE",
"232 251 OFFCURVE",
"232 354 CURVE SMOOTH",
"232 457 OFFCURVE",
"304 534 OFFCURVE",
"399 534 CURVE SMOOTH",
"457 534 OFFCURVE",
"522 497 OFFCURVE",
"566 441 CURVE"
);
}
);
width = 690;
}
);
leftKerningGroup = C;
note = Ccircumflex;
rightKerningGroup = C;
unicode = 0108;
},
{
glyphname = Cdotaccent;
layers = (
{
hints = (
{
horizontal = 1;
place = "{-9, 182}";
type = Stem;
},
{
horizontal = 1;
place = "{534, 173}";
type = Stem;
},
{
horizontal = 1;
place = "{768, 172}";
type = Stem;
},
{
place = "{19, 213}";
type = Stem;
},
{
place = "{303, 172}";
type = Stem;
}
);
layerId = "32B14746-0B3F-40B0-A5C5-A5220BCE1F35";
paths = (
{
closed = 1;
nodes = (
"338 940 OFFCURVE",
"303 904 OFFCURVE",
"303 853 CURVE SMOOTH",
"303 804 OFFCURVE",
"338 768 OFFCURVE",
"389 768 CURVE SMOOTH",
"440 768 OFFCURVE",
"475 804 OFFCURVE",
"475 853 CURVE SMOOTH",
"475 904 OFFCURVE",
"440 940 OFFCURVE",
"389 940 CURVE SMOOTH"
);
},
{
closed = 1;
nodes = (
"686 583 LINE",
"615 659 OFFCURVE",
"502 707 OFFCURVE",
"396 707 CURVE SMOOTH",
"179 707 OFFCURVE",
"19 556 OFFCURVE",
"19 352 CURVE SMOOTH",
"19 145 OFFCURVE",
"176 -9 OFFCURVE",
"389 -9 CURVE SMOOTH",
"495 -9 OFFCURVE",
"610 44 OFFCURVE",
"686 126 CURVE",
"566 254 LINE",
"518 205 OFFCURVE",
"453 173 OFFCURVE",
"399 173 CURVE SMOOTH",
"304 173 OFFCURVE",
"232 251 OFFCURVE",
"232 354 CURVE SMOOTH",
"232 457 OFFCURVE",
"304 534 OFFCURVE",
"399 534 CURVE SMOOTH",
"457 534 OFFCURVE",
"522 497 OFFCURVE",
"566 441 CURVE"
);
}
);
width = 690;
}
);
leftKerningGroup = C;
note = Cdotaccent;
rightKerningGroup = C;
unicode = 010A;
},
{
glyphname = D;
layers = (
{
hints = (
{
horizontal = 1;
place = "{0, 163}";
type = Stem;
},
{
horizontal = 1;
place = "{537, 164}";
type = Stem;
},
{
place = "{59, 208}";
type = Stem;
},
{
place = "{531, 212}";
type = Stem;
}
);
layerId = "32B14746-0B3F-40B0-A5C5-A5220BCE1F35";
paths = (
{
closed = 1;
nodes = (
"59 701 LINE",
"59 0 LINE",
"359 0 LINE SMOOTH",
"590 0 OFFCURVE",
"743 140 OFFCURVE",
"743 351 CURVE SMOOTH",
"743 562 OFFCURVE",
"593 701 OFFCURVE",
"366 701 CURVE SMOOTH"
);
},
{
closed = 1;
nodes = (
"267 163 LINE",
"267 537 LINE",
"362 537 LINE SMOOTH",
"462 537 OFFCURVE",
"531 462 OFFCURVE",
"531 349 CURVE SMOOTH",
"531 237 OFFCURVE",
"467 163 OFFCURVE",
"372 163 CURVE SMOOTH"
);
}
);
width = 762;
}
);
leftKerningGroup = B;
note = D;
rightKerningGroup = D;
unicode = 0044;
},
{
glyphname = DZcaron;
layers = (
{
hints = (
{
horizontal = 1;
place = "{0, 162}";
type = Stem;
},
{
horizontal = 1;
place = "{539, 162}";
type = Stem;
},
{
horizontal = 1;
place = "{751, 172}";
type = Stem;
},
{
place = "{59, 208}";
type = Stem;
},
{
place = "{531, 212}";
type = Stem;
}
);
layerId = "32B14746-0B3F-40B0-A5C5-A5220BCE1F35";
paths = (
{
closed = 1;
nodes = (
"888 923 LINE",
"1015 751 LINE",
"1185 751 LINE",
"1312 923 LINE",
"1161 923 LINE",
"1100 832 LINE",
"1039 923 LINE"
);
},
{
closed = 1;
nodes = (
"59 701 LINE",
"59 0 LINE",
"359 0 LINE SMOOTH",
"590 0 OFFCURVE",
"743 140 OFFCURVE",
"743 351 CURVE SMOOTH",
"743 562 OFFCURVE",
"593 701 OFFCURVE",
"366 701 CURVE SMOOTH"
);
},
{
closed = 1;
nodes = (
"798 701 LINE",
"798 539 LINE",
"1134 539 LINE",
"786 131 LINE",
"786 0 LINE",
"1418 0 LINE",
"1418 162 LINE",
"1063 162 LINE",
"1411 569 LINE",
"1411 701 LINE"
);
},
{
closed = 1;
nodes = (
"267 163 LINE",
"267 537 LINE",
"362 537 LINE SMOOTH",
"462 537 OFFCURVE",
"531 462 OFFCURVE",
"531 349 CURVE SMOOTH",
"531 237 OFFCURVE",
"467 163 OFFCURVE",
"372 163 CURVE SMOOTH"
);
}
);
width = 1441;
}
);
note = uni01C4;
unicode = 01C4;
},
{
glyphname = Eth;
layers = (
{
hints = (
{
horizontal = 1;
place = "{0, 163}";
type = Stem;
},
{
horizontal = 1;
place = "{297, 108}";
type = Stem;
},
{
horizontal = 1;
place = "{537, 164}";
type = Stem;
},
{
place = "{97, 208}";
type = Stem;
},
{
place = "{569, 212}";
type = Stem;
}
);
layerId = "32B14746-0B3F-40B0-A5C5-A5220BCE1F35";
paths = (
{
closed = 1;
nodes = (
"97 701 LINE",
"97 405 LINE",
"0 405 LINE",
"0 297 LINE",
"97 297 LINE",
"97 0 LINE",
"397 0 LINE SMOOTH",
"628 0 OFFCURVE",
"781 140 OFFCURVE",
"781 351 CURVE SMOOTH",
"781 562 OFFCURVE",
"631 701 OFFCURVE",
"404 701 CURVE SMOOTH"
);
},
{
closed = 1;
nodes = (
"305 163 LINE",
"305 297 LINE",
"444 297 LINE",
"444 405 LINE",
"305 405 LINE",
"305 537 LINE",
"400 537 LINE SMOOTH",
"500 537 OFFCURVE",
"569 462 OFFCURVE",
"569 349 CURVE SMOOTH",
"569 237 OFFCURVE",
"505 163 OFFCURVE",
"410 163 CURVE SMOOTH"
);
}
);
width = 801;
}
);
leftKerningGroup = B;
note = Eth;
rightKerningGroup = D;
unicode = 00D0;
},
{
glyphname = Dcaron;
layers = (
{
hints = (
{
horizontal = 1;
place = "{0, 163}";
type = Stem;
},
{
horizontal = 1;
place = "{537, 164}";
type = Stem;
},
{
horizontal = 1;
place = "{751, 172}";
type = Stem;
},
{
place = "{59, 208}";
type = Stem;
},
{
place = "{531, 212}";
type = Stem;
}
);
layerId = "32B14746-0B3F-40B0-A5C5-A5220BCE1F35";
paths = (
{
closed = 1;
nodes = (
"138 923 LINE",
"265 751 LINE",
"435 751 LINE",
"562 923 LINE",
"411 923 LINE",
"350 832 LINE",
"289 923 LINE"
);
},
{
closed = 1;
nodes = (
"59 701 LINE",
"59 0 LINE",
"359 0 LINE SMOOTH",
"590 0 OFFCURVE",
"743 140 OFFCURVE",
"743 351 CURVE SMOOTH",
"743 562 OFFCURVE",
"593 701 OFFCURVE",
"366 701 CURVE SMOOTH"
);
},
{
closed = 1;
nodes = (
"267 163 LINE",
"267 537 LINE",
"362 537 LINE SMOOTH",
"462 537 OFFCURVE",
"531 462 OFFCURVE",
"531 349 CURVE SMOOTH",
"531 237 OFFCURVE",
"467 163 OFFCURVE",
"372 163 CURVE SMOOTH"
);
}
);
width = 762;
}
);
leftKerningGroup = B;
note = Dcaron;
rightKerningGroup = D;
unicode = 010E;
},
{
glyphname = Dcroat;
layers = (
{
hints = (
{
horizontal = 1;
place = "{0, 163}";
type = Stem;
},
{
horizontal = 1;
place = "{297, 108}";
type = Stem;
},
{
horizontal = 1;
place = "{537, 164}";
type = Stem;
},
{
place = "{97, 208}";
type = Stem;
},
{
place = "{569, 212}";
type = Stem;
}
);
layerId = "32B14746-0B3F-40B0-A5C5-A5220BCE1F35";
paths = (
{
closed = 1;
nodes = (
"97 701 LINE",
"97 405 LINE",
"0 405 LINE",
"0 297 LINE",
"97 297 LINE",
"97 0 LINE",
"397 0 LINE SMOOTH",
"628 0 OFFCURVE",
"781 140 OFFCURVE",
"781 351 CURVE SMOOTH",
"781 562 OFFCURVE",
"631 701 OFFCURVE",
"404 701 CURVE SMOOTH"
);
},
{
closed = 1;
nodes = (
"305 163 LINE",
"305 297 LINE",
"444 297 LINE",
"444 405 LINE",
"305 405 LINE",
"305 537 LINE",
"400 537 LINE SMOOTH",
"500 537 OFFCURVE",
"569 462 OFFCURVE",
"569 349 CURVE SMOOTH",
"569 237 OFFCURVE",
"505 163 OFFCURVE",
"410 163 CURVE SMOOTH"
);
}
);
width = 801;
}
);
leftKerningGroup = B;
note = Dcroat;
rightKerningGroup = D;
unicode = 0110;
},
{
glyphname = Ddotbelow;
layers = (
{
hints = (
{
horizontal = 1;
place = "{0, 163}";
type = Stem;
},
{
horizontal = 1;
place = "{537, 164}";
type = Stem;
},
{
place = "{59, 208}";
type = Stem;
},
{
place = "{531, 212}";
type = Stem;
},
{
horizontal = 1;
place = "{-222, 172}";
type = Stem;
},
{
place = "{284, 172}";
type = Stem;
}
);
layerId = "32B14746-0B3F-40B0-A5C5-A5220BCE1F35";
paths = (
{
closed = 1;
nodes = (
"59 701 LINE",
"59 0 LINE",
"359 0 LINE SMOOTH",
"590 0 OFFCURVE",
"743 140 OFFCURVE",
"743 351 CURVE SMOOTH",
"743 562 OFFCURVE",
"593 701 OFFCURVE",
"366 701 CURVE SMOOTH"
);
},
{
closed = 1;
nodes = (
"267 163 LINE",
"267 537 LINE",
"362 537 LINE SMOOTH",
"462 537 OFFCURVE",
"531 462 OFFCURVE",
"531 349 CURVE SMOOTH",
"531 237 OFFCURVE",
"467 163 OFFCURVE",
"372 163 CURVE SMOOTH"
);
},
{
closed = 1;
nodes = (
"319 -50 OFFCURVE",
"284 -86 OFFCURVE",
"284 -137 CURVE SMOOTH",
"284 -186 OFFCURVE",
"319 -222 OFFCURVE",
"370 -222 CURVE SMOOTH",
"421 -222 OFFCURVE",
"456 -186 OFFCURVE",
"456 -137 CURVE SMOOTH",
"456 -86 OFFCURVE",
"421 -50 OFFCURVE",
"370 -50 CURVE SMOOTH"
);
}
);
width = 762;
}
);
note = uni1E0C;
unicode = 1E0C;
},
{
glyphname = Dlinebelow;
layers = (
{
hints = (
{
horizontal = 1;
place = "{-196, 133}";
type = Stem;
},
{
horizontal = 1;
place = "{0, 163}";
type = Stem;
},
{
horizontal = 1;
place = "{537, 164}";
type = Stem;
},
{
place = "{59, 208}";
type = Stem;
},
{
place = "{531, 212}";
type = Stem;
}
);
layerId = "32B14746-0B3F-40B0-A5C5-A5220BCE1F35";
paths = (
{
closed = 1;
nodes = (
"59 701 LINE",
"59 0 LINE",
"359 0 LINE SMOOTH",
"590 0 OFFCURVE",
"743 140 OFFCURVE",
"743 351 CURVE SMOOTH",
"743 562 OFFCURVE",
"593 701 OFFCURVE",
"366 701 CURVE SMOOTH"
);
},
{
closed = 1;
nodes = (
"267 163 LINE",
"267 537 LINE",
"362 537 LINE SMOOTH",
"462 537 OFFCURVE",
"531 462 OFFCURVE",
"531 349 CURVE SMOOTH",
"531 237 OFFCURVE",
"467 163 OFFCURVE",
"372 163 CURVE SMOOTH"
);
},
{
closed = 1;
nodes = (
"225 -63 LINE",
"225 -196 LINE",
"515 -196 LINE",
"515 -63 LINE"
);
}
);
width = 762;
}
);
note = uni1E0E;
unicode = 1E0E;
},
{
glyphname = Dzcaron;
layers = (
{
hints = (
{
horizontal = 1;
place = "{0, 151}";
type = Stem;
},
{
horizontal = 1;
place = "{392, 152}";
type = Stem;
},
{
horizontal = 1;
place = "{594, 172}";
type = Stem;
},
{
place = "{59, 208}";
type = Stem;
},
{
horizontal = 1;
place = "{537, 164}";
type = Stem;
},
{
place = "{531, 212}";
type = Stem;
},
{
horizontal = 1;
place = "{0, 163}";
type = Stem;
}
);
layerId = "32B14746-0B3F-40B0-A5C5-A5220BCE1F35";
paths = (
{
closed = 1;
nodes = (
"827 766 LINE",
"954 594 LINE",
"1124 594 LINE",
"1251 766 LINE",
"1100 766 LINE",
"1039 675 LINE",
"978 766 LINE"
);
},
{
closed = 1;
nodes = (
"59 701 LINE",
"59 0 LINE",
"359 0 LINE SMOOTH",
"590 0 OFFCURVE",
"743 140 OFFCURVE",
"743 351 CURVE SMOOTH",
"743 562 OFFCURVE",
"593 701 OFFCURVE",
"366 701 CURVE SMOOTH"
);
},
{
closed = 1;
nodes = (
"801 544 LINE",
"801 392 LINE",
"1035 392 LINE",
"791 119 LINE",
"791 0 LINE",
"1299 0 LINE",
"1299 151 LINE",
"1045 151 LINE",
"1289 424 LINE",
"1289 544 LINE"
);
},
{
closed = 1;
nodes = (
"267 163 LINE",
"267 537 LINE",
"362 537 LINE SMOOTH",
"462 537 OFFCURVE",
"531 462 OFFCURVE",
"531 349 CURVE SMOOTH",
"531 237 OFFCURVE",
"467 163 OFFCURVE",
"372 163 CURVE SMOOTH"
);
}
);
width = 1324;
}
);
note = uni01C5;
unicode = 01C5;
},
{
glyphname = E;
layers = (
{
hints = (
{
horizontal = 1;
place = "{0, 160}";
type = Stem;
},
{
horizontal = 1;
place = "{271, 160}";
type = Stem;
},
{
horizontal = 1;
place = "{541, 160}";
type = Stem;
},
{
place = "{59, 208}";
type = Stem;
}
);
layerId = "32B14746-0B3F-40B0-A5C5-A5220BCE1F35";
paths = (
{
closed = 1;
nodes = (
"59 701 LINE",
"59 0 LINE",
"642 0 LINE",
"642 160 LINE",
"267 160 LINE",
"267 271 LINE",
"598 271 LINE",
"598 431 LINE",
"267 431 LINE",
"267 541 LINE",
"632 541 LINE",
"632 701 LINE"
);
}
);
width = 683;
}
);
leftKerningGroup = B;
note = E;
unicode = 0045;
},
{
glyphname = Eacute;
layers = (
{
hints = (
{
horizontal = 1;
place = "{0, 160}";
type = Stem;
},
{
horizontal = 1;
place = "{271, 160}";
type = Stem;
},
{
horizontal = 1;
place = "{541, 160}";
type = Stem;
},
{
place = "{59, 208}";
type = Stem;
}
);
layerId = "32B14746-0B3F-40B0-A5C5-A5220BCE1F35";
paths = (
{
closed = 1;
nodes = (
"359 932 LINE",
"252 752 LINE",
"400 752 LINE",
"534 874 LINE"
);
},
{
closed = 1;
nodes = (
"59 701 LINE",
"59 0 LINE",
"642 0 LINE",
"642 160 LINE",
"267 160 LINE",
"267 271 LINE",
"598 271 LINE",
"598 431 LINE",
"267 431 LINE",
"267 541 LINE",
"632 541 LINE",
"632 701 LINE"
);
}
);
width = 683;
}
);
leftKerningGroup = B;
note = Eacute;
unicode = 00C9;
},
{
glyphname = Ebreve;
layers = (
{
hints = (
{
horizontal = 1;
place = "{0, 160}";
type = Stem;
},
{
horizontal = 1;
place = "{271, 160}";
type = Stem;
},
{
horizontal = 1;
place = "{541, 160}";
type = Stem;
},
{
horizontal = 1;
place = "{755, 167}";
type = Stem;
},
{
place = "{174, 123}";
type = Stem;
},
{
place = "{401, 123}";
type = Stem;
},
{
place = "{59, 208}";
type = Stem;
}
);
layerId = "32B14746-0B3F-40B0-A5C5-A5220BCE1F35";
paths = (
{
closed = 1;
nodes = (
"174 922 LINE",
"179 820 OFFCURVE",
"248 755 OFFCURVE",
"349 755 CURVE SMOOTH",
"450 755 OFFCURVE",
"519 820 OFFCURVE",
"524 922 CURVE",
"401 922 LINE",
"398 890 OFFCURVE",
"378 868 OFFCURVE",
"349 868 CURVE SMOOTH",
"320 868 OFFCURVE",
"300 890 OFFCURVE",
"297 922 CURVE"
);
},
{
closed = 1;
nodes = (
"59 701 LINE",
"59 0 LINE",
"642 0 LINE",
"642 160 LINE",
"267 160 LINE",
"267 271 LINE",
"598 271 LINE",
"598 431 LINE",
"267 431 LINE",
"267 541 LINE",
"632 541 LINE",
"632 701 LINE"
);
}
);
width = 683;
}
);
leftKerningGroup = B;
note = Ebreve;
unicode = 0114;
},
{
glyphname = Ecaron;
layers = (
{
hints = (
{
horizontal = 1;
place = "{0, 160}";
type = Stem;
},
{
horizontal = 1;
place = "{271, 160}";
type = Stem;
},
{
horizontal = 1;
place = "{541, 160}";
type = Stem;
},
{
horizontal = 1;
place = "{751, 172}";
type = Stem;
},
{
place = "{59, 208}";
type = Stem;
}
);
layerId = "32B14746-0B3F-40B0-A5C5-A5220BCE1F35";
paths = (
{
closed = 1;
nodes = (
"132 923 LINE",
"259 751 LINE",
"429 751 LINE",
"556 923 LINE",
"405 923 LINE",
"344 832 LINE",
"283 923 LINE"
);
},
{
closed = 1;
nodes = (
"59 701 LINE",
"59 0 LINE",
"642 0 LINE",
"642 160 LINE",
"267 160 LINE",
"267 271 LINE",
"598 271 LINE",
"598 431 LINE",
"267 431 LINE",
"267 541 LINE",
"632 541 LINE",
"632 701 LINE"
);
}
);
width = 683;
}
);
leftKerningGroup = B;
note = Ecaron;
unicode = 011A;
},
{
glyphname = Ecedillabreve;
layers = (
{
hints = (
{
horizontal = 1;
place = "{-258, 95}";
type = Stem;
},
{
horizontal = 1;
place = "{0, 160}";
type = Stem;
},
{
horizontal = 1;
place = "{271, 160}";
type = Stem;
},
{
horizontal = 1;
place = "{541, 160}";
type = Stem;
},
{
horizontal = 1;
place = "{755, 167}";
type = Stem;
},
{
place = "{174, 123}";
type = Stem;
},
{
place = "{401, 123}";
type = Stem;
},
{
place = "{59, 208}";
type = Stem;
},
{
place = "{329, 112}";
type = Stem;
}
);
layerId = "32B14746-0B3F-40B0-A5C5-A5220BCE1F35";
paths = (
{
closed = 1;
nodes = (
"450 755 OFFCURVE",
"519 820 OFFCURVE",
"524 922 CURVE",
"401 922 LINE",
"398 890 OFFCURVE",
"378 868 OFFCURVE",
"349 868 CURVE SMOOTH",
"320 868 OFFCURVE",
"300 890 OFFCURVE",
"297 922 CURVE",
"174 922 LINE",
"179 820 OFFCURVE",
"248 755 OFFCURVE",
"349 755 CURVE SMOOTH"
);
},
{
closed = 1;
nodes = (
"642 0 LINE",
"642 160 LINE",
"267 160 LINE",
"267 271 LINE",
"598 271 LINE",
"598 431 LINE",
"267 431 LINE",
"267 541 LINE",
"632 541 LINE",
"632 701 LINE",
"59 701 LINE",
"59 0 LINE",
"298 0 LINE",
"249 -98 LINE",
"261 -96 OFFCURVE",
"276 -94 OFFCURVE",
"285 -94 CURVE SMOOTH",
"313 -94 OFFCURVE",
"329 -108 OFFCURVE",
"329 -129 CURVE SMOOTH",
"329 -149 OFFCURVE",
"314 -163 OFFCURVE",
"290 -163 CURVE SMOOTH",
"274 -163 OFFCURVE",
"257 -155 OFFCURVE",
"245 -143 CURVE",
"209 -225 LINE",
"238 -245 OFFCURVE",
"277 -258 OFFCURVE",
"307 -258 CURVE SMOOTH",
"388 -258 OFFCURVE",
"441 -215 OFFCURVE",
"441 -149 CURVE SMOOTH",
"441 -111 OFFCURVE",
"415 -80 OFFCURVE",
"374 -67 CURVE",
"409 0 LINE"
);
}
);
width = 683;
}
);
note = uni1E1C;
unicode = 1E1C;
},
{
glyphname = Ecircumflex;
layers = (
{
hints = (
{
horizontal = 1;
place = "{0, 160}";
type = Stem;
},
{
horizontal = 1;
place = "{271, 160}";
type = Stem;
},
{
horizontal = 1;
place = "{541, 160}";
type = Stem;
},
{
horizontal = 1;
place = "{766, 157}";
type = Stem;
},
{
place = "{59, 208}";
type = Stem;
}
);
layerId = "32B14746-0B3F-40B0-A5C5-A5220BCE1F35";
paths = (
{
closed = 1;
nodes = (
"271 923 LINE",
"154 766 LINE",
"293 766 LINE",
"349 849 LINE",
"405 766 LINE",
"544 766 LINE",
"427 923 LINE"
);
},
{
closed = 1;
nodes = (
"59 701 LINE",
"59 0 LINE",
"642 0 LINE",
"642 160 LINE",
"267 160 LINE",
"267 271 LINE",
"598 271 LINE",
"598 431 LINE",
"267 431 LINE",
"267 541 LINE",
"632 541 LINE",
"632 701 LINE"
);
}
);
width = 683;
}
);
leftKerningGroup = B;
note = Ecircumflex;
unicode = 00CA;
},
{
glyphname = Ecircumflexacute;
layers = (
{
hints = (
{
horizontal = 1;
place = "{0, 160}";
type = Stem;
},
{
horizontal = 1;
place = "{271, 160}";
type = Stem;
},
{
horizontal = 1;
place = "{541, 160}";
type = Stem;
},
{
horizontal = 1;
place = "{755, 126}";
type = Stem;
},
{
place = "{59, 208}";
type = Stem;
}
);
layerId = "32B14746-0B3F-40B0-A5C5-A5220BCE1F35";
paths = (
{
closed = 1;
nodes = (
"560 982 LINE",
"475 840 LINE",
"587 840 LINE",
"694 936 LINE"
);
},
{
closed = 1;
nodes = (
"288 881 LINE",
"195 755 LINE",
"304 755 LINE",
"349 823 LINE",
"394 755 LINE",
"503 755 LINE",
"410 881 LINE"
);
},
{
closed = 1;
nodes = (
"59 701 LINE",
"59 0 LINE",
"642 0 LINE",
"642 160 LINE",
"267 160 LINE",
"267 271 LINE",
"598 271 LINE",
"598 431 LINE",
"267 431 LINE",
"267 541 LINE",
"632 541 LINE",
"632 701 LINE"
);
}
);
width = 683;
}
);
note = uni1EBE;
unicode = 1EBE;
},
{
glyphname = Ecircumflexdotbelow;
layers = (
{
hints = (
{
horizontal = 1;
place = "{0, 160}";
type = Stem;
},
{
horizontal = 1;
place = "{271, 160}";
type = Stem;
},
{
horizontal = 1;
place = "{541, 160}";
type = Stem;
},
{
horizontal = 1;
place = "{747, 126}";
type = Stem;
},
{
place = "{59, 208}";
type = Stem;
},
{
horizontal = 1;
place = "{-224, 164}";
type = Stem;
},
{
place = "{269, 163}";
type = Stem;
}
);
layerId = "32B14746-0B3F-40B0-A5C5-A5220BCE1F35";
paths = (
{
closed = 1;
nodes = (
"410 873 LINE",
"288 873 LINE",
"195 747 LINE",
"304 747 LINE",
"349 815 LINE",
"394 747 LINE",
"503 747 LINE"
);
},
{
closed = 1;
nodes = (
"59 701 LINE",
"59 0 LINE",
"642 0 LINE",
"642 160 LINE",
"267 160 LINE",
"267 271 LINE",
"598 271 LINE",
"598 431 LINE",
"267 431 LINE",
"267 541 LINE",
"632 541 LINE",
"632 701 LINE"
);
},
{
closed = 1;
nodes = (
"302 -60 OFFCURVE",
"268 -95 OFFCURVE",
"269 -142 CURVE SMOOTH",
"270 -190 OFFCURVE",
"302 -224 OFFCURVE",
"350 -224 CURVE SMOOTH",
"397 -224 OFFCURVE",
"432 -190 OFFCURVE",
"432 -142 CURVE SMOOTH",
"432 -95 OFFCURVE",
"397 -60 OFFCURVE",
"350 -60 CURVE SMOOTH"
);
}
);
width = 683;
}
);
note = uni1EC6;
unicode = 1EC6;
},
{
glyphname = Ecircumflexgrave;
layers = (
{
hints = (
{
horizontal = 1;
place = "{0, 160}";
type = Stem;
},
{
horizontal = 1;
place = "{271, 160}";
type = Stem;
},
{
horizontal = 1;
place = "{541, 160}";
type = Stem;
},
{
horizontal = 1;
place = "{755, 126}";
type = Stem;
},
{
place = "{59, 208}";
type = Stem;
}
);
layerId = "32B14746-0B3F-40B0-A5C5-A5220BCE1F35";
paths = (
{
closed = 1;
nodes = (
"526 982 LINE",
"392 936 LINE",
"499 840 LINE",
"611 840 LINE"
);
},
{
closed = 1;
nodes = (
"288 881 LINE",
"195 755 LINE",
"304 755 LINE",
"349 823 LINE",
"394 755 LINE",
"503 755 LINE",
"410 881 LINE"
);
},
{
closed = 1;
nodes = (
"59 701 LINE",
"59 0 LINE",
"642 0 LINE",
"642 160 LINE",
"267 160 LINE",
"267 271 LINE",
"598 271 LINE",
"598 431 LINE",
"267 431 LINE",
"267 541 LINE",
"632 541 LINE",
"632 701 LINE"
);
}
);
width = 683;
}
);
note = uni1EC0;
unicode = 1EC0;
},
{
glyphname = Ecircumflexhookabove;
layers = (
{
hints = (
{
horizontal = 1;
place = "{0, 160}";
type = Stem;
},
{
horizontal = 1;
place = "{271, 160}";
type = Stem;
},
{
horizontal = 1;
place = "{541, 160}";
type = Stem;
},
{
horizontal = 1;
place = "{755, 126}";
type = Stem;
},
{
horizontal = 1;
place = "{954, 71}";
type = Stem;
},
{
place = "{59, 208}";
type = Stem;
},
{
place = "{513, 82}";
type = Stem;
}
);
layerId = "32B14746-0B3F-40B0-A5C5-A5220BCE1F35";
paths = (
{
closed = 1;
nodes = (
"448 917 LINE",
"450 939 OFFCURVE",
"462 954 OFFCURVE",
"483 954 CURVE SMOOTH",
"502 954 OFFCURVE",
"513 939 OFFCURVE",
"513 921 CURVE SMOOTH",
"513 895 OFFCURVE",
"495 872 OFFCURVE",
"466 846 CURVE",
"534 823 LINE",
"570 856 OFFCURVE",
"595 889 OFFCURVE",
"595 932 CURVE SMOOTH",
"595 985 OFFCURVE",
"555 1025 OFFCURVE",
"487 1025 CURVE SMOOTH",
"428 1025 OFFCURVE",
"383 996 OFFCURVE",
"372 943 CURVE"
);
},
{
closed = 1;
nodes = (
"288 881 LINE",
"195 755 LINE",
"304 755 LINE",
"349 823 LINE",
"394 755 LINE",
"503 755 LINE",
"410 881 LINE"
);
},
{
closed = 1;
nodes = (
"59 701 LINE",
"59 0 LINE",
"642 0 LINE",
"642 160 LINE",
"267 160 LINE",
"267 271 LINE",
"598 271 LINE",
"598 431 LINE",
"267 431 LINE",
"267 541 LINE",
"632 541 LINE",
"632 701 LINE"
);
}
);
width = 683;
}
);
note = uni1EC2;
unicode = 1EC2;
},
{
glyphname = Ecircumflextilde;
layers = (
{
hints = (
{
horizontal = 1;
place = "{0, 160}";
type = Stem;
},
{
horizontal = 1;
place = "{271, 160}";
type = Stem;
},
{
horizontal = 1;
place = "{541, 160}";
type = Stem;
},
{
horizontal = 1;
place = "{755, 126}";
type = Stem;
},
{
horizontal = 1;
place = "{911, 126}";
type = Stem;
},
{
place = "{59, 208}";
type = Stem;
},
{
place = "{398, 89}";
type = Stem;
},
{
horizontal = 1;
place = "{914, 126}";
type = Stem;
},
{
place = "{209, 89}";
type = Stem;
}
);
layerId = "32B14746-0B3F-40B0-A5C5-A5220BCE1F35";
paths = (
{
closed = 1;
nodes = (
"398 1037 LINE",
"398 1016 OFFCURVE",
"392 1006 OFFCURVE",
"377 1006 CURVE SMOOTH",
"358 1006 OFFCURVE",
"337 1040 OFFCURVE",
"292 1040 CURVE SMOOTH",
"236 1040 OFFCURVE",
"209 999 OFFCURVE",
"209 914 CURVE",
"298 914 LINE",
"298 934 OFFCURVE",
"305 945 OFFCURVE",
"319 945 CURVE SMOOTH",
"338 945 OFFCURVE",
"358 911 OFFCURVE",
"405 911 CURVE SMOOTH",
"460 911 OFFCURVE",
"487 952 OFFCURVE",
"487 1037 CURVE"
);
},
{
closed = 1;
nodes = (
"288 881 LINE",
"195 755 LINE",
"304 755 LINE",
"349 823 LINE",
"394 755 LINE",
"503 755 LINE",
"410 881 LINE"
);
},
{
closed = 1;
nodes = (
"59 701 LINE",
"59 0 LINE",
"642 0 LINE",
"642 160 LINE",
"267 160 LINE",
"267 271 LINE",
"598 271 LINE",
"598 431 LINE",
"267 431 LINE",
"267 541 LINE",
"632 541 LINE",
"632 701 LINE"
);
}
);
width = 683;
}
);
note = uni1EC4;
unicode = 1EC4;
},
{
glyphname = Edblgrave;
layers = (
{
hints = (
{
horizontal = 1;
place = "{0, 160}";
type = Stem;
},
{
horizontal = 1;
place = "{271, 160}";
type = Stem;
},
{
horizontal = 1;
place = "{541, 160}";
type = Stem;
},
{
place = "{59, 208}";
type = Stem;
}
);
layerId = "32B14746-0B3F-40B0-A5C5-A5220BCE1F35";
paths = (
{
closed = 1;
nodes = (
"252 933 LINE",
"104 882 LINE",
"193 752 LINE",
"338 752 LINE"
);
},
{
closed = 1;
nodes = (
"461 933 LINE",
"313 882 LINE",
"403 752 LINE",
"548 752 LINE"
);
},
{
closed = 1;
nodes = (
"59 701 LINE",
"59 0 LINE",
"642 0 LINE",
"642 160 LINE",
"267 160 LINE",
"267 271 LINE",
"598 271 LINE",
"598 431 LINE",
"267 431 LINE",
"267 541 LINE",
"632 541 LINE",
"632 701 LINE"
);
}
);
width = 683;
}
);
note = uni0204;
unicode = 0204;
},
{
glyphname = Edieresis;
layers = (
{
hints = (
{
horizontal = 1;
place = "{0, 160}";
type = Stem;
},
{
horizontal = 1;
place = "{271, 160}";
type = Stem;
},
{
horizontal = 1;
place = "{541, 160}";
type = Stem;
},
{
horizontal = 1;
place = "{767, 170}";
type = Stem;
},
{
place = "{164, 169}";
type = Stem;
},
{
place = "{365, 170}";
type = Stem;
},
{
place = "{59, 208}";
type = Stem;
}
);
layerId = "32B14746-0B3F-40B0-A5C5-A5220BCE1F35";
paths = (
{
closed = 1;
nodes = (
"198 937 OFFCURVE",
"164 902 OFFCURVE",
"164 852 CURVE SMOOTH",
"164 803 OFFCURVE",
"198 767 OFFCURVE",
"248 767 CURVE SMOOTH",
"298 767 OFFCURVE",
"333 803 OFFCURVE",
"333 852 CURVE SMOOTH",
"333 902 OFFCURVE",
"298 937 OFFCURVE",
"248 937 CURVE SMOOTH"
);
},
{
closed = 1;
nodes = (
"400 937 OFFCURVE",
"365 902 OFFCURVE",
"365 852 CURVE SMOOTH",
"365 803 OFFCURVE",
"400 767 OFFCURVE",
"450 767 CURVE SMOOTH",
"500 767 OFFCURVE",
"535 803 OFFCURVE",
"535 852 CURVE SMOOTH",
"535 902 OFFCURVE",
"500 937 OFFCURVE",
"450 937 CURVE SMOOTH"
);
},
{
closed = 1;
nodes = (
"59 701 LINE",
"59 0 LINE",
"642 0 LINE",
"642 160 LINE",
"267 160 LINE",
"267 271 LINE",
"598 271 LINE",
"598 431 LINE",
"267 431 LINE",
"267 541 LINE",
"632 541 LINE",
"632 701 LINE"
);
}
);
width = 683;
}
);
leftKerningGroup = B;
note = Edieresis;
unicode = 00CB;
},
{
glyphname = Edotaccent;
layers = (
{
hints = (
{
horizontal = 1;
place = "{0, 160}";
type = Stem;
},
{
horizontal = 1;
place = "{271, 160}";
type = Stem;
},
{
horizontal = 1;
place = "{541, 160}";
type = Stem;
},
{
horizontal = 1;
place = "{768, 172}";
type = Stem;
},
{
place = "{263, 172}";
type = Stem;
},
{
place = "{59, 208}";
type = Stem;
}
);
layerId = "32B14746-0B3F-40B0-A5C5-A5220BCE1F35";
paths = (
{
closed = 1;
nodes = (
"298 940 OFFCURVE",
"263 904 OFFCURVE",
"263 853 CURVE SMOOTH",
"263 804 OFFCURVE",
"298 768 OFFCURVE",
"349 768 CURVE SMOOTH",
"400 768 OFFCURVE",
"435 804 OFFCURVE",
"435 853 CURVE SMOOTH",
"435 904 OFFCURVE",
"400 940 OFFCURVE",
"349 940 CURVE SMOOTH"
);
},
{
closed = 1;
nodes = (
"59 701 LINE",
"59 0 LINE",
"642 0 LINE",
"642 160 LINE",
"267 160 LINE",
"267 271 LINE",
"598 271 LINE",
"598 431 LINE",
"267 431 LINE",
"267 541 LINE",
"632 541 LINE",
"632 701 LINE"
);
}
);
width = 683;
}
);
leftKerningGroup = B;
note = Edotaccent;
unicode = 0116;
},
{
glyphname = Edotbelow;
layers = (
{
hints = (
{
horizontal = 1;
place = "{0, 160}";
type = Stem;
},
{
horizontal = 1;
place = "{271, 160}";
type = Stem;
},
{
horizontal = 1;
place = "{541, 160}";
type = Stem;
},
{
place = "{59, 208}";
type = Stem;
},
{
horizontal = 1;
place = "{-224, 164}";
type = Stem;
},
{
place = "{269, 163}";
type = Stem;
}
);
layerId = "32B14746-0B3F-40B0-A5C5-A5220BCE1F35";
paths = (
{
closed = 1;
nodes = (
"59 701 LINE",
"59 0 LINE",
"642 0 LINE",
"642 160 LINE",
"267 160 LINE",
"267 271 LINE",
"598 271 LINE",
"598 431 LINE",
"267 431 LINE",
"267 541 LINE",
"632 541 LINE",
"632 701 LINE"
);
},
{
closed = 1;
nodes = (
"302 -60 OFFCURVE",
"268 -95 OFFCURVE",
"269 -142 CURVE SMOOTH",
"270 -190 OFFCURVE",
"302 -224 OFFCURVE",
"350 -224 CURVE SMOOTH",
"397 -224 OFFCURVE",
"432 -190 OFFCURVE",
"432 -142 CURVE SMOOTH",
"432 -95 OFFCURVE",
"397 -60 OFFCURVE",
"350 -60 CURVE SMOOTH"
);
}
);
width = 683;
}
);
note = uni1EB8;
unicode = 1EB8;
},
{
glyphname = Egrave;
layers = (
{
hints = (
{
horizontal = 1;
place = "{0, 160}";
type = Stem;
},
{
horizontal = 1;
place = "{271, 160}";
type = Stem;
},
{
horizontal = 1;
place = "{541, 160}";
type = Stem;
},
{
place = "{59, 208}";
type = Stem;
}
);
layerId = "32B14746-0B3F-40B0-A5C5-A5220BCE1F35";
paths = (
{
closed = 1;
nodes = (
"344 932 LINE",
"169 874 LINE",
"303 752 LINE",
"451 752 LINE"
);
},
{
closed = 1;
nodes = (
"59 701 LINE",
"59 0 LINE",
"642 0 LINE",
"642 160 LINE",
"267 160 LINE",
"267 271 LINE",
"598 271 LINE",
"598 431 LINE",
"267 431 LINE",
"267 541 LINE",
"632 541 LINE",
"632 701 LINE"
);
}
);
width = 683;
}
);
leftKerningGroup = B;
note = Egrave;
unicode = 00C8;
},
{
glyphname = Ehookabove;
layers = (
{
hints = (
{
horizontal = 1;
place = "{0, 160}";
type = Stem;
},
{
horizontal = 1;
place = "{271, 160}";
type = Stem;
},
{
horizontal = 1;
place = "{541, 160}";
type = Stem;
},
{
horizontal = 1;
place = "{875, 83}";
type = Stem;
},
{
place = "{59, 208}";
type = Stem;
},
{
place = "{386, 94}";
type = Stem;
}
);
layerId = "32B14746-0B3F-40B0-A5C5-A5220BCE1F35";
paths = (
{
closed = 1;
nodes = (
"311 836 LINE",
"313 859 OFFCURVE",
"327 875 OFFCURVE",
"351 875 CURVE SMOOTH",
"374 875 OFFCURVE",
"386 859 OFFCURVE",
"386 840 CURVE SMOOTH",
"386 814 OFFCURVE",
"369 793 OFFCURVE",
"339 765 CURVE",
"419 739 LINE",
"456 772 OFFCURVE",
"480 808 OFFCURVE",
"480 849 CURVE SMOOTH",
"480 911 OFFCURVE",
"434 958 OFFCURVE",
"356 958 CURVE SMOOTH",
"287 958 OFFCURVE",
"235 925 OFFCURVE",
"223 865 CURVE"
);
},
{
closed = 1;
nodes = (
"59 701 LINE",
"59 0 LINE",
"642 0 LINE",
"642 160 LINE",
"267 160 LINE",
"267 271 LINE",
"598 271 LINE",
"598 431 LINE",
"267 431 LINE",
"267 541 LINE",
"632 541 LINE",
"632 701 LINE"
);
}
);
width = 683;
}
);
note = uni1EBA;
unicode = 1EBA;
},
{
glyphname = Einvertedbreve;
layers = (
{
hints = (
{
horizontal = 1;
place = "{0, 160}";
type = Stem;
},
{
horizontal = 1;
place = "{271, 160}";
type = Stem;
},
{
horizontal = 1;
place = "{541, 160}";
type = Stem;
},
{
horizontal = 1;
place = "{755, 167}";
type = Stem;
},
{
place = "{174, 123}";
type = Stem;
},
{
place = "{401, 123}";
type = Stem;
},
{
place = "{59, 208}";
type = Stem;
}
);
layerId = "32B14746-0B3F-40B0-A5C5-A5220BCE1F35";
paths = (
{
closed = 1;
nodes = (
"297 755 LINE",
"300 787 OFFCURVE",
"320 808 OFFCURVE",
"349 808 CURVE SMOOTH",
"378 808 OFFCURVE",
"398 787 OFFCURVE",
"401 755 CURVE",
"524 755 LINE",
"519 856 OFFCURVE",
"450 922 OFFCURVE",
"349 922 CURVE SMOOTH",
"248 922 OFFCURVE",
"179 856 OFFCURVE",
"174 755 CURVE"
);
},
{
closed = 1;
nodes = (
"59 701 LINE",
"59 0 LINE",
"642 0 LINE",
"642 160 LINE",
"267 160 LINE",
"267 271 LINE",
"598 271 LINE",
"598 431 LINE",
"267 431 LINE",
"267 541 LINE",
"632 541 LINE",
"632 701 LINE"
);
}
);
width = 683;
}
);
note = uni0206;
unicode = 0206;
},
{
glyphname = Emacron;
layers = (
{
hints = (
{
horizontal = 1;
place = "{0, 160}";
type = Stem;
},
{
horizontal = 1;
place = "{271, 160}";
type = Stem;
},
{
horizontal = 1;
place = "{541, 160}";
type = Stem;
},
{
horizontal = 1;
place = "{785, 133}";
type = Stem;
},
{
place = "{204, 290}";
type = Stem;
},
{
place = "{59, 208}";
type = Stem;
}
);
layerId = "32B14746-0B3F-40B0-A5C5-A5220BCE1F35";
paths = (
{
closed = 1;
nodes = (
"204 918 LINE",
"204 785 LINE",
"494 785 LINE",
"494 918 LINE"
);
},
{
closed = 1;
nodes = (
"59 701 LINE",
"59 0 LINE",
"642 0 LINE",
"642 160 LINE",
"267 160 LINE",
"267 271 LINE",
"598 271 LINE",
"598 431 LINE",
"267 431 LINE",
"267 541 LINE",
"632 541 LINE",
"632 701 LINE"
);
}
);
width = 683;
}
);
leftKerningGroup = B;
note = Emacron;
unicode = 0112;
},
{
glyphname = Emacronacute;
layers = (
{
hints = (
{
horizontal = 1;
place = "{0, 160}";
type = Stem;
},
{
horizontal = 1;
place = "{271, 160}";
type = Stem;
},
{
horizontal = 1;
place = "{541, 160}";
type = Stem;
},
{
horizontal = 1;
place = "{781, 133}";
type = Stem;
},
{
place = "{59, 208}";
type = Stem;
}
);
layerId = "32B14746-0B3F-40B0-A5C5-A5220BCE1F35";
paths = (
{
closed = 1;
nodes = (
"361 1158 LINE",
"254 978 LINE",
"402 978 LINE",
"536 1100 LINE"
);
},
{
closed = 1;
nodes = (
"204 914 LINE",
"204 781 LINE",
"494 781 LINE",
"494 914 LINE"
);
},
{
closed = 1;
nodes = (
"59 701 LINE",
"59 0 LINE",
"642 0 LINE",
"642 160 LINE",
"267 160 LINE",
"267 271 LINE",
"598 271 LINE",
"598 431 LINE",
"267 431 LINE",
"267 541 LINE",
"632 541 LINE",
"632 701 LINE"
);
}
);
width = 683;
}
);
note = uni1E16;
unicode = 1E16;
},
{
glyphname = Emacrongrave;
layers = (
{
hints = (
{
horizontal = 1;
place = "{0, 160}";
type = Stem;
},
{
horizontal = 1;
place = "{271, 160}";
type = Stem;
},
{
horizontal = 1;
place = "{541, 160}";
type = Stem;
},
{
horizontal = 1;
place = "{781, 133}";
type = Stem;
},
{
place = "{59, 208}";
type = Stem;
}
);
layerId = "32B14746-0B3F-40B0-A5C5-A5220BCE1F35";
paths = (
{
closed = 1;
nodes = (
"338 1158 LINE",
"163 1100 LINE",
"297 978 LINE",
"445 978 LINE"
);
},
{
closed = 1;
nodes = (
"204 914 LINE",
"204 781 LINE",
"494 781 LINE",
"494 914 LINE"
);
},
{
closed = 1;
nodes = (
"59 701 LINE",
"59 0 LINE",
"642 0 LINE",
"642 160 LINE",
"267 160 LINE",
"267 271 LINE",
"598 271 LINE",
"598 431 LINE",
"267 431 LINE",
"267 541 LINE",
"632 541 LINE",
"632 701 LINE"
);
}
);
width = 683;
}
);
note = uni1E14;
unicode = 1E14;
},
{
glyphname = Eogonek;
layers = (
{
hints = (
{
horizontal = 1;
place = "{-203, 21}";
target = up;
type = BottomGhost;
},
{
horizontal = 1;
place = "{0, 158}";
type = Stem;
},
{
horizontal = 1;
place = "{273, 158}";
type = Stem;
},
{
horizontal = 1;
place = "{542, 159}";
type = Stem;
},
{
place = "{59, 208}";
type = Stem;
},
{
place = "{430, 99}";
type = Stem;
},
{
horizontal = 1;
place = "{-203, 99}";
type = Stem;
}
);
layerId = "32B14746-0B3F-40B0-A5C5-A5220BCE1F35";
paths = (
{
closed = 1;
nodes = (
"644 0 LINE",
"644 158 LINE",
"267 158 LINE",
"267 273 LINE",
"600 273 LINE",
"600 431 LINE",
"267 431 LINE",
"267 542 LINE",
"634 542 LINE",
"634 701 LINE",
"59 701 LINE",
"59 0 LINE",
"474 0 LINE",
"448 -39 OFFCURVE",
"430 -78 OFFCURVE",
"430 -118 CURVE SMOOTH",
"430 -184 OFFCURVE",
"481 -203 OFFCURVE",
"522 -203 CURVE SMOOTH",
"568 -203 OFFCURVE",
"610 -179 OFFCURVE",
"637 -132 CURVE",
"586 -73 LINE",
"575 -92 OFFCURVE",
"561 -104 OFFCURVE",
"547 -104 CURVE SMOOTH",
"537 -104 OFFCURVE",
"529 -97 OFFCURVE",
"529 -85 CURVE SMOOTH",
"529 -67 OFFCURVE",
"545 -37 OFFCURVE",
"570 0 CURVE"
);
}
);
width = 685;
}
);
leftKerningGroup = B;
note = Eogonek;
unicode = 0118;
},
{
glyphname = Etilde;
layers = (
{
hints = (
{
horizontal = 1;
place = "{0, 160}";
type = Stem;
},
{
horizontal = 1;
place = "{271, 160}";
type = Stem;
},
{
horizontal = 1;
place = "{541, 160}";
type = Stem;
},
{
horizontal = 1;
place = "{771, 171}";
type = Stem;
},
{
place = "{59, 208}";
type = Stem;
},
{
place = "{414, 122}";
type = Stem;
},
{
horizontal = 1;
place = "{774, 171}";
type = Stem;
},
{
place = "{162, 123}";
type = Stem;
}
);
layerId = "32B14746-0B3F-40B0-A5C5-A5220BCE1F35";
paths = (
{
closed = 1;
nodes = (
"414 942 LINE",
"414 915 OFFCURVE",
"406 902 OFFCURVE",
"387 902 CURVE SMOOTH",
"362 902 OFFCURVE",
"334 945 OFFCURVE",
"274 945 CURVE SMOOTH",
"199 945 OFFCURVE",
"162 890 OFFCURVE",
"162 774 CURVE",
"285 774 LINE",
"285 801 OFFCURVE",
"293 814 OFFCURVE",
"311 814 CURVE SMOOTH",
"337 814 OFFCURVE",
"363 771 OFFCURVE",
"425 771 CURVE SMOOTH",
"500 771 OFFCURVE",
"536 826 OFFCURVE",
"536 942 CURVE"
);
},
{
closed = 1;
nodes = (
"59 701 LINE",
"59 0 LINE",
"642 0 LINE",
"642 160 LINE",
"267 160 LINE",
"267 271 LINE",
"598 271 LINE",
"598 431 LINE",
"267 431 LINE",
"267 541 LINE",
"632 541 LINE",
"632 701 LINE"
);
}
);
width = 683;
}
);
note = uni1EBC;
unicode = 1EBC;
},
{
glyphname = F;
layers = (
{
hints = (
{
horizontal = 1;
place = "{0, 21}";
target = up;
type = BottomGhost;
},
{
horizontal = 1;
place = "{241, 160}";
type = Stem;
},
{
horizontal = 1;
place = "{541, 160}";
type = Stem;
},
{
place = "{59, 208}";
type = Stem;
}
);
layerId = "32B14746-0B3F-40B0-A5C5-A5220BCE1F35";
paths = (
{
closed = 1;
nodes = (
"59 701 LINE",
"59 0 LINE",
"267 0 LINE",
"267 241 LINE",
"579 241 LINE",
"579 401 LINE",
"267 401 LINE",
"267 541 LINE",
"603 541 LINE",
"603 701 LINE"
);
}
);
width = 619;
}
);
leftKerningGroup = B;
note = F;
rightKerningGroup = F;
unicode = 0046;
},
{
glyphname = G;
layers = (
{
hints = (
{
horizontal = 1;
place = "{-9, 174}";
type = Stem;
},
{
horizontal = 1;
place = "{534, 173}";
type = Stem;
},
{
place = "{19, 213}";
type = Stem;
},
{
place = "{517, 179}";
type = Stem;
},
{
horizontal = 1;
place = "{601, -20}";
target = down;
type = TopGhost;
}
);
layerId = "32B14746-0B3F-40B0-A5C5-A5220BCE1F35";
paths = (
{
closed = 1;
nodes = (
"517 192 LINE",
"479 175 OFFCURVE",
"440 165 OFFCURVE",
"411 165 CURVE SMOOTH",
"309 165 OFFCURVE",
"232 243 OFFCURVE",
"232 350 CURVE SMOOTH",
"232 455 OFFCURVE",
"308 534 OFFCURVE",
"409 534 CURVE SMOOTH",
"470 534 OFFCURVE",
"540 504 OFFCURVE",
"588 458 CURVE",
"706 601 LINE",
"632 666 OFFCURVE",
"517 707 OFFCURVE",
"410 707 CURVE SMOOTH",
"184 707 OFFCURVE",
"19 555 OFFCURVE",
"19 350 CURVE SMOOTH",
"19 144 OFFCURVE",
"179 -9 OFFCURVE",
"396 -9 CURVE SMOOTH",
"496 -9 OFFCURVE",
"620 29 OFFCURVE",
"696 81 CURVE",
"696 363 LINE",
"517 363 LINE"
);
}
);
width = 740;
}
);
leftKerningGroup = C;
note = G;
unicode = 0047;
},
{
glyphname = Gbreve;
layers = (
{
hints = (
{
horizontal = 1;
place = "{-9, 174}";
type = Stem;
},
{
horizontal = 1;
place = "{534, 173}";
type = Stem;
},
{
horizontal = 1;
place = "{755, 167}";
type = Stem;
},
{
place = "{230, 123}";
type = Stem;
},
{
place = "{457, 123}";
type = Stem;
},
{
place = "{19, 213}";
type = Stem;
},
{
place = "{517, 179}";
type = Stem;
},
{
horizontal = 1;
place = "{601, -20}";
target = down;
type = TopGhost;
}
);
layerId = "32B14746-0B3F-40B0-A5C5-A5220BCE1F35";
paths = (
{
closed = 1;
nodes = (
"506 755 OFFCURVE",
"575 820 OFFCURVE",
"580 922 CURVE",
"457 922 LINE",
"454 890 OFFCURVE",
"434 868 OFFCURVE",
"405 868 CURVE SMOOTH",
"376 868 OFFCURVE",
"356 890 OFFCURVE",
"353 922 CURVE",
"230 922 LINE",
"235 820 OFFCURVE",
"304 755 OFFCURVE",
"405 755 CURVE SMOOTH"
);
},
{
closed = 1;
nodes = (
"517 192 LINE",
"479 175 OFFCURVE",
"440 165 OFFCURVE",
"411 165 CURVE SMOOTH",
"309 165 OFFCURVE",
"232 243 OFFCURVE",
"232 350 CURVE SMOOTH",
"232 455 OFFCURVE",
"308 534 OFFCURVE",
"409 534 CURVE SMOOTH",
"470 534 OFFCURVE",
"540 504 OFFCURVE",
"588 458 CURVE",
"706 601 LINE",
"632 666 OFFCURVE",
"517 707 OFFCURVE",
"410 707 CURVE SMOOTH",
"184 707 OFFCURVE",
"19 555 OFFCURVE",
"19 350 CURVE SMOOTH",
"19 144 OFFCURVE",
"179 -9 OFFCURVE",
"396 -9 CURVE SMOOTH",
"496 -9 OFFCURVE",
"620 29 OFFCURVE",
"696 81 CURVE",
"696 363 LINE",
"517 363 LINE"
);
}
);
width = 740;
}
);
leftKerningGroup = C;
note = Gbreve;
unicode = 011E;
},
{
glyphname = Gcaron;
layers = (
{
hints = (
{
horizontal = 1;
place = "{-9, 174}";
type = Stem;
},
{
horizontal = 1;
place = "{534, 173}";
type = Stem;
},
{
horizontal = 1;
place = "{751, 172}";
type = Stem;
},
{
place = "{19, 213}";
type = Stem;
},
{
place = "{517, 179}";
type = Stem;
},
{
horizontal = 1;
place = "{601, -20}";
target = down;
type = TopGhost;
}
);
layerId = "32B14746-0B3F-40B0-A5C5-A5220BCE1F35";
paths = (
{
closed = 1;
nodes = (
"490 751 LINE",
"617 923 LINE",
"466 923 LINE",
"405 832 LINE",
"344 923 LINE",
"193 923 LINE",
"320 751 LINE"
);
},
{
closed = 1;
nodes = (
"517 192 LINE",
"479 175 OFFCURVE",
"440 165 OFFCURVE",
"411 165 CURVE SMOOTH",
"309 165 OFFCURVE",
"232 243 OFFCURVE",
"232 350 CURVE SMOOTH",
"232 455 OFFCURVE",
"308 534 OFFCURVE",
"409 534 CURVE SMOOTH",
"470 534 OFFCURVE",
"540 504 OFFCURVE",
"588 458 CURVE",
"706 601 LINE",
"632 666 OFFCURVE",
"517 707 OFFCURVE",
"410 707 CURVE SMOOTH",
"184 707 OFFCURVE",
"19 555 OFFCURVE",
"19 350 CURVE SMOOTH",
"19 144 OFFCURVE",
"179 -9 OFFCURVE",
"396 -9 CURVE SMOOTH",
"496 -9 OFFCURVE",
"620 29 OFFCURVE",
"696 81 CURVE",
"696 363 LINE",
"517 363 LINE"
);
}
);
width = 740;
}
);
note = Gcaron;
unicode = 01E6;
},
{
glyphname = Gcircumflex;
layers = (
{
hints = (
{
horizontal = 1;
place = "{-9, 174}";
type = Stem;
},
{
horizontal = 1;
place = "{534, 173}";
type = Stem;
},
{
horizontal = 1;
place = "{766, 157}";
type = Stem;
},
{
place = "{19, 213}";
type = Stem;
},
{
place = "{517, 179}";
type = Stem;
},
{
horizontal = 1;
place = "{601, -20}";
target = down;
type = TopGhost;
}
);
layerId = "32B14746-0B3F-40B0-A5C5-A5220BCE1F35";
paths = (
{
closed = 1;
nodes = (
"405 849 LINE",
"461 766 LINE",
"600 766 LINE",
"483 923 LINE",
"327 923 LINE",
"210 766 LINE",
"349 766 LINE"
);
},
{
closed = 1;
nodes = (
"517 192 LINE",
"479 175 OFFCURVE",
"440 165 OFFCURVE",
"411 165 CURVE SMOOTH",
"309 165 OFFCURVE",
"232 243 OFFCURVE",
"232 350 CURVE SMOOTH",
"232 455 OFFCURVE",
"308 534 OFFCURVE",
"409 534 CURVE SMOOTH",
"470 534 OFFCURVE",
"540 504 OFFCURVE",
"588 458 CURVE",
"706 601 LINE",
"632 666 OFFCURVE",
"517 707 OFFCURVE",
"410 707 CURVE SMOOTH",
"184 707 OFFCURVE",
"19 555 OFFCURVE",
"19 350 CURVE SMOOTH",
"19 144 OFFCURVE",
"179 -9 OFFCURVE",
"396 -9 CURVE SMOOTH",
"496 -9 OFFCURVE",
"620 29 OFFCURVE",
"696 81 CURVE",
"696 363 LINE",
"517 363 LINE"
);
}
);
width = 740;
}
);
leftKerningGroup = C;
note = Gcircumflex;
unicode = 011C;
},
{
glyphname = Gcommaaccent;
layers = (
{
hints = (
{
horizontal = 1;
place = "{-9, 174}";
type = Stem;
},
{
horizontal = 1;
place = "{534, 173}";
type = Stem;
},
{
place = "{19, 213}";
type = Stem;
},
{
place = "{314, 159}";
type = Stem;
},
{
place = "{517, 179}";
type = Stem;
},
{
horizontal = 1;
place = "{601, -20}";
target = down;
type = TopGhost;
}
);
layerId = "32B14746-0B3F-40B0-A5C5-A5220BCE1F35";
paths = (
{
closed = 1;
nodes = (
"517 192 LINE",
"479 175 OFFCURVE",
"440 165 OFFCURVE",
"411 165 CURVE SMOOTH",
"309 165 OFFCURVE",
"232 243 OFFCURVE",
"232 350 CURVE SMOOTH",
"232 455 OFFCURVE",
"308 534 OFFCURVE",
"409 534 CURVE SMOOTH",
"470 534 OFFCURVE",
"540 504 OFFCURVE",
"588 458 CURVE",
"706 601 LINE",
"632 666 OFFCURVE",
"517 707 OFFCURVE",
"410 707 CURVE SMOOTH",
"184 707 OFFCURVE",
"19 555 OFFCURVE",
"19 350 CURVE SMOOTH",
"19 144 OFFCURVE",
"179 -9 OFFCURVE",
"396 -9 CURVE SMOOTH",
"496 -9 OFFCURVE",
"620 29 OFFCURVE",
"696 81 CURVE",
"696 363 LINE",
"517 363 LINE"
);
},
{
closed = 1;
nodes = (
"347 -50 OFFCURVE",
"314 -83 OFFCURVE",
"314 -129 CURVE SMOOTH",
"314 -153 OFFCURVE",
"324 -176 OFFCURVE",
"344 -190 CURVE",
"303 -291 LINE",
"383 -291 LINE",
"451 -191 LINE SMOOTH",
"464 -173 OFFCURVE",
"473 -153 OFFCURVE",
"473 -128 CURVE SMOOTH",
"473 -78 OFFCURVE",
"435 -50 OFFCURVE",
"394 -50 CURVE SMOOTH"
);
}
);
width = 740;
}
);
leftKerningGroup = C;
note = Gcommaaccent;
unicode = 0122;
},
{
glyphname = Gdotaccent;
layers = (
{
hints = (
{
horizontal = 1;
place = "{-9, 174}";
type = Stem;
},
{
horizontal = 1;
place = "{534, 173}";
type = Stem;
},
{
horizontal = 1;
place = "{768, 172}";
type = Stem;
},
{
place = "{19, 213}";
type = Stem;
},
{
place = "{319, 172}";
type = Stem;
},
{
place = "{517, 179}";
type = Stem;
},
{
horizontal = 1;
place = "{601, -20}";
target = down;
type = TopGhost;
}
);
layerId = "32B14746-0B3F-40B0-A5C5-A5220BCE1F35";
paths = (
{
closed = 1;
nodes = (
"456 768 OFFCURVE",
"491 804 OFFCURVE",
"491 853 CURVE SMOOTH",
"491 904 OFFCURVE",
"456 940 OFFCURVE",
"405 940 CURVE SMOOTH",
"354 940 OFFCURVE",
"319 904 OFFCURVE",
"319 853 CURVE SMOOTH",
"319 804 OFFCURVE",
"354 768 OFFCURVE",
"405 768 CURVE SMOOTH"
);
},
{
closed = 1;
nodes = (
"517 192 LINE",
"479 175 OFFCURVE",
"440 165 OFFCURVE",
"411 165 CURVE SMOOTH",
"309 165 OFFCURVE",
"232 243 OFFCURVE",
"232 350 CURVE SMOOTH",
"232 455 OFFCURVE",
"308 534 OFFCURVE",
"409 534 CURVE SMOOTH",
"470 534 OFFCURVE",
"540 504 OFFCURVE",
"588 458 CURVE",
"706 601 LINE",
"632 666 OFFCURVE",
"517 707 OFFCURVE",
"410 707 CURVE SMOOTH",
"184 707 OFFCURVE",
"19 555 OFFCURVE",
"19 350 CURVE SMOOTH",
"19 144 OFFCURVE",
"179 -9 OFFCURVE",
"396 -9 CURVE SMOOTH",
"496 -9 OFFCURVE",
"620 29 OFFCURVE",
"696 81 CURVE",
"696 363 LINE",
"517 363 LINE"
);
}
);
width = 740;
}
);
leftKerningGroup = C;
note = Gdotaccent;
unicode = 0120;
},
{
glyphname = Gmacron;
layers = (
{
hints = (
{
horizontal = 1;
place = "{-9, 174}";
type = Stem;
},
{
horizontal = 1;
place = "{534, 173}";
type = Stem;
},
{
horizontal = 1;
place = "{781, 133}";
type = Stem;
},
{
place = "{19, 213}";
type = Stem;
},
{
place = "{260, 290}";
type = Stem;
},
{
place = "{517, 179}";
type = Stem;
},
{
horizontal = 1;
place = "{601, -20}";
target = down;
type = TopGhost;
}
);
layerId = "32B14746-0B3F-40B0-A5C5-A5220BCE1F35";
paths = (
{
closed = 1;
nodes = (
"550 914 LINE",
"260 914 LINE",
"260 781 LINE",
"550 781 LINE"
);
},
{
closed = 1;
nodes = (
"517 192 LINE",
"479 175 OFFCURVE",
"440 165 OFFCURVE",
"411 165 CURVE SMOOTH",
"309 165 OFFCURVE",
"232 243 OFFCURVE",
"232 350 CURVE SMOOTH",
"232 455 OFFCURVE",
"308 534 OFFCURVE",
"409 534 CURVE SMOOTH",
"470 534 OFFCURVE",
"540 504 OFFCURVE",
"588 458 CURVE",
"706 601 LINE",
"632 666 OFFCURVE",
"517 707 OFFCURVE",
"410 707 CURVE SMOOTH",
"184 707 OFFCURVE",
"19 555 OFFCURVE",
"19 350 CURVE SMOOTH",
"19 144 OFFCURVE",
"179 -9 OFFCURVE",
"396 -9 CURVE SMOOTH",
"496 -9 OFFCURVE",
"620 29 OFFCURVE",
"696 81 CURVE",
"696 363 LINE",
"517 363 LINE"
);
}
);
width = 740;
}
);
note = uni1E20;
unicode = 1E20;
},
{
glyphname = H;
layers = (
{
hints = (
{
horizontal = 1;
place = "{0, 21}";
target = up;
type = BottomGhost;
},
{
horizontal = 1;
place = "{261, 161}";
type = Stem;
},
{
horizontal = 1;
place = "{701, -20}";
target = down;
type = TopGhost;
},
{
place = "{59, 208}";
type = Stem;
},
{
place = "{516, 208}";
type = Stem;
}
);
layerId = "32B14746-0B3F-40B0-A5C5-A5220BCE1F35";
paths = (
{
closed = 1;
nodes = (
"59 701 LINE",
"59 0 LINE",
"267 0 LINE",
"267 261 LINE",
"516 261 LINE",
"516 0 LINE",
"724 0 LINE",
"724 701 LINE",
"516 701 LINE",
"516 422 LINE",
"267 422 LINE",
"267 701 LINE"
);
}
);
width = 783;
}
);
leftKerningGroup = B;
note = H;
unicode = 0048;
},
{
glyphname = Hbar;
layers = (
{
hints = (
{
horizontal = 1;
place = "{0, 21}";
target = up;
type = BottomGhost;
},
{
horizontal = 1;
place = "{261, 161}";
type = Stem;
},
{
horizontal = 1;
place = "{510, 111}";
type = Stem;
},
{
place = "{105, 208}";
type = Stem;
},
{
place = "{562, 208}";
type = Stem;
},
{
horizontal = 1;
place = "{510, 191}";
type = Stem;
}
);
layerId = "32B14746-0B3F-40B0-A5C5-A5220BCE1F35";
paths = (
{
closed = 1;
nodes = (
"852 621 LINE",
"770 621 LINE",
"770 701 LINE",
"562 701 LINE",
"562 621 LINE",
"313 621 LINE",
"313 701 LINE",
"105 701 LINE",
"105 621 LINE",
"23 621 LINE",
"23 510 LINE",
"105 510 LINE",
"105 0 LINE",
"313 0 LINE",
"313 261 LINE",
"562 261 LINE",
"562 0 LINE",
"770 0 LINE",
"770 510 LINE",
"852 510 LINE"
);
},
{
closed = 1;
nodes = (
"562 422 LINE",
"313 422 LINE",
"313 510 LINE",
"562 510 LINE"
);
}
);
width = 875;
}
);
leftKerningGroup = B;
note = Hbar;
unicode = 0126;
},
{
glyphname = Hbrevebelow;
layers = (
{
hints = (
{
horizontal = 1;
place = "{-217, 167}";
type = Stem;
},
{
horizontal = 1;
place = "{0, 21}";
target = up;
type = BottomGhost;
},
{
horizontal = 1;
place = "{261, 161}";
type = Stem;
},
{
horizontal = 1;
place = "{701, -20}";
target = down;
type = TopGhost;
},
{
place = "{59, 208}";
type = Stem;
},
{
place = "{516, 208}";
type = Stem;
}
);
layerId = "32B14746-0B3F-40B0-A5C5-A5220BCE1F35";
paths = (
{
closed = 1;
nodes = (
"59 701 LINE",
"59 0 LINE",
"267 0 LINE",
"267 261 LINE",
"516 261 LINE",
"516 0 LINE",
"724 0 LINE",
"724 701 LINE",
"516 701 LINE",
"516 422 LINE",
"267 422 LINE",
"267 701 LINE"
);
},
{
closed = 1;
nodes = (
"217 -50 LINE",
"222 -152 OFFCURVE",
"291 -217 OFFCURVE",
"392 -217 CURVE SMOOTH",
"493 -217 OFFCURVE",
"562 -152 OFFCURVE",
"567 -50 CURVE",
"444 -50 LINE",
"441 -82 OFFCURVE",
"421 -104 OFFCURVE",
"392 -104 CURVE SMOOTH",
"363 -104 OFFCURVE",
"343 -82 OFFCURVE",
"340 -50 CURVE"
);
}
);
width = 783;
}
);
note = uni1E2A;
unicode = 1E2A;
},
{
glyphname = Hcircumflex;
layers = (
{
hints = (
{
horizontal = 1;
place = "{0, 21}";
target = up;
type = BottomGhost;
},
{
horizontal = 1;
place = "{261, 161}";
type = Stem;
},
{
horizontal = 1;
place = "{701, -20}";
target = down;
type = TopGhost;
},
{
horizontal = 1;
place = "{766, 157}";
type = Stem;
},
{
place = "{59, 208}";
type = Stem;
},
{
place = "{516, 208}";
type = Stem;
}
);
layerId = "32B14746-0B3F-40B0-A5C5-A5220BCE1F35";
paths = (
{
closed = 1;
nodes = (
"323 923 LINE",
"206 766 LINE",
"345 766 LINE",
"401 849 LINE",
"457 766 LINE",
"596 766 LINE",
"479 923 LINE"
);
},
{
closed = 1;
nodes = (
"59 701 LINE",
"59 0 LINE",
"267 0 LINE",
"267 261 LINE",
"516 261 LINE",
"516 0 LINE",
"724 0 LINE",
"724 701 LINE",
"516 701 LINE",
"516 422 LINE",
"267 422 LINE",
"267 701 LINE"
);
}
);
width = 783;
}
);
leftKerningGroup = B;
note = Hcircumflex;
unicode = 0124;
},
{
glyphname = Hdotbelow;
layers = (
{
hints = (
{
horizontal = 1;
place = "{-222, 172}";
type = Stem;
},
{
horizontal = 1;
place = "{0, 21}";
target = up;
type = BottomGhost;
},
{
horizontal = 1;
place = "{261, 161}";
type = Stem;
},
{
horizontal = 1;
place = "{701, -20}";
target = down;
type = TopGhost;
},
{
place = "{59, 208}";
type = Stem;
},
{
place = "{306, 172}";
type = Stem;
},
{
place = "{516, 208}";
type = Stem;
}
);
layerId = "32B14746-0B3F-40B0-A5C5-A5220BCE1F35";
paths = (
{
closed = 1;
nodes = (
"59 701 LINE",
"59 0 LINE",
"267 0 LINE",
"267 261 LINE",
"516 261 LINE",
"516 0 LINE",
"724 0 LINE",
"724 701 LINE",
"516 701 LINE",
"516 422 LINE",
"267 422 LINE",
"267 701 LINE"
);
},
{
closed = 1;
nodes = (
"341 -50 OFFCURVE",
"306 -86 OFFCURVE",
"306 -137 CURVE SMOOTH",
"306 -186 OFFCURVE",
"341 -222 OFFCURVE",
"392 -222 CURVE SMOOTH",
"443 -222 OFFCURVE",
"478 -186 OFFCURVE",
"478 -137 CURVE SMOOTH",
"478 -86 OFFCURVE",
"443 -50 OFFCURVE",
"392 -50 CURVE SMOOTH"
);
}
);
width = 783;
}
);
note = uni1E24;
unicode = 1E24;
},
{
glyphname = I;
layers = (
{
hints = (
{
horizontal = 1;
place = "{0, 21}";
target = up;
type = BottomGhost;
},
{
horizontal = 1;
place = "{701, -20}";
target = down;
type = TopGhost;
},
{
place = "{59, 208}";
type = Stem;
}
);
layerId = "32B14746-0B3F-40B0-A5C5-A5220BCE1F35";
paths = (
{
closed = 1;
nodes = (
"59 701 LINE",
"59 0 LINE",
"267 0 LINE",
"267 701 LINE"
);
}
);
width = 326;
}
);
leftKerningGroup = B;
note = I;
unicode = 0049;
},
{
glyphname = IJ;
layers = (
{
hints = (
{
horizontal = 1;
place = "{0, 21}";
target = up;
type = BottomGhost;
},
{
horizontal = 1;
place = "{535, 166}";
type = Stem;
},
{
place = "{59, 208}";
type = Stem;
},
{
place = "{623, 210}";
type = Stem;
},
{
horizontal = 1;
place = "{-9, 175}";
type = Stem;
}
);
layerId = "32B14746-0B3F-40B0-A5C5-A5220BCE1F35";
paths = (
{
closed = 1;
nodes = (
"59 701 LINE",
"59 0 LINE",
"267 0 LINE",
"267 701 LINE"
);
},
{
closed = 1;
nodes = (
"833 701 LINE",
"385 701 LINE",
"385 535 LINE",
"623 535 LINE",
"623 237 LINE SMOOTH",
"623 190 OFFCURVE",
"599 166 OFFCURVE",
"561 166 CURVE SMOOTH",
"523 166 OFFCURVE",
"467 191 OFFCURVE",
"414 245 CURVE",
"319 108 LINE",
"386 34 OFFCURVE",
"471 -9 OFFCURVE",
"578 -9 CURVE SMOOTH",
"734 -9 OFFCURVE",
"833 79 OFFCURVE",
"833 232 CURVE SMOOTH"
);
}
);
width = 880;
}
);
leftKerningGroup = B;
note = IJ;
rightKerningGroup = IJ;
unicode = 0132;
},
{
glyphname = Iacute;
layers = (
{
hints = (
{
horizontal = 1;
place = "{0, 21}";
target = up;
type = BottomGhost;
},
{
horizontal = 1;
place = "{701, -20}";
target = down;
type = TopGhost;
},
{
place = "{59, 208}";
type = Stem;
}
);
layerId = "32B14746-0B3F-40B0-A5C5-A5220BCE1F35";
paths = (
{
closed = 1;
nodes = (
"173 932 LINE",
"66 752 LINE",
"214 752 LINE",
"348 874 LINE"
);
},
{
closed = 1;
nodes = (
"59 701 LINE",
"59 0 LINE",
"267 0 LINE",
"267 701 LINE"
);
}
);
width = 326;
}
);
leftKerningGroup = B;
note = Iacute;
unicode = 00CD;
},
{
glyphname = Ibreve;
layers = (
{
hints = (
{
horizontal = 1;
place = "{0, 21}";
target = up;
type = BottomGhost;
},
{
horizontal = 1;
place = "{701, -20}";
target = down;
type = TopGhost;
},
{
horizontal = 1;
place = "{755, 167}";
type = Stem;
},
{
place = "{-12, 123}";
type = Stem;
},
{
place = "{215, 123}";
type = Stem;
},
{
place = "{59, 208}";
type = Stem;
}
);
layerId = "32B14746-0B3F-40B0-A5C5-A5220BCE1F35";
paths = (
{
closed = 1;
nodes = (
"-12 922 LINE",
"-7 820 OFFCURVE",
"62 755 OFFCURVE",
"163 755 CURVE SMOOTH",
"264 755 OFFCURVE",
"333 820 OFFCURVE",
"338 922 CURVE",
"215 922 LINE",
"212 890 OFFCURVE",
"192 868 OFFCURVE",
"163 868 CURVE SMOOTH",
"134 868 OFFCURVE",
"114 890 OFFCURVE",
"111 922 CURVE"
);
},
{
closed = 1;
nodes = (
"59 701 LINE",
"59 0 LINE",
"267 0 LINE",
"267 701 LINE"
);
}
);
width = 326;
}
);
leftKerningGroup = B;
note = Ibreve;
unicode = 012C;
},
{
glyphname = Icircumflex;
layers = (
{
hints = (
{
horizontal = 1;
place = "{0, 21}";
target = up;
type = BottomGhost;
},
{
horizontal = 1;
place = "{701, -20}";
target = down;
type = TopGhost;
},
{
horizontal = 1;
place = "{766, 157}";
type = Stem;
},
{
place = "{59, 208}";
type = Stem;
}
);
layerId = "32B14746-0B3F-40B0-A5C5-A5220BCE1F35";
paths = (
{
closed = 1;
nodes = (
"85 923 LINE",
"-32 766 LINE",
"107 766 LINE",
"163 849 LINE",
"219 766 LINE",
"358 766 LINE",
"241 923 LINE"
);
},
{
closed = 1;
nodes = (
"59 701 LINE",
"59 0 LINE",
"267 0 LINE",
"267 701 LINE"
);
}
);
width = 326;
}
);
leftKerningGroup = B;
note = Icircumflex;
unicode = 00CE;
},
{
glyphname = Idblgrave;
layers = (
{
hints = (
{
horizontal = 1;
place = "{0, 21}";
target = up;
type = BottomGhost;
},
{
horizontal = 1;
place = "{701, -20}";
target = down;
type = TopGhost;
},
{
place = "{59, 208}";
type = Stem;
}
);
layerId = "32B14746-0B3F-40B0-A5C5-A5220BCE1F35";
paths = (
{
closed = 1;
nodes = (
"66 933 LINE",
"-82 882 LINE",
"7 752 LINE",
"152 752 LINE"
);
},
{
closed = 1;
nodes = (
"275 933 LINE",
"127 882 LINE",
"217 752 LINE",
"362 752 LINE"
);
},
{
closed = 1;
nodes = (
"59 701 LINE",
"59 0 LINE",
"267 0 LINE",
"267 701 LINE"
);
}
);
width = 326;
}
);
note = uni0208;
unicode = 0208;
},
{
glyphname = Idieresis;
layers = (
{
hints = (
{
horizontal = 1;
place = "{0, 21}";
target = up;
type = BottomGhost;
},
{
horizontal = 1;
place = "{701, -20}";
target = down;
type = TopGhost;
},
{
horizontal = 1;
place = "{767, 170}";
type = Stem;
},
{
place = "{59, 208}";
type = Stem;
},
{
place = "{-22, 169}";
type = Stem;
},
{
place = "{179, 170}";
type = Stem;
}
);
layerId = "32B14746-0B3F-40B0-A5C5-A5220BCE1F35";
paths = (
{
closed = 1;
nodes = (
"12 937 OFFCURVE",
"-22 902 OFFCURVE",
"-22 852 CURVE SMOOTH",
"-22 803 OFFCURVE",
"12 767 OFFCURVE",
"62 767 CURVE SMOOTH",
"112 767 OFFCURVE",
"147 803 OFFCURVE",
"147 852 CURVE SMOOTH",
"147 902 OFFCURVE",
"112 937 OFFCURVE",
"62 937 CURVE SMOOTH"
);
},
{
closed = 1;
nodes = (
"214 937 OFFCURVE",
"179 902 OFFCURVE",
"179 852 CURVE SMOOTH",
"179 803 OFFCURVE",
"214 767 OFFCURVE",
"264 767 CURVE SMOOTH",
"314 767 OFFCURVE",
"349 803 OFFCURVE",
"349 852 CURVE SMOOTH",
"349 902 OFFCURVE",
"314 937 OFFCURVE",
"264 937 CURVE SMOOTH"
);
},
{
closed = 1;
nodes = (
"59 701 LINE",
"59 0 LINE",
"267 0 LINE",
"267 701 LINE"
);
}
);
width = 326;
}
);
leftKerningGroup = B;
note = Idieresis;
unicode = 00CF;
},
{
glyphname = Idieresisacute;
layers = (
{
hints = (
{
horizontal = 1;
place = "{0, 21}";
target = up;
type = BottomGhost;
},
{
horizontal = 1;
place = "{701, -20}";
target = down;
type = TopGhost;
},
{
horizontal = 1;
place = "{767, 170}";
type = Stem;
},
{
place = "{59, 208}";
type = Stem;
},
{
place = "{-23, 169}";
type = Stem;
},
{
place = "{178, 170}";
type = Stem;
}
);
layerId = "32B14746-0B3F-40B0-A5C5-A5220BCE1F35";
paths = (
{
closed = 1;
nodes = (
"175 1164 LINE",
"68 984 LINE",
"216 984 LINE",
"350 1106 LINE"
);
},
{
closed = 1;
nodes = (
"11 937 OFFCURVE",
"-23 902 OFFCURVE",
"-23 852 CURVE SMOOTH",
"-23 803 OFFCURVE",
"11 767 OFFCURVE",
"61 767 CURVE SMOOTH",
"111 767 OFFCURVE",
"146 803 OFFCURVE",
"146 852 CURVE SMOOTH",
"146 902 OFFCURVE",
"111 937 OFFCURVE",
"61 937 CURVE SMOOTH"
);
},
{
closed = 1;
nodes = (
"213 937 OFFCURVE",
"178 902 OFFCURVE",
"178 852 CURVE SMOOTH",
"178 803 OFFCURVE",
"213 767 OFFCURVE",
"263 767 CURVE SMOOTH",
"313 767 OFFCURVE",
"348 803 OFFCURVE",
"348 852 CURVE SMOOTH",
"348 902 OFFCURVE",
"313 937 OFFCURVE",
"263 937 CURVE SMOOTH"
);
},
{
closed = 1;
nodes = (
"59 701 LINE",
"59 0 LINE",
"267 0 LINE",
"267 701 LINE"
);
}
);
width = 326;
}
);
note = uni1E2E;
unicode = 1E2E;
},
{
glyphname = Idotaccent;
layers = (
{
hints = (
{
horizontal = 1;
place = "{0, 21}";
target = up;
type = BottomGhost;
},
{
horizontal = 1;
place = "{701, -20}";
target = down;
type = TopGhost;
},
{
horizontal = 1;
place = "{768, 172}";
type = Stem;
},
{
place = "{77, 172}";
type = Stem;
},
{
place = "{59, 208}";
type = Stem;
}
);
layerId = "32B14746-0B3F-40B0-A5C5-A5220BCE1F35";
paths = (
{
closed = 1;
nodes = (
"112 940 OFFCURVE",
"77 904 OFFCURVE",
"77 853 CURVE SMOOTH",
"77 804 OFFCURVE",
"112 768 OFFCURVE",
"163 768 CURVE SMOOTH",
"214 768 OFFCURVE",
"249 804 OFFCURVE",
"249 853 CURVE SMOOTH",
"249 904 OFFCURVE",
"214 940 OFFCURVE",
"163 940 CURVE SMOOTH"
);
},
{
closed = 1;
nodes = (
"59 701 LINE",
"59 0 LINE",
"267 0 LINE",
"267 701 LINE"
);
}
);
width = 326;
}
);
leftKerningGroup = B;
note = Idotaccent;
unicode = 0130;
},
{
glyphname = Idotbelow;
layers = (
{
hints = (
{
horizontal = 1;
place = "{-224, 164}";
type = Stem;
},
{
horizontal = 1;
place = "{0, 21}";
target = up;
type = BottomGhost;
},
{
horizontal = 1;
place = "{701, -20}";
target = down;
type = TopGhost;
},
{
place = "{59, 208}";
type = Stem;
},
{
place = "{82, 163}";
type = Stem;
}
);
layerId = "32B14746-0B3F-40B0-A5C5-A5220BCE1F35";
paths = (
{
closed = 1;
nodes = (
"59 701 LINE",
"59 0 LINE",
"267 0 LINE",
"267 701 LINE"
);
},
{
closed = 1;
nodes = (
"115 -60 OFFCURVE",
"81 -95 OFFCURVE",
"82 -142 CURVE SMOOTH",
"83 -190 OFFCURVE",
"115 -224 OFFCURVE",
"163 -224 CURVE SMOOTH",
"210 -224 OFFCURVE",
"245 -190 OFFCURVE",
"245 -142 CURVE SMOOTH",
"245 -95 OFFCURVE",
"210 -60 OFFCURVE",
"163 -60 CURVE SMOOTH"
);
}
);
width = 326;
}
);
note = uni1ECA;
unicode = 1ECA;
},
{
glyphname = Igrave;
layers = (
{
hints = (
{
horizontal = 1;
place = "{0, 21}";
target = up;
type = BottomGhost;
},
{
horizontal = 1;
place = "{701, -20}";
target = down;
type = TopGhost;
},
{
place = "{59, 208}";
type = Stem;
}
);
layerId = "32B14746-0B3F-40B0-A5C5-A5220BCE1F35";
paths = (
{
closed = 1;
nodes = (
"158 932 LINE",
"-17 874 LINE",
"117 752 LINE",
"265 752 LINE"
);
},
{
closed = 1;
nodes = (
"59 701 LINE",
"59 0 LINE",
"267 0 LINE",
"267 701 LINE"
);
}
);
width = 326;
}
);
leftKerningGroup = B;
note = Igrave;
unicode = 00CC;
},
{
glyphname = Ihookabove;
layers = (
{
hints = (
{
horizontal = 1;
place = "{0, 21}";
target = up;
type = BottomGhost;
},
{
horizontal = 1;
place = "{701, -20}";
target = down;
type = TopGhost;
},
{
horizontal = 1;
place = "{875, 83}";
type = Stem;
},
{
place = "{59, 208}";
type = Stem;
},
{
place = "{200, 94}";
type = Stem;
}
);
layerId = "32B14746-0B3F-40B0-A5C5-A5220BCE1F35";
paths = (
{
closed = 1;
nodes = (
"125 836 LINE",
"127 859 OFFCURVE",
"141 875 OFFCURVE",
"165 875 CURVE SMOOTH",
"188 875 OFFCURVE",
"200 859 OFFCURVE",
"200 840 CURVE SMOOTH",
"200 814 OFFCURVE",
"183 793 OFFCURVE",
"153 765 CURVE",
"233 739 LINE",
"270 772 OFFCURVE",
"294 808 OFFCURVE",
"294 849 CURVE SMOOTH",
"294 911 OFFCURVE",
"248 958 OFFCURVE",
"170 958 CURVE SMOOTH",
"101 958 OFFCURVE",
"49 925 OFFCURVE",
"37 865 CURVE"
);
},
{
closed = 1;
nodes = (
"59 701 LINE",
"59 0 LINE",
"267 0 LINE",
"267 701 LINE"
);
}
);
width = 326;
}
);
note = uni1EC8;
unicode = 1EC8;
},
{
glyphname = Iinvertedbreve;
layers = (
{
hints = (
{
horizontal = 1;
place = "{0, 21}";
target = up;
type = BottomGhost;
},
{
horizontal = 1;
place = "{701, -20}";
target = down;
type = TopGhost;
},
{
horizontal = 1;
place = "{755, 167}";
type = Stem;
},
{
place = "{59, 208}";
type = Stem;
}
);
layerId = "32B14746-0B3F-40B0-A5C5-A5220BCE1F35";
paths = (
{
closed = 1;
nodes = (
"111 755 LINE",
"114 787 OFFCURVE",
"134 808 OFFCURVE",
"163 808 CURVE SMOOTH",
"192 808 OFFCURVE",
"212 787 OFFCURVE",
"215 755 CURVE",
"338 755 LINE",
"333 856 OFFCURVE",
"264 922 OFFCURVE",
"163 922 CURVE SMOOTH",
"62 922 OFFCURVE",
"-7 856 OFFCURVE",
"-12 755 CURVE"
);
},
{
closed = 1;
nodes = (
"59 701 LINE",
"59 0 LINE",
"267 0 LINE",
"267 701 LINE"
);
}
);
width = 326;
}
);
note = uni020A;
unicode = 020A;
},
{
glyphname = Imacron;
layers = (
{
hints = (
{
horizontal = 1;
place = "{0, 21}";
target = up;
type = BottomGhost;
},
{
horizontal = 1;
place = "{701, -20}";
target = down;
type = TopGhost;
},
{
horizontal = 1;
place = "{781, 133}";
type = Stem;
},
{
place = "{59, 208}";
type = Stem;
}
);
layerId = "32B14746-0B3F-40B0-A5C5-A5220BCE1F35";
paths = (
{
closed = 1;
nodes = (
"18 914 LINE",
"18 781 LINE",
"308 781 LINE",
"308 914 LINE"
);
},
{
closed = 1;
nodes = (
"59 701 LINE",
"59 0 LINE",
"267 0 LINE",
"267 701 LINE"
);
}
);
width = 326;
}
);
note = Imacron;
unicode = 012A;
},
{
glyphname = Iogonek;
layers = (
{
hints = (
{
horizontal = 1;
place = "{-203, 21}";
target = up;
type = BottomGhost;
},
{
horizontal = 1;
place = "{0, 21}";
target = up;
type = BottomGhost;
},
{
horizontal = 1;
place = "{701, -20}";
target = down;
type = TopGhost;
},
{
place = "{59, 208}";
type = Stem;
},
{
horizontal = 1;
place = "{-203, 99}";
type = Stem;
}
);
layerId = "32B14746-0B3F-40B0-A5C5-A5220BCE1F35";
paths = (
{
closed = 1;
nodes = (
"267 0 LINE",
"267 701 LINE",
"59 701 LINE",
"59 0 LINE",
"126 0 LINE",
"100 -39 OFFCURVE",
"81 -78 OFFCURVE",
"81 -118 CURVE SMOOTH",
"81 -184 OFFCURVE",
"132 -203 OFFCURVE",
"174 -203 CURVE SMOOTH",
"220 -203 OFFCURVE",
"262 -179 OFFCURVE",
"289 -132 CURVE",
"238 -73 LINE",
"226 -92 OFFCURVE",
"213 -104 OFFCURVE",
"198 -104 CURVE SMOOTH",
"189 -104 OFFCURVE",
"181 -97 OFFCURVE",
"181 -85 CURVE SMOOTH",
"181 -67 OFFCURVE",
"197 -36 OFFCURVE",
"222 0 CURVE"
);
}
);
width = 326;
}
);
leftKerningGroup = B;
note = Iogonek;
unicode = 012E;
},
{
glyphname = Itilde;
layers = (
{
hints = (
{
horizontal = 1;
place = "{0, 21}";
target = up;
type = BottomGhost;
},
{
horizontal = 1;
place = "{701, -20}";
target = down;
type = TopGhost;
},
{
horizontal = 1;
place = "{771, 171}";
type = Stem;
},
{
place = "{228, 122}";
type = Stem;
},
{
horizontal = 1;
place = "{774, 171}";
type = Stem;
},
{
place = "{-24, 123}";
type = Stem;
},
{
place = "{59, 208}";
type = Stem;
}
);
layerId = "32B14746-0B3F-40B0-A5C5-A5220BCE1F35";
paths = (
{
closed = 1;
nodes = (
"228 942 LINE",
"228 915 OFFCURVE",
"220 902 OFFCURVE",
"201 902 CURVE SMOOTH",
"176 902 OFFCURVE",
"148 945 OFFCURVE",
"88 945 CURVE SMOOTH",
"13 945 OFFCURVE",
"-24 890 OFFCURVE",
"-24 774 CURVE",
"99 774 LINE",
"99 801 OFFCURVE",
"107 814 OFFCURVE",
"125 814 CURVE SMOOTH",
"151 814 OFFCURVE",
"177 771 OFFCURVE",
"239 771 CURVE SMOOTH",
"314 771 OFFCURVE",
"350 826 OFFCURVE",
"350 942 CURVE"
);
},
{
closed = 1;
nodes = (
"59 701 LINE",
"59 0 LINE",
"267 0 LINE",
"267 701 LINE"
);
}
);
width = 326;
}
);
leftKerningGroup = B;
note = Itilde;
unicode = 0128;
},
{
glyphname = J;
layers = (
{
hints = (
{
horizontal = 1;
place = "{-9, 175}";
type = Stem;
},
{
horizontal = 1;
place = "{535, 166}";
type = Stem;
},
{
place = "{297, 210}";
type = Stem;
}
);
layerId = "32B14746-0B3F-40B0-A5C5-A5220BCE1F35";
paths = (
{
closed = 1;
nodes = (
"507 701 LINE",
"59 701 LINE",
"59 535 LINE",
"297 535 LINE",
"297 237 LINE SMOOTH",
"297 190 OFFCURVE",
"273 166 OFFCURVE",
"235 166 CURVE SMOOTH",
"197 166 OFFCURVE",
"141 191 OFFCURVE",
"88 245 CURVE",
"-7 108 LINE",
"60 34 OFFCURVE",
"145 -9 OFFCURVE",
"252 -9 CURVE SMOOTH",
"408 -9 OFFCURVE",
"507 79 OFFCURVE",
"507 232 CURVE SMOOTH"
);
}
);
width = 554;
}
);
leftKerningGroup = J;
note = J;
rightKerningGroup = IJ;
unicode = 004A;
},
{
glyphname = Jcircumflex;
layers = (
{
hints = (
{
horizontal = 1;
place = "{-9, 175}";
type = Stem;
},
{
horizontal = 1;
place = "{535, 166}";
type = Stem;
},
{
horizontal = 1;
place = "{766, 157}";
type = Stem;
},
{
place = "{297, 210}";
type = Stem;
}
);
layerId = "32B14746-0B3F-40B0-A5C5-A5220BCE1F35";
paths = (
{
closed = 1;
nodes = (
"202 923 LINE",
"85 766 LINE",
"224 766 LINE",
"280 849 LINE",
"336 766 LINE",
"475 766 LINE",
"358 923 LINE"
);
},
{
closed = 1;
nodes = (
"507 701 LINE",
"59 701 LINE",
"59 535 LINE",
"297 535 LINE",
"297 237 LINE SMOOTH",
"297 190 OFFCURVE",
"273 166 OFFCURVE",
"235 166 CURVE SMOOTH",
"197 166 OFFCURVE",
"141 191 OFFCURVE",
"88 245 CURVE",
"-7 108 LINE",
"60 34 OFFCURVE",
"145 -9 OFFCURVE",
"252 -9 CURVE SMOOTH",
"408 -9 OFFCURVE",
"507 79 OFFCURVE",
"507 232 CURVE SMOOTH"
);
}
);
width = 554;
}
);
leftKerningGroup = J;
note = Jcircumflex;
rightKerningGroup = IJ;
unicode = 0134;
},
{
glyphname = K;
layers = (
{
hints = (
{
horizontal = 1;
place = "{0, 21}";
target = up;
type = BottomGhost;
},
{
horizontal = 1;
place = "{701, -20}";
target = down;
type = TopGhost;
},
{
place = "{59, 208}";
type = Stem;
}
);
layerId = "32B14746-0B3F-40B0-A5C5-A5220BCE1F35";
paths = (
{
closed = 1;
nodes = (
"758 0 LINE",
"488 416 LINE",
"742 701 LINE",
"502 701 LINE",
"267 431 LINE",
"267 701 LINE",
"59 701 LINE",
"59 0 LINE",
"267 0 LINE",
"267 168 LINE",
"346 256 LINE",
"509 0 LINE"
);
}
);
width = 761;
}
);
leftKerningGroup = B;
note = K;
rightKerningGroup = K;
unicode = 004B;
},
{
glyphname = Kcommaaccent;
layers = (
{
hints = (
{
horizontal = 1;
place = "{0, 21}";
target = up;
type = BottomGhost;
},
{
horizontal = 1;
place = "{701, -20}";
target = down;
type = TopGhost;
},
{
place = "{59, 208}";
type = Stem;
},
{
place = "{289, 159}";
type = Stem;
}
);
layerId = "32B14746-0B3F-40B0-A5C5-A5220BCE1F35";
paths = (
{
closed = 1;
nodes = (
"488 416 LINE",
"742 701 LINE",
"502 701 LINE",
"267 431 LINE",
"267 701 LINE",
"59 701 LINE",
"59 0 LINE",
"267 0 LINE",
"267 168 LINE",
"346 256 LINE",
"509 0 LINE",
"758 0 LINE"
);
},
{
closed = 1;
nodes = (
"322 -50 OFFCURVE",
"289 -83 OFFCURVE",
"289 -129 CURVE SMOOTH",
"289 -153 OFFCURVE",
"299 -176 OFFCURVE",
"319 -190 CURVE",
"278 -291 LINE",
"358 -291 LINE",
"426 -191 LINE SMOOTH",
"439 -173 OFFCURVE",
"448 -153 OFFCURVE",
"448 -128 CURVE SMOOTH",
"448 -78 OFFCURVE",
"410 -50 OFFCURVE",
"369 -50 CURVE SMOOTH"
);
}
);
width = 761;
}
);
leftKerningGroup = B;
note = Kcommaaccent;
rightKerningGroup = K;
unicode = 0136;
},
{
glyphname = L;
layers = (
{
hints = (
{
horizontal = 1;
place = "{0, 174}";
type = Stem;
},
{
horizontal = 1;
place = "{701, -20}";
target = down;
type = TopGhost;
},
{
place = "{59, 208}";
type = Stem;
}
);
layerId = "32B14746-0B3F-40B0-A5C5-A5220BCE1F35";
paths = (
{
closed = 1;
nodes = (
"59 701 LINE",
"59 0 LINE",
"561 0 LINE",
"561 174 LINE",
"267 174 LINE",
"267 701 LINE"
);
}
);
width = 574;
}
);
leftKerningGroup = B;
note = L;
rightKerningGroup = L;
unicode = 004C;
},
{
glyphname = LJ;
layers = (
{
hints = (
{
horizontal = 1;
place = "{0, 174}";
type = Stem;
},
{
horizontal = 1;
place = "{535, 166}";
type = Stem;
},
{
place = "{59, 208}";
type = Stem;
},
{
place = "{871, 210}";
type = Stem;
},
{
horizontal = 1;
place = "{-9, 175}";
type = Stem;
},
{
horizontal = 1;
place = "{108, 66}";
type = Stem;
}
);
layerId = "32B14746-0B3F-40B0-A5C5-A5220BCE1F35";
paths = (
{
closed = 1;
nodes = (
"59 701 LINE",
"59 0 LINE",
"561 0 LINE",
"561 174 LINE",
"267 174 LINE",
"267 701 LINE"
);
},
{
closed = 1;
nodes = (
"1081 701 LINE",
"633 701 LINE",
"633 535 LINE",
"871 535 LINE",
"871 237 LINE SMOOTH",
"871 190 OFFCURVE",
"847 166 OFFCURVE",
"809 166 CURVE SMOOTH",
"771 166 OFFCURVE",
"715 191 OFFCURVE",
"662 245 CURVE",
"567 108 LINE",
"634 34 OFFCURVE",
"719 -9 OFFCURVE",
"826 -9 CURVE SMOOTH",
"982 -9 OFFCURVE",
"1081 79 OFFCURVE",
"1081 232 CURVE SMOOTH"
);
}
);
width = 1128;
}
);
note = uni01C7;
unicode = 01C7;
},
{
glyphname = Lacute;
layers = (
{
hints = (
{
horizontal = 1;
place = "{0, 174}";
type = Stem;
},
{
horizontal = 1;
place = "{701, -20}";
target = down;
type = TopGhost;
},
{
place = "{59, 208}";
type = Stem;
}
);
layerId = "32B14746-0B3F-40B0-A5C5-A5220BCE1F35";
paths = (
{
closed = 1;
nodes = (
"168 932 LINE",
"61 752 LINE",
"209 752 LINE",
"343 874 LINE"
);
},
{
closed = 1;
nodes = (
"59 701 LINE",
"59 0 LINE",
"561 0 LINE",
"561 174 LINE",
"267 174 LINE",
"267 701 LINE"
);
}
);
width = 574;
}
);
leftKerningGroup = B;
note = Lacute;
rightKerningGroup = L;
unicode = 0139;
},
{
glyphname = Lcaron;
layers = (
{
hints = (
{
horizontal = 1;
place = "{0, 174}";
type = Stem;
},
{
horizontal = 1;
place = "{477, 224}";
type = Stem;
},
{
place = "{59, 208}";
type = Stem;
},
{
place = "{414, 118}";
type = Stem;
}
);
layerId = "32B14746-0B3F-40B0-A5C5-A5220BCE1F35";
paths = (
{
closed = 1;
nodes = (
"59 701 LINE",
"59 0 LINE",
"561 0 LINE",
"561 174 LINE",
"267 174 LINE",
"267 701 LINE"
);
},
{
closed = 1;
nodes = (
"414 701 LINE",
"414 477 LINE",
"532 477 LINE",
"562 701 LINE"
);
}
);
width = 574;
}
);
leftKerningGroup = B;
note = Lcaron;
rightKerningGroup = L;
unicode = 013D;
},
{
glyphname = Lcommaaccent;
layers = (
{
hints = (
{
horizontal = 1;
place = "{0, 174}";
type = Stem;
},
{
horizontal = 1;
place = "{701, -20}";
target = down;
type = TopGhost;
},
{
place = "{59, 208}";
type = Stem;
},
{
place = "{230, 159}";
type = Stem;
}
);
layerId = "32B14746-0B3F-40B0-A5C5-A5220BCE1F35";
paths = (
{
closed = 1;
nodes = (
"267 174 LINE",
"267 701 LINE",
"59 701 LINE",
"59 0 LINE",
"561 0 LINE",
"561 174 LINE"
);
},
{
closed = 1;
nodes = (
"263 -50 OFFCURVE",
"230 -83 OFFCURVE",
"230 -129 CURVE SMOOTH",
"230 -153 OFFCURVE",
"240 -176 OFFCURVE",
"260 -190 CURVE",
"219 -291 LINE",
"299 -291 LINE",
"367 -191 LINE SMOOTH",
"380 -173 OFFCURVE",
"389 -153 OFFCURVE",
"389 -128 CURVE SMOOTH",
"389 -78 OFFCURVE",
"351 -50 OFFCURVE",
"310 -50 CURVE SMOOTH"
);
}
);
width = 574;
}
);
leftKerningGroup = B;
note = Lcommaaccent;
rightKerningGroup = L;
unicode = 013B;
},
{
glyphname = Ldot;
layers = (
{
hints = (
{
horizontal = 1;
place = "{0, 174}";
type = Stem;
},
{
horizontal = 1;
place = "{323, 186}";
type = Stem;
},
{
horizontal = 1;
place = "{701, -20}";
target = down;
type = TopGhost;
},
{
place = "{59, 208}";
type = Stem;
},
{
place = "{357, 187}";
type = Stem;
}
);
layerId = "32B14746-0B3F-40B0-A5C5-A5220BCE1F35";
paths = (
{
closed = 1;
nodes = (
"59 701 LINE",
"59 0 LINE",
"561 0 LINE",
"561 174 LINE",
"267 174 LINE",
"267 701 LINE"
);
},
{
closed = 1;
nodes = (
"395 509 OFFCURVE",
"357 472 OFFCURVE",
"357 417 CURVE SMOOTH",
"357 362 OFFCURVE",
"395 323 OFFCURVE",
"450 323 CURVE SMOOTH",
"505 323 OFFCURVE",
"544 362 OFFCURVE",
"544 417 CURVE SMOOTH",
"544 472 OFFCURVE",
"505 509 OFFCURVE",
"450 509 CURVE SMOOTH"
);
}
);
width = 574;
}
);
leftKerningGroup = B;
note = Ldot;
rightKerningGroup = L;
unicode = 013F;
},
{
glyphname = Ldotbelow;
layers = (
{
hints = (
{
horizontal = 1;
place = "{-222, 172}";
type = Stem;
},
{
horizontal = 1;
place = "{0, 174}";
type = Stem;
},
{
horizontal = 1;
place = "{701, -20}";
target = down;
type = TopGhost;
},
{
place = "{59, 208}";
type = Stem;
},
{
place = "{224, 172}";
type = Stem;
}
);
layerId = "32B14746-0B3F-40B0-A5C5-A5220BCE1F35";
paths = (
{
closed = 1;
nodes = (
"59 701 LINE",
"59 0 LINE",
"561 0 LINE",
"561 174 LINE",
"267 174 LINE",
"267 701 LINE"
);
},
{
closed = 1;
nodes = (
"259 -50 OFFCURVE",
"224 -86 OFFCURVE",
"224 -137 CURVE SMOOTH",
"224 -186 OFFCURVE",
"259 -222 OFFCURVE",
"310 -222 CURVE SMOOTH",
"361 -222 OFFCURVE",
"396 -186 OFFCURVE",
"396 -137 CURVE SMOOTH",
"396 -86 OFFCURVE",
"361 -50 OFFCURVE",
"310 -50 CURVE SMOOTH"
);
}
);
width = 574;
}
);
note = uni1E36;
unicode = 1E36;
},
{
glyphname = Lj;
layers = (
{
hints = (
{
horizontal = 1;
place = "{-202, 21}";
target = up;
type = BottomGhost;
},
{
horizontal = 1;
place = "{0, 174}";
type = Stem;
},
{
horizontal = 1;
place = "{544, -20}";
target = down;
type = TopGhost;
},
{
horizontal = 1;
place = "{595, 208}";
type = Stem;
},
{
place = "{59, 208}";
type = Stem;
},
{
place = "{628, 224}";
type = Stem;
},
{
horizontal = 1;
place = "{701, -20}";
target = down;
type = TopGhost;
},
{
place = "{533, 28}";
type = Stem;
},
{
place = "{639, 202}";
type = Stem;
},
{
horizontal = 1;
place = "{-202, 157}";
type = Stem;
}
);
layerId = "32B14746-0B3F-40B0-A5C5-A5220BCE1F35";
paths = (
{
closed = 1;
nodes = (
"674 803 OFFCURVE",
"628 760 OFFCURVE",
"628 699 CURVE SMOOTH",
"628 638 OFFCURVE",
"674 595 OFFCURVE",
"740 595 CURVE SMOOTH",
"806 595 OFFCURVE",
"852 638 OFFCURVE",
"852 699 CURVE SMOOTH",
"852 760 OFFCURVE",
"806 803 OFFCURVE",
"740 803 CURVE SMOOTH"
);
},
{
closed = 1;
nodes = (
"59 701 LINE",
"59 0 LINE",
"561 0 LINE",
"561 174 LINE",
"267 174 LINE",
"267 701 LINE"
);
},
{
closed = 1;
nodes = (
"841 544 LINE",
"639 544 LINE",
"639 7 LINE SMOOTH",
"639 -28 OFFCURVE",
"621 -45 OFFCURVE",
"591 -45 CURVE SMOOTH",
"572 -45 OFFCURVE",
"553 -39 OFFCURVE",
"533 -28 CURVE",
"486 -168 LINE",
"526 -190 OFFCURVE",
"577 -202 OFFCURVE",
"633 -202 CURVE SMOOTH",
"755 -203 OFFCURVE",
"841 -134 OFFCURVE",
"841 -17 CURVE SMOOTH"
);
}
);
width = 909;
}
);
note = uni01C8;
unicode = 01C8;
},
{
glyphname = Llinebelow;
layers = (
{
hints = (
{
horizontal = 1;
place = "{-196, 133}";
type = Stem;
},
{
horizontal = 1;
place = "{0, 174}";
type = Stem;
},
{
horizontal = 1;
place = "{701, -20}";
target = down;
type = TopGhost;
},
{
place = "{59, 208}";
type = Stem;
}
);
layerId = "32B14746-0B3F-40B0-A5C5-A5220BCE1F35";
paths = (
{
closed = 1;
nodes = (
"59 701 LINE",
"59 0 LINE",
"561 0 LINE",
"561 174 LINE",
"267 174 LINE",
"267 701 LINE"
);
},
{
closed = 1;
nodes = (
"165 -63 LINE",
"165 -196 LINE",
"455 -196 LINE",
"455 -63 LINE"
);
}
);
width = 574;
}
);
note = uni1E3A;
unicode = 1E3A;
},
{
glyphname = Lslash;
layers = (
{
hints = (
{
horizontal = 1;
place = "{0, 174}";
type = Stem;
},
{
horizontal = 1;
place = "{554, -20}";
target = down;
type = TopGhost;
},
{
horizontal = 1;
place = "{701, -20}";
target = down;
type = TopGhost;
},
{
place = "{76, 208}";
type = Stem;
}
);
layerId = "32B14746-0B3F-40B0-A5C5-A5220BCE1F35";
paths = (
{
closed = 1;
nodes = (
"284 174 LINE",
"284 372 LINE",
"456 422 LINE",
"456 554 LINE",
"284 504 LINE",
"284 701 LINE",
"76 701 LINE",
"76 443 LINE",
"-24 414 LINE",
"-24 283 LINE",
"76 312 LINE",
"76 0 LINE",
"578 0 LINE",
"578 174 LINE"
);
}
);
width = 591;
}
);
leftKerningGroup = B;
note = Lslash;
rightKerningGroup = L;
unicode = 0141;
},
{
glyphname = M;
layers = (
{
hints = (
{
horizontal = 1;
place = "{0, 21}";
target = up;
type = BottomGhost;
},
{
horizontal = 1;
place = "{701, -20}";
target = down;
type = TopGhost;
},
{
place = "{59, 183}";
type = Stem;
},
{
place = "{660.5, 182.5}";
type = Stem;
}
);
layerId = "32B14746-0B3F-40B0-A5C5-A5220BCE1F35";
paths = (
{
closed = 1;
nodes = (
"59 701 LINE",
"59 0 LINE",
"242 0 LINE",
"242 415 LINE",
"383 69 LINE",
"519 69 LINE",
"660 415 LINE",
"661 0 LINE",
"843 0 LINE",
"843 701 LINE",
"620 701 LINE",
"451 313 LINE",
"282 701 LINE"
);
}
);
width = 902;
}
);
leftKerningGroup = B;
note = M;
unicode = 004D;
},
{
glyphname = Mdotbelow;
layers = (
{
hints = (
{
horizontal = 1;
place = "{-222, 172}";
type = Stem;
},
{
horizontal = 1;
place = "{0, 21}";
target = up;
type = BottomGhost;
},
{
horizontal = 1;
place = "{701, -20}";
target = down;
type = TopGhost;
},
{
place = "{59, 183}";
type = Stem;
},
{
place = "{365, 172}";
type = Stem;
},
{
place = "{660.5, 182.5}";
type = Stem;
}
);
layerId = "32B14746-0B3F-40B0-A5C5-A5220BCE1F35";
paths = (
{
closed = 1;
nodes = (
"59 701 LINE",
"59 0 LINE",
"242 0 LINE",
"242 415 LINE",
"383 69 LINE",
"519 69 LINE",
"660 415 LINE",
"661 0 LINE",
"843 0 LINE",
"843 701 LINE",
"620 701 LINE",
"451 313 LINE",
"282 701 LINE"
);
},
{
closed = 1;
nodes = (
"400 -50 OFFCURVE",
"365 -86 OFFCURVE",
"365 -137 CURVE SMOOTH",
"365 -186 OFFCURVE",
"400 -222 OFFCURVE",
"451 -222 CURVE SMOOTH",
"502 -222 OFFCURVE",
"537 -186 OFFCURVE",
"537 -137 CURVE SMOOTH",
"537 -86 OFFCURVE",
"502 -50 OFFCURVE",
"451 -50 CURVE SMOOTH"
);
}
);
width = 902;
}
);
note = uni1E42;
unicode = 1E42;
},
{
glyphname = N;
layers = (
{
hints = (
{
horizontal = 1;
place = "{0, 21}";
target = up;
type = BottomGhost;
},
{
horizontal = 1;
place = "{701, -20}";
target = down;
type = TopGhost;
},
{
place = "{59, 191}";
type = Stem;
},
{
place = "{534, 190}";
type = Stem;
}
);
layerId = "32B14746-0B3F-40B0-A5C5-A5220BCE1F35";
paths = (
{
closed = 1;
nodes = (
"59 701 LINE",
"59 0 LINE",
"250 0 LINE",
"250 390 LINE",
"547 0 LINE",
"724 0 LINE",
"724 701 LINE",
"534 701 LINE",
"534 309 LINE",
"237 701 LINE"
);
}
);
width = 783;
}
);
leftKerningGroup = B;
note = N;
unicode = 004E;
},
{
glyphname = NJ;
layers = (
{
hints = (
{
horizontal = 1;
place = "{0, 21}";
target = up;
type = BottomGhost;
},
{
horizontal = 1;
place = "{535, 166}";
type = Stem;
},
{
place = "{59, 191}";
type = Stem;
},
{
place = "{534, 190}";
type = Stem;
},
{
place = "{1080, 210}";
type = Stem;
},
{
horizontal = 1;
place = "{-9, 175}";
type = Stem;
}
);
layerId = "32B14746-0B3F-40B0-A5C5-A5220BCE1F35";
paths = (
{
closed = 1;
nodes = (
"59 701 LINE",
"59 0 LINE",
"250 0 LINE",
"250 390 LINE",
"547 0 LINE",
"724 0 LINE",
"724 701 LINE",
"534 701 LINE",
"534 309 LINE",
"237 701 LINE"
);
},
{
closed = 1;
nodes = (
"1290 701 LINE",
"842 701 LINE",
"842 535 LINE",
"1080 535 LINE",
"1080 237 LINE SMOOTH",
"1080 190 OFFCURVE",
"1056 166 OFFCURVE",
"1018 166 CURVE SMOOTH",
"980 166 OFFCURVE",
"924 191 OFFCURVE",
"871 245 CURVE",
"776 108 LINE",
"843 34 OFFCURVE",
"928 -9 OFFCURVE",
"1035 -9 CURVE SMOOTH",
"1191 -9 OFFCURVE",
"1290 79 OFFCURVE",
"1290 232 CURVE SMOOTH"
);
}
);
width = 1337;
}
);
note = uni01CA;
unicode = 01CA;
},
{
glyphname = Nacute;
layers = (
{
hints = (
{
horizontal = 1;
place = "{0, 21}";
target = up;
type = BottomGhost;
},
{
horizontal = 1;
place = "{701, -20}";
target = down;
type = TopGhost;
},
{
place = "{59, 191}";
type = Stem;
},
{
place = "{534, 190}";
type = Stem;
}
);
layerId = "32B14746-0B3F-40B0-A5C5-A5220BCE1F35";
paths = (
{
closed = 1;
nodes = (
"404 932 LINE",
"297 752 LINE",
"445 752 LINE",
"579 874 LINE"
);
},
{
closed = 1;
nodes = (
"59 701 LINE",
"59 0 LINE",
"250 0 LINE",
"250 390 LINE",
"547 0 LINE",
"724 0 LINE",
"724 701 LINE",
"534 701 LINE",
"534 309 LINE",
"237 701 LINE"
);
}
);
width = 783;
}
);
leftKerningGroup = B;
note = Nacute;
unicode = 0143;
},
{
glyphname = Ncaron;
layers = (
{
hints = (
{
horizontal = 1;
place = "{0, 21}";
target = up;
type = BottomGhost;
},
{
horizontal = 1;
place = "{701, -20}";
target = down;
type = TopGhost;
},
{
horizontal = 1;
place = "{751, 172}";
type = Stem;
},
{
place = "{59, 191}";
type = Stem;
},
{
place = "{534, 190}";
type = Stem;
}
);
layerId = "32B14746-0B3F-40B0-A5C5-A5220BCE1F35";
paths = (
{
closed = 1;
nodes = (
"177 923 LINE",
"304 751 LINE",
"474 751 LINE",
"601 923 LINE",
"450 923 LINE",
"389 832 LINE",
"328 923 LINE"
);
},
{
closed = 1;
nodes = (
"59 701 LINE",
"59 0 LINE",
"250 0 LINE",
"250 390 LINE",
"547 0 LINE",
"724 0 LINE",
"724 701 LINE",
"534 701 LINE",
"534 309 LINE",
"237 701 LINE"
);
}
);
width = 783;
}
);
leftKerningGroup = B;
note = Ncaron;
unicode = 0147;
},
{
glyphname = Ncommaaccent;
layers = (
{
hints = (
{
horizontal = 1;
place = "{0, 21}";
target = up;
type = BottomGhost;
},
{
horizontal = 1;
place = "{701, -20}";
target = down;
type = TopGhost;
},
{
place = "{59, 191}";
type = Stem;
},
{
place = "{318, 159}";
type = Stem;
},
{
place = "{534, 190}";
type = Stem;
}
);
layerId = "32B14746-0B3F-40B0-A5C5-A5220BCE1F35";
paths = (
{
closed = 1;
nodes = (
"534 701 LINE",
"534 309 LINE",
"237 701 LINE",
"59 701 LINE",
"59 0 LINE",
"250 0 LINE",
"250 390 LINE",
"547 0 LINE",
"724 0 LINE",
"724 701 LINE"
);
},
{
closed = 1;
nodes = (
"351 -50 OFFCURVE",
"318 -83 OFFCURVE",
"318 -129 CURVE SMOOTH",
"318 -153 OFFCURVE",
"328 -176 OFFCURVE",
"348 -190 CURVE",
"307 -291 LINE",
"387 -291 LINE",
"455 -191 LINE SMOOTH",
"468 -173 OFFCURVE",
"477 -153 OFFCURVE",
"477 -128 CURVE SMOOTH",
"477 -78 OFFCURVE",
"439 -50 OFFCURVE",
"398 -50 CURVE SMOOTH"
);
}
);
width = 783;
}
);
leftKerningGroup = B;
note = Ncommaaccent;
unicode = 0145;
},
{
glyphname = Ndotaccent;
layers = (
{
hints = (
{
horizontal = 1;
place = "{0, 21}";
target = up;
type = BottomGhost;
},
{
horizontal = 1;
place = "{701, -20}";
target = down;
type = TopGhost;
},
{
horizontal = 1;
place = "{768, 172}";
type = Stem;
},
{
place = "{59, 191}";
type = Stem;
},
{
place = "{308, 172}";
type = Stem;
},
{
place = "{534, 190}";
type = Stem;
}
);
layerId = "32B14746-0B3F-40B0-A5C5-A5220BCE1F35";
paths = (
{
closed = 1;
nodes = (
"343 940 OFFCURVE",
"308 904 OFFCURVE",
"308 853 CURVE SMOOTH",
"308 804 OFFCURVE",
"343 768 OFFCURVE",
"394 768 CURVE SMOOTH",
"445 768 OFFCURVE",
"480 804 OFFCURVE",
"480 853 CURVE SMOOTH",
"480 904 OFFCURVE",
"445 940 OFFCURVE",
"394 940 CURVE SMOOTH"
);
},
{
closed = 1;
nodes = (
"59 701 LINE",
"59 0 LINE",
"250 0 LINE",
"250 390 LINE",
"547 0 LINE",
"724 0 LINE",
"724 701 LINE",
"534 701 LINE",
"534 309 LINE",
"237 701 LINE"
);
}
);
width = 783;
}
);
note = uni1E44;
unicode = 1E44;
},
{
glyphname = Ndotbelow;
layers = (
{
hints = (
{
horizontal = 1;
place = "{-222, 172}";
type = Stem;
},
{
horizontal = 1;
place = "{0, 21}";
target = up;
type = BottomGhost;
},
{
horizontal = 1;
place = "{701, -20}";
target = down;
type = TopGhost;
},
{
place = "{59, 191}";
type = Stem;
},
{
place = "{312, 172}";
type = Stem;
},
{
place = "{534, 190}";
type = Stem;
}
);
layerId = "32B14746-0B3F-40B0-A5C5-A5220BCE1F35";
paths = (
{
closed = 1;
nodes = (
"59 701 LINE",
"59 0 LINE",
"250 0 LINE",
"250 390 LINE",
"547 0 LINE",
"724 0 LINE",
"724 701 LINE",
"534 701 LINE",
"534 309 LINE",
"237 701 LINE"
);
},
{
closed = 1;
nodes = (
"347 -50 OFFCURVE",
"312 -86 OFFCURVE",
"312 -137 CURVE SMOOTH",
"312 -186 OFFCURVE",
"347 -222 OFFCURVE",
"398 -222 CURVE SMOOTH",
"449 -222 OFFCURVE",
"484 -186 OFFCURVE",
"484 -137 CURVE SMOOTH",
"484 -86 OFFCURVE",
"449 -50 OFFCURVE",
"398 -50 CURVE SMOOTH"
);
}
);
width = 783;
}
);
note = uni1E46;
unicode = 1E46;
},
{
glyphname = Eng;
layers = (
{
hints = (
{
horizontal = 1;
place = "{-220, 175}";
type = Stem;
},
{
horizontal = 1;
place = "{0, 21}";
target = up;
type = BottomGhost;
},
{
horizontal = 1;
place = "{701, -20}";
target = down;
type = TopGhost;
},
{
place = "{59, 191}";
type = Stem;
},
{
place = "{534, 190}";
type = Stem;
}
);
layerId = "32B14746-0B3F-40B0-A5C5-A5220BCE1F35";
paths = (
{
closed = 1;
nodes = (
"534 701 LINE",
"534 309 LINE",
"237 701 LINE",
"59 701 LINE",
"59 0 LINE",
"250 0 LINE",
"250 390 LINE",
"536 14 LINE",
"532 -25 OFFCURVE",
"509 -45 OFFCURVE",
"470 -45 CURVE SMOOTH",
"443 -45 OFFCURVE",
"406 -35 OFFCURVE",
"366 -16 CURVE",
"295 -172 LINE",
"345 -203 OFFCURVE",
"403 -220 OFFCURVE",
"470 -220 CURVE SMOOTH",
"619 -220 OFFCURVE",
"717 -139 OFFCURVE",
"724 0 CURVE",
"724 701 LINE"
);
}
);
width = 783;
}
);
leftKerningGroup = B;
note = Eng;
unicode = 014A;
},
{
glyphname = Nj;
layers = (
{
hints = (
{
horizontal = 1;
place = "{-202, 21}";
target = up;
type = BottomGhost;
},
{
horizontal = 1;
place = "{0, 21}";
target = up;
type = BottomGhost;
},
{
horizontal = 1;
place = "{544, -20}";
target = down;
type = TopGhost;
},
{
horizontal = 1;
place = "{595, 208}";
type = Stem;
},
{
place = "{59, 191}";
type = Stem;
},
{
place = "{534, 190}";
type = Stem;
},
{
place = "{837, 224}";
type = Stem;
},
{
horizontal = 1;
place = "{701, -20}";
target = down;
type = TopGhost;
},
{
place = "{848, 202}";
type = Stem;
},
{
horizontal = 1;
place = "{-202, 157}";
type = Stem;
}
);
layerId = "32B14746-0B3F-40B0-A5C5-A5220BCE1F35";
paths = (
{
closed = 1;
nodes = (
"883 803 OFFCURVE",
"837 760 OFFCURVE",
"837 699 CURVE SMOOTH",
"837 638 OFFCURVE",
"883 595 OFFCURVE",
"949 595 CURVE SMOOTH",
"1015 595 OFFCURVE",
"1061 638 OFFCURVE",
"1061 699 CURVE SMOOTH",
"1061 760 OFFCURVE",
"1015 803 OFFCURVE",
"949 803 CURVE SMOOTH"
);
},
{
closed = 1;
nodes = (
"59 701 LINE",
"59 0 LINE",
"250 0 LINE",
"250 390 LINE",
"547 0 LINE",
"724 0 LINE",
"724 701 LINE",
"534 701 LINE",
"534 309 LINE",
"237 701 LINE"
);
},
{
closed = 1;
nodes = (
"1050 544 LINE",
"848 544 LINE",
"848 7 LINE SMOOTH",
"848 -28 OFFCURVE",
"830 -45 OFFCURVE",
"800 -45 CURVE SMOOTH",
"781 -45 OFFCURVE",
"762 -39 OFFCURVE",
"742 -28 CURVE",
"695 -168 LINE",
"735 -190 OFFCURVE",
"786 -202 OFFCURVE",
"842 -202 CURVE SMOOTH",
"964 -203 OFFCURVE",
"1050 -134 OFFCURVE",
"1050 -17 CURVE SMOOTH"
);
}
);
width = 1118;
}
);
note = uni01CB;
unicode = 01CB;
},
{
glyphname = Nlinebelow;
layers = (
{
hints = (
{
horizontal = 1;
place = "{-196, 133}";
type = Stem;
},
{
horizontal = 1;
place = "{0, 21}";
target = up;
type = BottomGhost;
},
{
horizontal = 1;
place = "{701, -20}";
target = down;
type = TopGhost;
},
{
place = "{59, 191}";
type = Stem;
},
{
place = "{534, 190}";
type = Stem;
}
);
layerId = "32B14746-0B3F-40B0-A5C5-A5220BCE1F35";
paths = (
{
closed = 1;
nodes = (
"59 701 LINE",
"59 0 LINE",
"250 0 LINE",
"250 390 LINE",
"547 0 LINE",
"724 0 LINE",
"724 701 LINE",
"534 701 LINE",
"534 309 LINE",
"237 701 LINE"
);
},
{
closed = 1;
nodes = (
"253 -63 LINE",
"253 -196 LINE",
"543 -196 LINE",
"543 -63 LINE"
);
}
);
width = 783;
}
);
note = uni1E48;
unicode = 1E48;
},
{
glyphname = Ntilde;
layers = (
{
hints = (
{
horizontal = 1;
place = "{0, 21}";
target = up;
type = BottomGhost;
},
{
horizontal = 1;
place = "{701, -20}";
target = down;
type = TopGhost;
},
{
horizontal = 1;
place = "{771, 171}";
type = Stem;
},
{
place = "{59, 191}";
type = Stem;
},
{
place = "{459, 122}";
type = Stem;
},
{
horizontal = 1;
place = "{774, 171}";
type = Stem;
},
{
place = "{207, 123}";
type = Stem;
},
{
place = "{534, 190}";
type = Stem;
}
);
layerId = "32B14746-0B3F-40B0-A5C5-A5220BCE1F35";
paths = (
{
closed = 1;
nodes = (
"459 942 LINE",
"459 915 OFFCURVE",
"451 902 OFFCURVE",
"432 902 CURVE SMOOTH",
"407 902 OFFCURVE",
"379 945 OFFCURVE",
"319 945 CURVE SMOOTH",
"244 945 OFFCURVE",
"207 890 OFFCURVE",
"207 774 CURVE",
"330 774 LINE",
"330 801 OFFCURVE",
"338 814 OFFCURVE",
"356 814 CURVE SMOOTH",
"382 814 OFFCURVE",
"408 771 OFFCURVE",
"470 771 CURVE SMOOTH",
"545 771 OFFCURVE",
"581 826 OFFCURVE",
"581 942 CURVE"
);
},
{
closed = 1;
nodes = (
"59 701 LINE",
"59 0 LINE",
"250 0 LINE",
"250 390 LINE",
"547 0 LINE",
"724 0 LINE",
"724 701 LINE",
"534 701 LINE",
"534 309 LINE",
"237 701 LINE"
);
}
);
width = 783;
}
);
leftKerningGroup = B;
note = Ntilde;
unicode = 00D1;
},
{
glyphname = O;
layers = (
{
hints = (
{
horizontal = 1;
place = "{-9, 174}";
type = Stem;
},
{
horizontal = 1;
place = "{533, 174}";
type = Stem;
},
{
place = "{19, 213}";
type = Stem;
},
{
place = "{570, 213}";
type = Stem;
}
);
layerId = "32B14746-0B3F-40B0-A5C5-A5220BCE1F35";
paths = (
{
closed = 1;
nodes = (
"181 707 OFFCURVE",
"19 557 OFFCURVE",
"19 351 CURVE SMOOTH",
"19 144 OFFCURVE",
"181 -9 OFFCURVE",
"401 -9 CURVE SMOOTH",
"621 -9 OFFCURVE",
"783 145 OFFCURVE",
"783 351 CURVE SMOOTH",
"783 556 OFFCURVE",
"621 707 OFFCURVE",
"401 707 CURVE SMOOTH"
);
},
{
closed = 1;
nodes = (
"496 533 OFFCURVE",
"570 456 OFFCURVE",
"570 350 CURVE SMOOTH",
"570 244 OFFCURVE",
"496 165 OFFCURVE",
"404 165 CURVE SMOOTH",
"312 165 OFFCURVE",
"232 244 OFFCURVE",
"232 350 CURVE SMOOTH",
"232 456 OFFCURVE",
"311 533 OFFCURVE",
"404 533 CURVE SMOOTH"
);
}
);
width = 802;
}
);
leftKerningGroup = C;
note = O;
rightKerningGroup = D;
unicode = 004F;
},
{
glyphname = Oacute;
layers = (
{
hints = (
{
horizontal = 1;
place = "{-9, 174}";
type = Stem;
},
{
horizontal = 1;
place = "{533, 174}";
type = Stem;
},
{
place = "{19, 213}";
type = Stem;
},
{
place = "{570, 213}";
type = Stem;
}
);
layerId = "32B14746-0B3F-40B0-A5C5-A5220BCE1F35";
paths = (
{
closed = 1;
nodes = (
"402 932 LINE",
"295 752 LINE",
"443 752 LINE",
"577 874 LINE"
);
},
{
closed = 1;
nodes = (
"181 707 OFFCURVE",
"19 557 OFFCURVE",
"19 351 CURVE SMOOTH",
"19 144 OFFCURVE",
"181 -9 OFFCURVE",
"401 -9 CURVE SMOOTH",
"621 -9 OFFCURVE",
"783 145 OFFCURVE",
"783 351 CURVE SMOOTH",
"783 556 OFFCURVE",
"621 707 OFFCURVE",
"401 707 CURVE SMOOTH"
);
},
{
closed = 1;
nodes = (
"496 533 OFFCURVE",
"570 456 OFFCURVE",
"570 350 CURVE SMOOTH",
"570 244 OFFCURVE",
"496 165 OFFCURVE",
"404 165 CURVE SMOOTH",
"312 165 OFFCURVE",
"232 244 OFFCURVE",
"232 350 CURVE SMOOTH",
"232 456 OFFCURVE",
"311 533 OFFCURVE",
"404 533 CURVE SMOOTH"
);
}
);
width = 802;
}
);
leftKerningGroup = C;
note = Oacute;
rightKerningGroup = D;
unicode = 00D3;
},
{
glyphname = Obreve;
layers = (
{
hints = (
{
horizontal = 1;
place = "{-9, 174}";
type = Stem;
},
{
horizontal = 1;
place = "{533, 174}";
type = Stem;
},
{
horizontal = 1;
place = "{755, 167}";
type = Stem;
},
{
place = "{217, 123}";
type = Stem;
},
{
place = "{444, 123}";
type = Stem;
},
{
place = "{19, 213}";
type = Stem;
},
{
place = "{570, 213}";
type = Stem;
}
);
layerId = "32B14746-0B3F-40B0-A5C5-A5220BCE1F35";
paths = (
{
closed = 1;
nodes = (
"217 922 LINE",
"222 820 OFFCURVE",
"291 755 OFFCURVE",
"392 755 CURVE SMOOTH",
"493 755 OFFCURVE",
"562 820 OFFCURVE",
"567 922 CURVE",
"444 922 LINE",
"441 890 OFFCURVE",
"421 868 OFFCURVE",
"392 868 CURVE SMOOTH",
"363 868 OFFCURVE",
"343 890 OFFCURVE",
"340 922 CURVE"
);
},
{
closed = 1;
nodes = (
"181 707 OFFCURVE",
"19 557 OFFCURVE",
"19 351 CURVE SMOOTH",
"19 144 OFFCURVE",
"181 -9 OFFCURVE",
"401 -9 CURVE SMOOTH",
"621 -9 OFFCURVE",
"783 145 OFFCURVE",
"783 351 CURVE SMOOTH",
"783 556 OFFCURVE",
"621 707 OFFCURVE",
"401 707 CURVE SMOOTH"
);
},
{
closed = 1;
nodes = (
"496 533 OFFCURVE",
"570 456 OFFCURVE",
"570 350 CURVE SMOOTH",
"570 244 OFFCURVE",
"496 165 OFFCURVE",
"404 165 CURVE SMOOTH",
"312 165 OFFCURVE",
"232 244 OFFCURVE",
"232 350 CURVE SMOOTH",
"232 456 OFFCURVE",
"311 533 OFFCURVE",
"404 533 CURVE SMOOTH"
);
}
);
width = 802;
}
);
leftKerningGroup = C;
note = Obreve;
rightKerningGroup = D;
unicode = 014E;
},
{
glyphname = Ocircumflex;
layers = (
{
hints = (
{
horizontal = 1;
place = "{-9, 174}";
type = Stem;
},
{
horizontal = 1;
place = "{533, 174}";
type = Stem;
},
{
horizontal = 1;
place = "{766, 157}";
type = Stem;
},
{
place = "{19, 213}";
type = Stem;
},
{
place = "{570, 213}";
type = Stem;
}
);
layerId = "32B14746-0B3F-40B0-A5C5-A5220BCE1F35";
paths = (
{
closed = 1;
nodes = (
"314 923 LINE",
"197 766 LINE",
"336 766 LINE",
"392 849 LINE",
"448 766 LINE",
"587 766 LINE",
"470 923 LINE"
);
},
{
closed = 1;
nodes = (
"181 707 OFFCURVE",
"19 557 OFFCURVE",
"19 351 CURVE SMOOTH",
"19 144 OFFCURVE",
"181 -9 OFFCURVE",
"401 -9 CURVE SMOOTH",
"621 -9 OFFCURVE",
"783 145 OFFCURVE",
"783 351 CURVE SMOOTH",
"783 556 OFFCURVE",
"621 707 OFFCURVE",
"401 707 CURVE SMOOTH"
);
},
{
closed = 1;
nodes = (
"496 533 OFFCURVE",
"570 456 OFFCURVE",
"570 350 CURVE SMOOTH",
"570 244 OFFCURVE",
"496 165 OFFCURVE",
"404 165 CURVE SMOOTH",
"312 165 OFFCURVE",
"232 244 OFFCURVE",
"232 350 CURVE SMOOTH",
"232 456 OFFCURVE",
"311 533 OFFCURVE",
"404 533 CURVE SMOOTH"
);
}
);
width = 802;
}
);
leftKerningGroup = C;
note = Ocircumflex;
rightKerningGroup = D;
unicode = 00D4;
},
{
glyphname = Ocircumflexacute;
layers = (
{
hints = (
{
horizontal = 1;
place = "{-9, 174}";
type = Stem;
},
{
horizontal = 1;
place = "{533, 174}";
type = Stem;
},
{
horizontal = 1;
place = "{755, 126}";
type = Stem;
},
{
place = "{19, 213}";
type = Stem;
},
{
place = "{570, 213}";
type = Stem;
}
);
layerId = "32B14746-0B3F-40B0-A5C5-A5220BCE1F35";
paths = (
{
closed = 1;
nodes = (
"603 982 LINE",
"518 840 LINE",
"630 840 LINE",
"737 936 LINE"
);
},
{
closed = 1;
nodes = (
"331 881 LINE",
"238 755 LINE",
"347 755 LINE",
"392 823 LINE",
"437 755 LINE",
"546 755 LINE",
"453 881 LINE"
);
},
{
closed = 1;
nodes = (
"181 707 OFFCURVE",
"19 557 OFFCURVE",
"19 351 CURVE SMOOTH",
"19 144 OFFCURVE",
"181 -9 OFFCURVE",
"401 -9 CURVE SMOOTH",
"621 -9 OFFCURVE",
"783 145 OFFCURVE",
"783 351 CURVE SMOOTH",
"783 556 OFFCURVE",
"621 707 OFFCURVE",
"401 707 CURVE SMOOTH"
);
},
{
closed = 1;
nodes = (
"496 533 OFFCURVE",
"570 456 OFFCURVE",
"570 350 CURVE SMOOTH",
"570 244 OFFCURVE",
"496 165 OFFCURVE",
"404 165 CURVE SMOOTH",
"312 165 OFFCURVE",
"232 244 OFFCURVE",
"232 350 CURVE SMOOTH",
"232 456 OFFCURVE",
"311 533 OFFCURVE",
"404 533 CURVE SMOOTH"
);
}
);
width = 802;
}
);
note = uni1ED0;
unicode = 1ED0;
},
{
glyphname = Ocircumflexdotbelow;
layers = (
{
hints = (
{
horizontal = 1;
place = "{-224, 164}";
type = Stem;
},
{
horizontal = 1;
place = "{-9, 174}";
type = Stem;
},
{
horizontal = 1;
place = "{533, 174}";
type = Stem;
},
{
horizontal = 1;
place = "{747, 126}";
type = Stem;
},
{
place = "{19, 213}";
type = Stem;
},
{
place = "{323, 163}";
type = Stem;
},
{
place = "{570, 213}";
type = Stem;
}
);
layerId = "32B14746-0B3F-40B0-A5C5-A5220BCE1F35";
paths = (
{
closed = 1;
nodes = (
"453 873 LINE",
"331 873 LINE",
"238 747 LINE",
"347 747 LINE",
"392 815 LINE",
"437 747 LINE",
"546 747 LINE"
);
},
{
closed = 1;
nodes = (
"181 707 OFFCURVE",
"19 557 OFFCURVE",
"19 351 CURVE SMOOTH",
"19 144 OFFCURVE",
"181 -9 OFFCURVE",
"401 -9 CURVE SMOOTH",
"621 -9 OFFCURVE",
"783 145 OFFCURVE",
"783 351 CURVE SMOOTH",
"783 556 OFFCURVE",
"621 707 OFFCURVE",
"401 707 CURVE SMOOTH"
);
},
{
closed = 1;
nodes = (
"496 533 OFFCURVE",
"570 456 OFFCURVE",
"570 350 CURVE SMOOTH",
"570 244 OFFCURVE",
"496 165 OFFCURVE",
"404 165 CURVE SMOOTH",
"312 165 OFFCURVE",
"232 244 OFFCURVE",
"232 350 CURVE SMOOTH",
"232 456 OFFCURVE",
"311 533 OFFCURVE",
"404 533 CURVE SMOOTH"
);
},
{
closed = 1;
nodes = (
"356 -60 OFFCURVE",
"322 -95 OFFCURVE",
"323 -142 CURVE SMOOTH",
"324 -190 OFFCURVE",
"356 -224 OFFCURVE",
"404 -224 CURVE SMOOTH",
"451 -224 OFFCURVE",
"486 -190 OFFCURVE",
"486 -142 CURVE SMOOTH",
"486 -95 OFFCURVE",
"451 -60 OFFCURVE",
"404 -60 CURVE SMOOTH"
);
}
);
width = 802;
}
);
note = uni1ED8;
unicode = 1ED8;
},
{
glyphname = Ocircumflexgrave;
layers = (
{
hints = (
{
horizontal = 1;
place = "{-9, 174}";
type = Stem;
},
{
horizontal = 1;
place = "{533, 174}";
type = Stem;
},
{
horizontal = 1;
place = "{755, 126}";
type = Stem;
},
{
place = "{19, 213}";
type = Stem;
},
{
place = "{570, 213}";
type = Stem;
}
);
layerId = "32B14746-0B3F-40B0-A5C5-A5220BCE1F35";
paths = (
{
closed = 1;
nodes = (
"569 982 LINE",
"435 936 LINE",
"542 840 LINE",
"654 840 LINE"
);
},
{
closed = 1;
nodes = (
"331 881 LINE",
"238 755 LINE",
"347 755 LINE",
"392 823 LINE",
"437 755 LINE",
"546 755 LINE",
"453 881 LINE"
);
},
{
closed = 1;
nodes = (
"181 707 OFFCURVE",
"19 557 OFFCURVE",
"19 351 CURVE SMOOTH",
"19 144 OFFCURVE",
"181 -9 OFFCURVE",
"401 -9 CURVE SMOOTH",
"621 -9 OFFCURVE",
"783 145 OFFCURVE",
"783 351 CURVE SMOOTH",
"783 556 OFFCURVE",
"621 707 OFFCURVE",
"401 707 CURVE SMOOTH"
);
},
{
closed = 1;
nodes = (
"496 533 OFFCURVE",
"570 456 OFFCURVE",
"570 350 CURVE SMOOTH",
"570 244 OFFCURVE",
"496 165 OFFCURVE",
"404 165 CURVE SMOOTH",
"312 165 OFFCURVE",
"232 244 OFFCURVE",
"232 350 CURVE SMOOTH",
"232 456 OFFCURVE",
"311 533 OFFCURVE",
"404 533 CURVE SMOOTH"
);
}
);
width = 802;
}
);
note = uni1ED2;
unicode = 1ED2;
},
{
glyphname = Ocircumflexhookabove;
layers = (
{
hints = (
{
horizontal = 1;
place = "{-9, 174}";
type = Stem;
},
{
horizontal = 1;
place = "{533, 174}";
type = Stem;
},
{
horizontal = 1;
place = "{755, 126}";
type = Stem;
},
{
horizontal = 1;
place = "{954, 71}";
type = Stem;
},
{
place = "{19, 213}";
type = Stem;
},
{
place = "{570, 213}";
type = Stem;
},
{
place = "{556, 82}";
type = Stem;
}
);
layerId = "32B14746-0B3F-40B0-A5C5-A5220BCE1F35";
paths = (
{
closed = 1;
nodes = (
"491 917 LINE",
"493 939 OFFCURVE",
"505 954 OFFCURVE",
"526 954 CURVE SMOOTH",
"545 954 OFFCURVE",
"556 939 OFFCURVE",
"556 921 CURVE SMOOTH",
"556 895 OFFCURVE",
"538 872 OFFCURVE",
"509 846 CURVE",
"577 823 LINE",
"613 856 OFFCURVE",
"638 889 OFFCURVE",
"638 932 CURVE SMOOTH",
"638 985 OFFCURVE",
"598 1025 OFFCURVE",
"530 1025 CURVE SMOOTH",
"471 1025 OFFCURVE",
"426 996 OFFCURVE",
"415 943 CURVE"
);
},
{
closed = 1;
nodes = (
"331 881 LINE",
"238 755 LINE",
"347 755 LINE",
"392 823 LINE",
"437 755 LINE",
"546 755 LINE",
"453 881 LINE"
);
},
{
closed = 1;
nodes = (
"181 707 OFFCURVE",
"19 557 OFFCURVE",
"19 351 CURVE SMOOTH",
"19 144 OFFCURVE",
"181 -9 OFFCURVE",
"401 -9 CURVE SMOOTH",
"621 -9 OFFCURVE",
"783 145 OFFCURVE",
"783 351 CURVE SMOOTH",
"783 556 OFFCURVE",
"621 707 OFFCURVE",
"401 707 CURVE SMOOTH"
);
},
{
closed = 1;
nodes = (
"496 533 OFFCURVE",
"570 456 OFFCURVE",
"570 350 CURVE SMOOTH",
"570 244 OFFCURVE",
"496 165 OFFCURVE",
"404 165 CURVE SMOOTH",
"312 165 OFFCURVE",
"232 244 OFFCURVE",
"232 350 CURVE SMOOTH",
"232 456 OFFCURVE",
"311 533 OFFCURVE",
"404 533 CURVE SMOOTH"
);
}
);
width = 802;
}
);
note = uni1ED4;
unicode = 1ED4;
},
{
glyphname = Ocircumflextilde;
layers = (
{
hints = (
{
horizontal = 1;
place = "{-9, 174}";
type = Stem;
},
{
horizontal = 1;
place = "{533, 174}";
type = Stem;
},
{
horizontal = 1;
place = "{755, 126}";
type = Stem;
},
{
horizontal = 1;
place = "{911, 126}";
type = Stem;
},
{
place = "{19, 213}";
type = Stem;
},
{
place = "{441, 89}";
type = Stem;
},
{
place = "{570, 213}";
type = Stem;
},
{
horizontal = 1;
place = "{914, 126}";
type = Stem;
},
{
place = "{252, 89}";
type = Stem;
}
);
layerId = "32B14746-0B3F-40B0-A5C5-A5220BCE1F35";
paths = (
{
closed = 1;
nodes = (
"441 1037 LINE",
"441 1016 OFFCURVE",
"435 1006 OFFCURVE",
"420 1006 CURVE SMOOTH",
"401 1006 OFFCURVE",
"380 1040 OFFCURVE",
"335 1040 CURVE SMOOTH",
"279 1040 OFFCURVE",
"252 999 OFFCURVE",
"252 914 CURVE",
"341 914 LINE",
"341 934 OFFCURVE",
"348 945 OFFCURVE",
"362 945 CURVE SMOOTH",
"381 945 OFFCURVE",
"401 911 OFFCURVE",
"448 911 CURVE SMOOTH",
"503 911 OFFCURVE",
"530 952 OFFCURVE",
"530 1037 CURVE"
);
},
{
closed = 1;
nodes = (
"331 881 LINE",
"238 755 LINE",
"347 755 LINE",
"392 823 LINE",
"437 755 LINE",
"546 755 LINE",
"453 881 LINE"
);
},
{
closed = 1;
nodes = (
"181 707 OFFCURVE",
"19 557 OFFCURVE",
"19 351 CURVE SMOOTH",
"19 144 OFFCURVE",
"181 -9 OFFCURVE",
"401 -9 CURVE SMOOTH",
"621 -9 OFFCURVE",
"783 145 OFFCURVE",
"783 351 CURVE SMOOTH",
"783 556 OFFCURVE",
"621 707 OFFCURVE",
"401 707 CURVE SMOOTH"
);
},
{
closed = 1;
nodes = (
"496 533 OFFCURVE",
"570 456 OFFCURVE",
"570 350 CURVE SMOOTH",
"570 244 OFFCURVE",
"496 165 OFFCURVE",
"404 165 CURVE SMOOTH",
"312 165 OFFCURVE",
"232 244 OFFCURVE",
"232 350 CURVE SMOOTH",
"232 456 OFFCURVE",
"311 533 OFFCURVE",
"404 533 CURVE SMOOTH"
);
}
);
width = 802;
}
);
note = uni1ED6;
unicode = 1ED6;
},
{
glyphname = Odblgrave;
layers = (
{
hints = (
{
horizontal = 1;
place = "{-9, 174}";
type = Stem;
},
{
horizontal = 1;
place = "{533, 174}";
type = Stem;
},
{
place = "{19, 213}";
type = Stem;
},
{
place = "{570, 213}";
type = Stem;
}
);
layerId = "32B14746-0B3F-40B0-A5C5-A5220BCE1F35";
paths = (
{
closed = 1;
nodes = (
"295 933 LINE",
"147 882 LINE",
"236 752 LINE",
"381 752 LINE"
);
},
{
closed = 1;
nodes = (
"504 933 LINE",
"356 882 LINE",
"446 752 LINE",
"591 752 LINE"
);
},
{
closed = 1;
nodes = (
"181 707 OFFCURVE",
"19 557 OFFCURVE",
"19 351 CURVE SMOOTH",
"19 144 OFFCURVE",
"181 -9 OFFCURVE",
"401 -9 CURVE SMOOTH",
"621 -9 OFFCURVE",
"783 145 OFFCURVE",
"783 351 CURVE SMOOTH",
"783 556 OFFCURVE",
"621 707 OFFCURVE",
"401 707 CURVE SMOOTH"
);
},
{
closed = 1;
nodes = (
"496 533 OFFCURVE",
"570 456 OFFCURVE",
"570 350 CURVE SMOOTH",
"570 244 OFFCURVE",
"496 165 OFFCURVE",
"404 165 CURVE SMOOTH",
"312 165 OFFCURVE",
"232 244 OFFCURVE",
"232 350 CURVE SMOOTH",
"232 456 OFFCURVE",
"311 533 OFFCURVE",
"404 533 CURVE SMOOTH"
);
}
);
width = 802;
}
);
note = uni020C;
unicode = 020C;
},
{
glyphname = Odieresis;
layers = (
{
hints = (
{
horizontal = 1;
place = "{-9, 174}";
type = Stem;
},
{
horizontal = 1;
place = "{533, 174}";
type = Stem;
},
{
horizontal = 1;
place = "{767, 170}";
type = Stem;
},
{
place = "{207, 169}";
type = Stem;
},
{
place = "{408, 170}";
type = Stem;
},
{
place = "{19, 213}";
type = Stem;
},
{
place = "{570, 213}";
type = Stem;
}
);
layerId = "32B14746-0B3F-40B0-A5C5-A5220BCE1F35";
paths = (
{
closed = 1;
nodes = (
"241 937 OFFCURVE",
"207 902 OFFCURVE",
"207 852 CURVE SMOOTH",
"207 803 OFFCURVE",
"241 767 OFFCURVE",
"291 767 CURVE SMOOTH",
"341 767 OFFCURVE",
"376 803 OFFCURVE",
"376 852 CURVE SMOOTH",
"376 902 OFFCURVE",
"341 937 OFFCURVE",
"291 937 CURVE SMOOTH"
);
},
{
closed = 1;
nodes = (
"443 937 OFFCURVE",
"408 902 OFFCURVE",
"408 852 CURVE SMOOTH",
"408 803 OFFCURVE",
"443 767 OFFCURVE",
"493 767 CURVE SMOOTH",
"543 767 OFFCURVE",
"578 803 OFFCURVE",
"578 852 CURVE SMOOTH",
"578 902 OFFCURVE",
"543 937 OFFCURVE",
"493 937 CURVE SMOOTH"
);
},
{
closed = 1;
nodes = (
"181 707 OFFCURVE",
"19 557 OFFCURVE",
"19 351 CURVE SMOOTH",
"19 144 OFFCURVE",
"181 -9 OFFCURVE",
"401 -9 CURVE SMOOTH",
"621 -9 OFFCURVE",
"783 145 OFFCURVE",
"783 351 CURVE SMOOTH",
"783 556 OFFCURVE",
"621 707 OFFCURVE",
"401 707 CURVE SMOOTH"
);
},
{
closed = 1;
nodes = (
"496 533 OFFCURVE",
"570 456 OFFCURVE",
"570 350 CURVE SMOOTH",
"570 244 OFFCURVE",
"496 165 OFFCURVE",
"404 165 CURVE SMOOTH",
"312 165 OFFCURVE",
"232 244 OFFCURVE",
"232 350 CURVE SMOOTH",
"232 456 OFFCURVE",
"311 533 OFFCURVE",
"404 533 CURVE SMOOTH"
);
}
);
width = 802;
}
);
leftKerningGroup = C;
note = Odieresis;
rightKerningGroup = D;
unicode = 00D6;
},
{
glyphname = Odieresismacron;
layers = (
{
hints = (
{
horizontal = 1;
place = "{-9, 174}";
type = Stem;
},
{
horizontal = 1;
place = "{533, 174}";
type = Stem;
},
{
horizontal = 1;
place = "{1013, 133}";
type = Stem;
},
{
place = "{19, 213}";
type = Stem;
},
{
place = "{247, 290}";
type = Stem;
},
{
place = "{570, 213}";
type = Stem;
},
{
horizontal = 1;
place = "{767, 170}";
type = Stem;
},
{
place = "{206, 169}";
type = Stem;
},
{
place = "{407, 170}";
type = Stem;
}
);
layerId = "32B14746-0B3F-40B0-A5C5-A5220BCE1F35";
paths = (
{
closed = 1;
nodes = (
"247 1146 LINE",
"247 1013 LINE",
"537 1013 LINE",
"537 1146 LINE"
);
},
{
closed = 1;
nodes = (
"240 937 OFFCURVE",
"206 902 OFFCURVE",
"206 852 CURVE SMOOTH",
"206 803 OFFCURVE",
"240 767 OFFCURVE",
"290 767 CURVE SMOOTH",
"340 767 OFFCURVE",
"375 803 OFFCURVE",
"375 852 CURVE SMOOTH",
"375 902 OFFCURVE",
"340 937 OFFCURVE",
"290 937 CURVE SMOOTH"
);
},
{
closed = 1;
nodes = (
"442 937 OFFCURVE",
"407 902 OFFCURVE",
"407 852 CURVE SMOOTH",
"407 803 OFFCURVE",
"442 767 OFFCURVE",
"492 767 CURVE SMOOTH",
"542 767 OFFCURVE",
"577 803 OFFCURVE",
"577 852 CURVE SMOOTH",
"577 902 OFFCURVE",
"542 937 OFFCURVE",
"492 937 CURVE SMOOTH"
);
},
{
closed = 1;
nodes = (
"181 707 OFFCURVE",
"19 557 OFFCURVE",
"19 351 CURVE SMOOTH",
"19 144 OFFCURVE",
"181 -9 OFFCURVE",
"401 -9 CURVE SMOOTH",
"621 -9 OFFCURVE",
"783 145 OFFCURVE",
"783 351 CURVE SMOOTH",
"783 556 OFFCURVE",
"621 707 OFFCURVE",
"401 707 CURVE SMOOTH"
);
},
{
closed = 1;
nodes = (
"496 533 OFFCURVE",
"570 456 OFFCURVE",
"570 350 CURVE SMOOTH",
"570 244 OFFCURVE",
"496 165 OFFCURVE",
"404 165 CURVE SMOOTH",
"312 165 OFFCURVE",
"232 244 OFFCURVE",
"232 350 CURVE SMOOTH",
"232 456 OFFCURVE",
"311 533 OFFCURVE",
"404 533 CURVE SMOOTH"
);
}
);
width = 802;
}
);
note = uni022A;
unicode = 022A;
},
{
glyphname = Odotaccentmacron;
layers = (
{
hints = (
{
horizontal = 1;
place = "{-9, 174}";
type = Stem;
},
{
horizontal = 1;
place = "{533, 174}";
type = Stem;
},
{
horizontal = 1;
place = "{1030, 133}";
type = Stem;
},
{
place = "{19, 213}";
type = Stem;
},
{
place = "{247, 290}";
type = Stem;
},
{
place = "{570, 213}";
type = Stem;
},
{
horizontal = 1;
place = "{768, 172}";
type = Stem;
},
{
place = "{306, 172}";
type = Stem;
}
);
layerId = "32B14746-0B3F-40B0-A5C5-A5220BCE1F35";
paths = (
{
closed = 1;
nodes = (
"247 1163 LINE",
"247 1030 LINE",
"537 1030 LINE",
"537 1163 LINE"
);
},
{
closed = 1;
nodes = (
"341 940 OFFCURVE",
"306 904 OFFCURVE",
"306 853 CURVE SMOOTH",
"306 804 OFFCURVE",
"341 768 OFFCURVE",
"392 768 CURVE SMOOTH",
"443 768 OFFCURVE",
"478 804 OFFCURVE",
"478 853 CURVE SMOOTH",
"478 904 OFFCURVE",
"443 940 OFFCURVE",
"392 940 CURVE SMOOTH"
);
},
{
closed = 1;
nodes = (
"181 707 OFFCURVE",
"19 557 OFFCURVE",
"19 351 CURVE SMOOTH",
"19 144 OFFCURVE",
"181 -9 OFFCURVE",
"401 -9 CURVE SMOOTH",
"621 -9 OFFCURVE",
"783 145 OFFCURVE",
"783 351 CURVE SMOOTH",
"783 556 OFFCURVE",
"621 707 OFFCURVE",
"401 707 CURVE SMOOTH"
);
},
{
closed = 1;
nodes = (
"496 533 OFFCURVE",
"570 456 OFFCURVE",
"570 350 CURVE SMOOTH",
"570 244 OFFCURVE",
"496 165 OFFCURVE",
"404 165 CURVE SMOOTH",
"312 165 OFFCURVE",
"232 244 OFFCURVE",
"232 350 CURVE SMOOTH",
"232 456 OFFCURVE",
"311 533 OFFCURVE",
"404 533 CURVE SMOOTH"
);
}
);
width = 802;
}
);
note = uni0230;
unicode = 0230;
},
{
glyphname = Odotbelow;
layers = (
{
hints = (
{
horizontal = 1;
place = "{-224, 164}";
type = Stem;
},
{
horizontal = 1;
place = "{-9, 174}";
type = Stem;
},
{
horizontal = 1;
place = "{533, 174}";
type = Stem;
},
{
place = "{19, 213}";
type = Stem;
},
{
place = "{323, 163}";
type = Stem;
},
{
place = "{570, 213}";
type = Stem;
}
);
layerId = "32B14746-0B3F-40B0-A5C5-A5220BCE1F35";
paths = (
{
closed = 1;
nodes = (
"181 707 OFFCURVE",
"19 557 OFFCURVE",
"19 351 CURVE SMOOTH",
"19 144 OFFCURVE",
"181 -9 OFFCURVE",
"401 -9 CURVE SMOOTH",
"621 -9 OFFCURVE",
"783 145 OFFCURVE",
"783 351 CURVE SMOOTH",
"783 556 OFFCURVE",
"621 707 OFFCURVE",
"401 707 CURVE SMOOTH"
);
},
{
closed = 1;
nodes = (
"496 533 OFFCURVE",
"570 456 OFFCURVE",
"570 350 CURVE SMOOTH",
"570 244 OFFCURVE",
"496 165 OFFCURVE",
"404 165 CURVE SMOOTH",
"312 165 OFFCURVE",
"232 244 OFFCURVE",
"232 350 CURVE SMOOTH",
"232 456 OFFCURVE",
"311 533 OFFCURVE",
"404 533 CURVE SMOOTH"
);
},
{
closed = 1;
nodes = (
"356 -60 OFFCURVE",
"322 -95 OFFCURVE",
"323 -142 CURVE SMOOTH",
"324 -190 OFFCURVE",
"356 -224 OFFCURVE",
"404 -224 CURVE SMOOTH",
"451 -224 OFFCURVE",
"486 -190 OFFCURVE",
"486 -142 CURVE SMOOTH",
"486 -95 OFFCURVE",
"451 -60 OFFCURVE",
"404 -60 CURVE SMOOTH"
);
}
);
width = 802;
}
);
note = uni1ECC;
unicode = 1ECC;
},
{
glyphname = Ograve;
layers = (
{
hints = (
{
horizontal = 1;
place = "{-9, 174}";
type = Stem;
},
{
horizontal = 1;
place = "{533, 174}";
type = Stem;
},
{
place = "{19, 213}";
type = Stem;
},
{
place = "{570, 213}";
type = Stem;
}
);
layerId = "32B14746-0B3F-40B0-A5C5-A5220BCE1F35";
paths = (
{
closed = 1;
nodes = (
"387 932 LINE",
"212 874 LINE",
"346 752 LINE",
"494 752 LINE"
);
},
{
closed = 1;
nodes = (
"181 707 OFFCURVE",
"19 557 OFFCURVE",
"19 351 CURVE SMOOTH",
"19 144 OFFCURVE",
"181 -9 OFFCURVE",
"401 -9 CURVE SMOOTH",
"621 -9 OFFCURVE",
"783 145 OFFCURVE",
"783 351 CURVE SMOOTH",
"783 556 OFFCURVE",
"621 707 OFFCURVE",
"401 707 CURVE SMOOTH"
);
},
{
closed = 1;
nodes = (
"496 533 OFFCURVE",
"570 456 OFFCURVE",
"570 350 CURVE SMOOTH",
"570 244 OFFCURVE",
"496 165 OFFCURVE",
"404 165 CURVE SMOOTH",
"312 165 OFFCURVE",
"232 244 OFFCURVE",
"232 350 CURVE SMOOTH",
"232 456 OFFCURVE",
"311 533 OFFCURVE",
"404 533 CURVE SMOOTH"
);
}
);
width = 802;
}
);
leftKerningGroup = C;
note = Ograve;
rightKerningGroup = D;
unicode = 00D2;
},
{
glyphname = Ohookabove;
layers = (
{
hints = (
{
horizontal = 1;
place = "{-9, 174}";
type = Stem;
},
{
horizontal = 1;
place = "{533, 174}";
type = Stem;
},
{
horizontal = 1;
place = "{875, 83}";
type = Stem;
},
{
place = "{19, 213}";
type = Stem;
},
{
place = "{429, 94}";
type = Stem;
},
{
place = "{570, 213}";
type = Stem;
}
);
layerId = "32B14746-0B3F-40B0-A5C5-A5220BCE1F35";
paths = (
{
closed = 1;
nodes = (
"354 836 LINE",
"356 859 OFFCURVE",
"370 875 OFFCURVE",
"394 875 CURVE SMOOTH",
"417 875 OFFCURVE",
"429 859 OFFCURVE",
"429 840 CURVE SMOOTH",
"429 814 OFFCURVE",
"412 793 OFFCURVE",
"382 765 CURVE",
"462 739 LINE",
"499 772 OFFCURVE",
"523 808 OFFCURVE",
"523 849 CURVE SMOOTH",
"523 911 OFFCURVE",
"477 958 OFFCURVE",
"399 958 CURVE SMOOTH",
"330 958 OFFCURVE",
"278 925 OFFCURVE",
"266 865 CURVE"
);
},
{
closed = 1;
nodes = (
"181 707 OFFCURVE",
"19 557 OFFCURVE",
"19 351 CURVE SMOOTH",
"19 144 OFFCURVE",
"181 -9 OFFCURVE",
"401 -9 CURVE SMOOTH",
"621 -9 OFFCURVE",
"783 145 OFFCURVE",
"783 351 CURVE SMOOTH",
"783 556 OFFCURVE",
"621 707 OFFCURVE",
"401 707 CURVE SMOOTH"
);
},
{
closed = 1;
nodes = (
"496 533 OFFCURVE",
"570 456 OFFCURVE",
"570 350 CURVE SMOOTH",
"570 244 OFFCURVE",
"496 165 OFFCURVE",
"404 165 CURVE SMOOTH",
"312 165 OFFCURVE",
"232 244 OFFCURVE",
"232 350 CURVE SMOOTH",
"232 456 OFFCURVE",
"311 533 OFFCURVE",
"404 533 CURVE SMOOTH"
);
}
);
width = 802;
}
);
note = uni1ECE;
unicode = 1ECE;
},
{
glyphname = Ohorn;
layers = (
{
hints = (
{
horizontal = 1;
place = "{-9, 174}";
type = Stem;
},
{
horizontal = 1;
place = "{533, 174}";
type = Stem;
},
{
place = "{19, 213}";
type = Stem;
},
{
place = "{570, 213}";
type = Stem;
},
{
place = "{579, 137}";
type = Stem;
}
);
layerId = "32B14746-0B3F-40B0-A5C5-A5220BCE1F35";
paths = (
{
closed = 1;
nodes = (
"689 671 OFFCURVE",
"716 729 OFFCURVE",
"716 795 CURVE",
"579 795 LINE",
"579 742 OFFCURVE",
"543 704 OFFCURVE",
"492 698 CURVE",
"463 704 OFFCURVE",
"433 707 OFFCURVE",
"401 707 CURVE SMOOTH",
"181 707 OFFCURVE",
"19 557 OFFCURVE",
"19 351 CURVE SMOOTH",
"19 144 OFFCURVE",
"181 -9 OFFCURVE",
"401 -9 CURVE SMOOTH",
"621 -9 OFFCURVE",
"783 145 OFFCURVE",
"783 351 CURVE SMOOTH",
"783 468 OFFCURVE",
"731 567 OFFCURVE",
"645 631 CURVE"
);
},
{
closed = 1;
nodes = (
"312 165 OFFCURVE",
"232 244 OFFCURVE",
"232 350 CURVE SMOOTH",
"232 456 OFFCURVE",
"311 533 OFFCURVE",
"404 533 CURVE SMOOTH",
"496 533 OFFCURVE",
"570 456 OFFCURVE",
"570 350 CURVE SMOOTH",
"570 244 OFFCURVE",
"496 165 OFFCURVE",
"404 165 CURVE SMOOTH"
);
}
);
width = 802;
}
);
note = Ohorn;
unicode = 01A0;
},
{
glyphname = Ohornacute;
layers = (
{
hints = (
{
horizontal = 1;
place = "{-9, 174}";
type = Stem;
},
{
horizontal = 1;
place = "{533, 174}";
type = Stem;
},
{
place = "{19, 213}";
type = Stem;
},
{
place = "{570, 213}";
type = Stem;
},
{
place = "{579, 137}";
type = Stem;
}
);
layerId = "32B14746-0B3F-40B0-A5C5-A5220BCE1F35";
paths = (
{
closed = 1;
nodes = (
"579 874 LINE",
"404 932 LINE",
"297 752 LINE",
"445 752 LINE"
);
},
{
closed = 1;
nodes = (
"689 671 OFFCURVE",
"716 729 OFFCURVE",
"716 795 CURVE",
"579 795 LINE",
"579 742 OFFCURVE",
"543 704 OFFCURVE",
"492 698 CURVE",
"463 704 OFFCURVE",
"433 707 OFFCURVE",
"401 707 CURVE SMOOTH",
"181 707 OFFCURVE",
"19 557 OFFCURVE",
"19 351 CURVE SMOOTH",
"19 144 OFFCURVE",
"181 -9 OFFCURVE",
"401 -9 CURVE SMOOTH",
"621 -9 OFFCURVE",
"783 145 OFFCURVE",
"783 351 CURVE SMOOTH",
"783 468 OFFCURVE",
"731 567 OFFCURVE",
"645 631 CURVE"
);
},
{
closed = 1;
nodes = (
"312 165 OFFCURVE",
"232 244 OFFCURVE",
"232 350 CURVE SMOOTH",
"232 456 OFFCURVE",
"311 533 OFFCURVE",
"404 533 CURVE SMOOTH",
"496 533 OFFCURVE",
"570 456 OFFCURVE",
"570 350 CURVE SMOOTH",
"570 244 OFFCURVE",
"496 165 OFFCURVE",
"404 165 CURVE SMOOTH"
);
}
);
width = 802;
}
);
note = uni1EDA;
unicode = 1EDA;
},
{
glyphname = Ohorndotbelow;
layers = (
{
hints = (
{
horizontal = 1;
place = "{-224, 164}";
type = Stem;
},
{
horizontal = 1;
place = "{-9, 174}";
type = Stem;
},
{
horizontal = 1;
place = "{533, 174}";
type = Stem;
},
{
place = "{19, 213}";
type = Stem;
},
{
place = "{323, 163}";
type = Stem;
},
{
place = "{570, 213}";
type = Stem;
},
{
place = "{579, 137}";
type = Stem;
}
);
layerId = "32B14746-0B3F-40B0-A5C5-A5220BCE1F35";
paths = (
{
closed = 1;
nodes = (
"689 671 OFFCURVE",
"716 729 OFFCURVE",
"716 795 CURVE",
"579 795 LINE",
"579 742 OFFCURVE",
"543 704 OFFCURVE",
"492 698 CURVE",
"463 704 OFFCURVE",
"433 707 OFFCURVE",
"401 707 CURVE SMOOTH",
"181 707 OFFCURVE",
"19 557 OFFCURVE",
"19 351 CURVE SMOOTH",
"19 144 OFFCURVE",
"181 -9 OFFCURVE",
"401 -9 CURVE SMOOTH",
"621 -9 OFFCURVE",
"783 145 OFFCURVE",
"783 351 CURVE SMOOTH",
"783 468 OFFCURVE",
"731 567 OFFCURVE",
"645 631 CURVE"
);
},
{
closed = 1;
nodes = (
"312 165 OFFCURVE",
"232 244 OFFCURVE",
"232 350 CURVE SMOOTH",
"232 456 OFFCURVE",
"311 533 OFFCURVE",
"404 533 CURVE SMOOTH",
"496 533 OFFCURVE",
"570 456 OFFCURVE",
"570 350 CURVE SMOOTH",
"570 244 OFFCURVE",
"496 165 OFFCURVE",
"404 165 CURVE SMOOTH"
);
},
{
closed = 1;
nodes = (
"356 -60 OFFCURVE",
"322 -95 OFFCURVE",
"323 -142 CURVE SMOOTH",
"324 -190 OFFCURVE",
"356 -224 OFFCURVE",
"404 -224 CURVE SMOOTH",
"451 -224 OFFCURVE",
"486 -190 OFFCURVE",
"486 -142 CURVE SMOOTH",
"486 -95 OFFCURVE",
"451 -60 OFFCURVE",
"404 -60 CURVE SMOOTH"
);
}
);
width = 802;
}
);
note = uni1EE2;
unicode = 1EE2;
},
{
glyphname = Ohorngrave;
layers = (
{
hints = (
{
horizontal = 1;
place = "{-9, 174}";
type = Stem;
},
{
horizontal = 1;
place = "{533, 174}";
type = Stem;
},
{
horizontal = 1;
place = "{752, 43}";
type = Stem;
},
{
place = "{19, 213}";
type = Stem;
},
{
place = "{570, 213}";
type = Stem;
},
{
place = "{579, 137}";
type = Stem;
}
);
layerId = "32B14746-0B3F-40B0-A5C5-A5220BCE1F35";
paths = (
{
closed = 1;
nodes = (
"488 752 LINE",
"381 932 LINE",
"206 874 LINE",
"340 752 LINE"
);
},
{
closed = 1;
nodes = (
"689 671 OFFCURVE",
"716 729 OFFCURVE",
"716 795 CURVE",
"579 795 LINE",
"579 742 OFFCURVE",
"543 704 OFFCURVE",
"492 698 CURVE",
"463 704 OFFCURVE",
"433 707 OFFCURVE",
"401 707 CURVE SMOOTH",
"181 707 OFFCURVE",
"19 557 OFFCURVE",
"19 351 CURVE SMOOTH",
"19 144 OFFCURVE",
"181 -9 OFFCURVE",
"401 -9 CURVE SMOOTH",
"621 -9 OFFCURVE",
"783 145 OFFCURVE",
"783 351 CURVE SMOOTH",
"783 468 OFFCURVE",
"731 567 OFFCURVE",
"645 631 CURVE"
);
},
{
closed = 1;
nodes = (
"312 165 OFFCURVE",
"232 244 OFFCURVE",
"232 350 CURVE SMOOTH",
"232 456 OFFCURVE",
"311 533 OFFCURVE",
"404 533 CURVE SMOOTH",
"496 533 OFFCURVE",
"570 456 OFFCURVE",
"570 350 CURVE SMOOTH",
"570 244 OFFCURVE",
"496 165 OFFCURVE",
"404 165 CURVE SMOOTH"
);
}
);
width = 802;
}
);
note = uni1EDC;
unicode = 1EDC;
},
{
glyphname = Ohornhookabove;
layers = (
{
hints = (
{
horizontal = 1;
place = "{-9, 174}";
type = Stem;
},
{
horizontal = 1;
place = "{533, 174}";
type = Stem;
},
{
horizontal = 1;
place = "{875, 83}";
type = Stem;
},
{
place = "{19, 213}";
type = Stem;
},
{
place = "{429, 94}";
type = Stem;
},
{
place = "{570, 213}";
type = Stem;
},
{
place = "{579, 137}";
type = Stem;
}
);
layerId = "32B14746-0B3F-40B0-A5C5-A5220BCE1F35";
paths = (
{
closed = 1;
nodes = (
"417 875 OFFCURVE",
"429 859 OFFCURVE",
"429 840 CURVE SMOOTH",
"429 814 OFFCURVE",
"412 793 OFFCURVE",
"382 765 CURVE",
"462 739 LINE",
"499 772 OFFCURVE",
"523 808 OFFCURVE",
"523 849 CURVE SMOOTH",
"523 911 OFFCURVE",
"477 958 OFFCURVE",
"399 958 CURVE SMOOTH",
"330 958 OFFCURVE",
"278 925 OFFCURVE",
"266 865 CURVE",
"354 836 LINE",
"356 859 OFFCURVE",
"370 875 OFFCURVE",
"394 875 CURVE SMOOTH"
);
},
{
closed = 1;
nodes = (
"689 671 OFFCURVE",
"716 729 OFFCURVE",
"716 795 CURVE",
"579 795 LINE",
"579 742 OFFCURVE",
"543 704 OFFCURVE",
"492 698 CURVE",
"463 704 OFFCURVE",
"433 707 OFFCURVE",
"401 707 CURVE SMOOTH",
"181 707 OFFCURVE",
"19 557 OFFCURVE",
"19 351 CURVE SMOOTH",
"19 144 OFFCURVE",
"181 -9 OFFCURVE",
"401 -9 CURVE SMOOTH",
"621 -9 OFFCURVE",
"783 145 OFFCURVE",
"783 351 CURVE SMOOTH",
"783 468 OFFCURVE",
"731 567 OFFCURVE",
"645 631 CURVE"
);
},
{
closed = 1;
nodes = (
"312 165 OFFCURVE",
"232 244 OFFCURVE",
"232 350 CURVE SMOOTH",
"232 456 OFFCURVE",
"311 533 OFFCURVE",
"404 533 CURVE SMOOTH",
"496 533 OFFCURVE",
"570 456 OFFCURVE",
"570 350 CURVE SMOOTH",
"570 244 OFFCURVE",
"496 165 OFFCURVE",
"404 165 CURVE SMOOTH"
);
}
);
width = 802;
}
);
note = uni1EDE;
unicode = 1EDE;
},
{
glyphname = Ohorntilde;
layers = (
{
hints = (
{
horizontal = 1;
place = "{-9, 174}";
type = Stem;
},
{
horizontal = 1;
place = "{533, 174}";
type = Stem;
},
{
horizontal = 1;
place = "{774, 171}";
type = Stem;
},
{
place = "{205, 123}";
type = Stem;
},
{
place = "{570, 213}";
type = Stem;
},
{
horizontal = 1;
place = "{771, 171}";
type = Stem;
},
{
place = "{19, 213}";
type = Stem;
},
{
place = "{457, 122}";
type = Stem;
},
{
place = "{579, 137}";
type = Stem;
}
);
layerId = "32B14746-0B3F-40B0-A5C5-A5220BCE1F35";
paths = (
{
closed = 1;
nodes = (
"380 814 OFFCURVE",
"406 771 OFFCURVE",
"468 771 CURVE SMOOTH",
"543 771 OFFCURVE",
"579 826 OFFCURVE",
"579 942 CURVE",
"457 942 LINE",
"457 915 OFFCURVE",
"449 902 OFFCURVE",
"430 902 CURVE SMOOTH",
"405 902 OFFCURVE",
"377 945 OFFCURVE",
"317 945 CURVE SMOOTH",
"242 945 OFFCURVE",
"205 890 OFFCURVE",
"205 774 CURVE",
"328 774 LINE",
"328 801 OFFCURVE",
"336 814 OFFCURVE",
"354 814 CURVE SMOOTH"
);
},
{
closed = 1;
nodes = (
"689 671 OFFCURVE",
"716 729 OFFCURVE",
"716 795 CURVE",
"579 795 LINE",
"579 742 OFFCURVE",
"543 704 OFFCURVE",
"492 698 CURVE",
"463 704 OFFCURVE",
"433 707 OFFCURVE",
"401 707 CURVE SMOOTH",
"181 707 OFFCURVE",
"19 557 OFFCURVE",
"19 351 CURVE SMOOTH",
"19 144 OFFCURVE",
"181 -9 OFFCURVE",
"401 -9 CURVE SMOOTH",
"621 -9 OFFCURVE",
"783 145 OFFCURVE",
"783 351 CURVE SMOOTH",
"783 468 OFFCURVE",
"731 567 OFFCURVE",
"645 631 CURVE"
);
},
{
closed = 1;
nodes = (
"312 165 OFFCURVE",
"232 244 OFFCURVE",
"232 350 CURVE SMOOTH",
"232 456 OFFCURVE",
"311 533 OFFCURVE",
"404 533 CURVE SMOOTH",
"496 533 OFFCURVE",
"570 456 OFFCURVE",
"570 350 CURVE SMOOTH",
"570 244 OFFCURVE",
"496 165 OFFCURVE",
"404 165 CURVE SMOOTH"
);
}
);
width = 802;
}
);
note = uni1EE0;
unicode = 1EE0;
},
{
glyphname = Ohungarumlaut;
layers = (
{
hints = (
{
horizontal = 1;
place = "{-9, 174}";
type = Stem;
},
{
horizontal = 1;
place = "{533, 174}";
type = Stem;
},
{
place = "{19, 213}";
type = Stem;
},
{
place = "{570, 213}";
type = Stem;
}
);
layerId = "32B14746-0B3F-40B0-A5C5-A5220BCE1F35";
paths = (
{
closed = 1;
nodes = (
"289 933 LINE",
"203 752 LINE",
"348 752 LINE",
"438 882 LINE"
);
},
{
closed = 1;
nodes = (
"498 933 LINE",
"412 752 LINE",
"557 752 LINE",
"647 882 LINE"
);
},
{
closed = 1;
nodes = (
"181 707 OFFCURVE",
"19 557 OFFCURVE",
"19 351 CURVE SMOOTH",
"19 144 OFFCURVE",
"181 -9 OFFCURVE",
"401 -9 CURVE SMOOTH",
"621 -9 OFFCURVE",
"783 145 OFFCURVE",
"783 351 CURVE SMOOTH",
"783 556 OFFCURVE",
"621 707 OFFCURVE",
"401 707 CURVE SMOOTH"
);
},
{
closed = 1;
nodes = (
"496 533 OFFCURVE",
"570 456 OFFCURVE",
"570 350 CURVE SMOOTH",
"570 244 OFFCURVE",
"496 165 OFFCURVE",
"404 165 CURVE SMOOTH",
"312 165 OFFCURVE",
"232 244 OFFCURVE",
"232 350 CURVE SMOOTH",
"232 456 OFFCURVE",
"311 533 OFFCURVE",
"404 533 CURVE SMOOTH"
);
}
);
width = 802;
}
);
leftKerningGroup = C;
note = Ohungarumlaut;
rightKerningGroup = D;
unicode = 0150;
},
{
glyphname = Oinvertedbreve;
layers = (
{
hints = (
{
horizontal = 1;
place = "{-9, 174}";
type = Stem;
},
{
horizontal = 1;
place = "{533, 174}";
type = Stem;
},
{
horizontal = 1;
place = "{755, 167}";
type = Stem;
},
{
place = "{217, 123}";
type = Stem;
},
{
place = "{444, 123}";
type = Stem;
},
{
place = "{19, 213}";
type = Stem;
},
{
place = "{570, 213}";
type = Stem;
}
);
layerId = "32B14746-0B3F-40B0-A5C5-A5220BCE1F35";
paths = (
{
closed = 1;
nodes = (
"340 755 LINE",
"343 787 OFFCURVE",
"363 808 OFFCURVE",
"392 808 CURVE SMOOTH",
"421 808 OFFCURVE",
"441 787 OFFCURVE",
"444 755 CURVE",
"567 755 LINE",
"562 856 OFFCURVE",
"493 922 OFFCURVE",
"392 922 CURVE SMOOTH",
"291 922 OFFCURVE",
"222 856 OFFCURVE",
"217 755 CURVE"
);
},
{
closed = 1;
nodes = (
"181 707 OFFCURVE",
"19 557 OFFCURVE",
"19 351 CURVE SMOOTH",
"19 144 OFFCURVE",
"181 -9 OFFCURVE",
"401 -9 CURVE SMOOTH",
"621 -9 OFFCURVE",
"783 145 OFFCURVE",
"783 351 CURVE SMOOTH",
"783 556 OFFCURVE",
"621 707 OFFCURVE",
"401 707 CURVE SMOOTH"
);
},
{
closed = 1;
nodes = (
"496 533 OFFCURVE",
"570 456 OFFCURVE",
"570 350 CURVE SMOOTH",
"570 244 OFFCURVE",
"496 165 OFFCURVE",
"404 165 CURVE SMOOTH",
"312 165 OFFCURVE",
"232 244 OFFCURVE",
"232 350 CURVE SMOOTH",
"232 456 OFFCURVE",
"311 533 OFFCURVE",
"404 533 CURVE SMOOTH"
);
}
);
width = 802;
}
);
note = uni020E;
unicode = 020E;
},
{
glyphname = Omacron;
layers = (
{
hints = (
{
horizontal = 1;
place = "{-9, 174}";
type = Stem;
},
{
horizontal = 1;
place = "{533, 174}";
type = Stem;
},
{
horizontal = 1;
place = "{785, 133}";
type = Stem;
},
{
place = "{19, 213}";
type = Stem;
},
{
place = "{247, 290}";
type = Stem;
},
{
place = "{570, 213}";
type = Stem;
}
);
layerId = "32B14746-0B3F-40B0-A5C5-A5220BCE1F35";
paths = (
{
closed = 1;
nodes = (
"247 918 LINE",
"247 785 LINE",
"537 785 LINE",
"537 918 LINE"
);
},
{
closed = 1;
nodes = (
"181 707 OFFCURVE",
"19 557 OFFCURVE",
"19 351 CURVE SMOOTH",
"19 144 OFFCURVE",
"181 -9 OFFCURVE",
"401 -9 CURVE SMOOTH",
"621 -9 OFFCURVE",
"783 145 OFFCURVE",
"783 351 CURVE SMOOTH",
"783 556 OFFCURVE",
"621 707 OFFCURVE",
"401 707 CURVE SMOOTH"
);
},
{
closed = 1;
nodes = (
"496 533 OFFCURVE",
"570 456 OFFCURVE",
"570 350 CURVE SMOOTH",
"570 244 OFFCURVE",
"496 165 OFFCURVE",
"404 165 CURVE SMOOTH",
"312 165 OFFCURVE",
"232 244 OFFCURVE",
"232 350 CURVE SMOOTH",
"232 456 OFFCURVE",
"311 533 OFFCURVE",
"404 533 CURVE SMOOTH"
);
}
);
width = 802;
}
);
leftKerningGroup = C;
note = Omacron;
rightKerningGroup = D;
unicode = 014C;
},
{
glyphname = Omacronacute;
layers = (
{
hints = (
{
horizontal = 1;
place = "{-9, 174}";
type = Stem;
},
{
horizontal = 1;
place = "{533, 174}";
type = Stem;
},
{
horizontal = 1;
place = "{781, 133}";
type = Stem;
},
{
place = "{19, 213}";
type = Stem;
},
{
place = "{570, 213}";
type = Stem;
}
);
layerId = "32B14746-0B3F-40B0-A5C5-A5220BCE1F35";
paths = (
{
closed = 1;
nodes = (
"404 1158 LINE",
"297 978 LINE",
"445 978 LINE",
"579 1100 LINE"
);
},
{
closed = 1;
nodes = (
"247 914 LINE",
"247 781 LINE",
"537 781 LINE",
"537 914 LINE"
);
},
{
closed = 1;
nodes = (
"181 707 OFFCURVE",
"19 557 OFFCURVE",
"19 351 CURVE SMOOTH",
"19 144 OFFCURVE",
"181 -9 OFFCURVE",
"401 -9 CURVE SMOOTH",
"621 -9 OFFCURVE",
"783 145 OFFCURVE",
"783 351 CURVE SMOOTH",
"783 556 OFFCURVE",
"621 707 OFFCURVE",
"401 707 CURVE SMOOTH"
);
},
{
closed = 1;
nodes = (
"496 533 OFFCURVE",
"570 456 OFFCURVE",
"570 350 CURVE SMOOTH",
"570 244 OFFCURVE",
"496 165 OFFCURVE",
"404 165 CURVE SMOOTH",
"312 165 OFFCURVE",
"232 244 OFFCURVE",
"232 350 CURVE SMOOTH",
"232 456 OFFCURVE",
"311 533 OFFCURVE",
"404 533 CURVE SMOOTH"
);
}
);
width = 802;
}
);
note = uni1E52;
unicode = 1E52;
},
{
glyphname = Omacrongrave;
layers = (
{
hints = (
{
horizontal = 1;
place = "{-9, 174}";
type = Stem;
},
{
horizontal = 1;
place = "{533, 174}";
type = Stem;
},
{
horizontal = 1;
place = "{781, 133}";
type = Stem;
},
{
place = "{19, 213}";
type = Stem;
},
{
place = "{570, 213}";
type = Stem;
}
);
layerId = "32B14746-0B3F-40B0-A5C5-A5220BCE1F35";
paths = (
{
closed = 1;
nodes = (
"381 1158 LINE",
"206 1100 LINE",
"340 978 LINE",
"488 978 LINE"
);
},
{
closed = 1;
nodes = (
"247 914 LINE",
"247 781 LINE",
"537 781 LINE",
"537 914 LINE"
);
},
{
closed = 1;
nodes = (
"181 707 OFFCURVE",
"19 557 OFFCURVE",
"19 351 CURVE SMOOTH",
"19 144 OFFCURVE",
"181 -9 OFFCURVE",
"401 -9 CURVE SMOOTH",
"621 -9 OFFCURVE",
"783 145 OFFCURVE",
"783 351 CURVE SMOOTH",
"783 556 OFFCURVE",
"621 707 OFFCURVE",
"401 707 CURVE SMOOTH"
);
},
{
closed = 1;
nodes = (
"496 533 OFFCURVE",
"570 456 OFFCURVE",
"570 350 CURVE SMOOTH",
"570 244 OFFCURVE",
"496 165 OFFCURVE",
"404 165 CURVE SMOOTH",
"312 165 OFFCURVE",
"232 244 OFFCURVE",
"232 350 CURVE SMOOTH",
"232 456 OFFCURVE",
"311 533 OFFCURVE",
"404 533 CURVE SMOOTH"
);
}
);
width = 802;
}
);
note = uni1E50;
unicode = 1E50;
},
{
glyphname = Oogonek;
layers = (
{
hints = (
{
horizontal = 1;
place = "{-216, 99}";
type = Stem;
},
{
horizontal = 1;
place = "{-6, 21}";
target = up;
type = BottomGhost;
},
{
horizontal = 1;
place = "{533, 174}";
type = Stem;
},
{
place = "{19, 213}";
type = Stem;
},
{
place = "{298, 100}";
type = Stem;
},
{
place = "{570, 213}";
type = Stem;
}
);
layerId = "32B14746-0B3F-40B0-A5C5-A5220BCE1F35";
paths = (
{
closed = 1;
nodes = (
"783 556 OFFCURVE",
"621 707 OFFCURVE",
"401 707 CURVE SMOOTH",
"181 707 OFFCURVE",
"19 557 OFFCURVE",
"19 351 CURVE SMOOTH",
"19 161 OFFCURVE",
"155 17 OFFCURVE",
"348 -6 CURVE",
"320 -45 OFFCURVE",
"298 -88 OFFCURVE",
"298 -131 CURVE SMOOTH",
"298 -197 OFFCURVE",
"349 -216 OFFCURVE",
"391 -216 CURVE SMOOTH",
"437 -216 OFFCURVE",
"478 -192 OFFCURVE",
"505 -145 CURVE",
"455 -86 LINE",
"443 -105 OFFCURVE",
"429 -117 OFFCURVE",
"415 -117 CURVE SMOOTH",
"405 -117 OFFCURVE",
"398 -110 OFFCURVE",
"398 -98 CURVE SMOOTH",
"398 -79 OFFCURVE",
"416 -46 OFFCURVE",
"443 -7 CURVE",
"641 11 OFFCURVE",
"783 158 OFFCURVE",
"783 351 CURVE SMOOTH"
);
},
{
closed = 1;
nodes = (
"232 456 OFFCURVE",
"311 533 OFFCURVE",
"404 533 CURVE SMOOTH",
"496 533 OFFCURVE",
"570 456 OFFCURVE",
"570 350 CURVE SMOOTH",
"570 244 OFFCURVE",
"496 165 OFFCURVE",
"404 165 CURVE SMOOTH",
"312 165 OFFCURVE",
"232 244 OFFCURVE",
"232 350 CURVE SMOOTH"
);
}
);
width = 802;
}
);
note = uni01EA;
unicode = 01EA;
},
{
glyphname = Oslash;
layers = (
{
hints = (
{
horizontal = 1;
place = "{-9, 174}";
type = Stem;
},
{
horizontal = 1;
place = "{533, 174}";
type = Stem;
},
{
place = "{19, 213}";
type = Stem;
},
{
place = "{570, 213}";
type = Stem;
}
);
layerId = "32B14746-0B3F-40B0-A5C5-A5220BCE1F35";
paths = (
{
closed = 1;
nodes = (
"702 755 LINE",
"587 755 LINE",
"544 684 LINE",
"500 699 OFFCURVE",
"452 707 OFFCURVE",
"401 707 CURVE SMOOTH",
"181 707 OFFCURVE",
"19 557 OFFCURVE",
"19 351 CURVE SMOOTH",
"19 228 OFFCURVE",
"76 124 OFFCURVE",
"169 60 CURVE",
"100 -55 LINE",
"215 -55 LINE",
"257 15 LINE",
"301 -1 OFFCURVE",
"349 -9 OFFCURVE",
"401 -9 CURVE SMOOTH",
"621 -9 OFFCURVE",
"783 145 OFFCURVE",
"783 351 CURVE SMOOTH",
"783 473 OFFCURVE",
"725 576 OFFCURVE",
"632 639 CURVE"
);
},
{
closed = 1;
nodes = (
"232 456 OFFCURVE",
"311 533 OFFCURVE",
"404 533 CURVE SMOOTH",
"420 533 OFFCURVE",
"435 531 OFFCURVE",
"450 526 CURVE",
"272 231 LINE",
"247 263 OFFCURVE",
"232 304 OFFCURVE",
"232 350 CURVE SMOOTH"
);
},
{
closed = 1;
nodes = (
"386 165 OFFCURVE",
"369 168 OFFCURVE",
"352 174 CURVE",
"531 470 LINE",
"555 439 OFFCURVE",
"570 397 OFFCURVE",
"570 350 CURVE SMOOTH",
"570 244 OFFCURVE",
"496 165 OFFCURVE",
"404 165 CURVE SMOOTH"
);
}
);
width = 802;
}
);
leftKerningGroup = C;
note = Oslash;
rightKerningGroup = D;
unicode = 00D8;
},
{
glyphname = Oslashacute;
layers = (
{
hints = (
{
horizontal = 1;
place = "{-9, 174}";
type = Stem;
},
{
horizontal = 1;
place = "{533, 174}";
type = Stem;
},
{
place = "{19, 213}";
type = Stem;
},
{
place = "{570, 213}";
type = Stem;
}
);
layerId = "32B14746-0B3F-40B0-A5C5-A5220BCE1F35";
paths = (
{
closed = 1;
nodes = (
"589 874 LINE",
"414 932 LINE",
"307 752 LINE",
"455 752 LINE"
);
},
{
closed = 1;
nodes = (
"702 755 LINE",
"587 755 LINE",
"544 684 LINE",
"500 699 OFFCURVE",
"452 707 OFFCURVE",
"401 707 CURVE SMOOTH",
"181 707 OFFCURVE",
"19 557 OFFCURVE",
"19 351 CURVE SMOOTH",
"19 228 OFFCURVE",
"76 124 OFFCURVE",
"169 60 CURVE",
"100 -55 LINE",
"215 -55 LINE",
"257 15 LINE",
"301 -1 OFFCURVE",
"349 -9 OFFCURVE",
"401 -9 CURVE SMOOTH",
"621 -9 OFFCURVE",
"783 145 OFFCURVE",
"783 351 CURVE SMOOTH",
"783 473 OFFCURVE",
"725 576 OFFCURVE",
"632 639 CURVE"
);
},
{
closed = 1;
nodes = (
"232 456 OFFCURVE",
"311 533 OFFCURVE",
"404 533 CURVE SMOOTH",
"420 533 OFFCURVE",
"435 531 OFFCURVE",
"450 526 CURVE",
"272 231 LINE",
"247 263 OFFCURVE",
"232 304 OFFCURVE",
"232 350 CURVE SMOOTH"
);
},
{
closed = 1;
nodes = (
"386 165 OFFCURVE",
"369 168 OFFCURVE",
"352 174 CURVE",
"531 470 LINE",
"555 439 OFFCURVE",
"570 397 OFFCURVE",
"570 350 CURVE SMOOTH",
"570 244 OFFCURVE",
"496 165 OFFCURVE",
"404 165 CURVE SMOOTH"
);
}
);
width = 802;
}
);
note = Oslashacute;
unicode = 01FE;
},
{
glyphname = Otilde;
layers = (
{
hints = (
{
horizontal = 1;
place = "{-9, 174}";
type = Stem;
},
{
horizontal = 1;
place = "{533, 174}";
type = Stem;
},
{
horizontal = 1;
place = "{771, 171}";
type = Stem;
},
{
place = "{19, 213}";
type = Stem;
},
{
place = "{457, 122}";
type = Stem;
},
{
horizontal = 1;
place = "{774, 171}";
type = Stem;
},
{
place = "{205, 123}";
type = Stem;
},
{
place = "{570, 213}";
type = Stem;
}
);
layerId = "32B14746-0B3F-40B0-A5C5-A5220BCE1F35";
paths = (
{
closed = 1;
nodes = (
"457 942 LINE",
"457 915 OFFCURVE",
"449 902 OFFCURVE",
"430 902 CURVE SMOOTH",
"405 902 OFFCURVE",
"377 945 OFFCURVE",
"317 945 CURVE SMOOTH",
"242 945 OFFCURVE",
"205 890 OFFCURVE",
"205 774 CURVE",
"328 774 LINE",
"328 801 OFFCURVE",
"336 814 OFFCURVE",
"354 814 CURVE SMOOTH",
"380 814 OFFCURVE",
"406 771 OFFCURVE",
"468 771 CURVE SMOOTH",
"543 771 OFFCURVE",
"579 826 OFFCURVE",
"579 942 CURVE"
);
},
{
closed = 1;
nodes = (
"181 707 OFFCURVE",
"19 557 OFFCURVE",
"19 351 CURVE SMOOTH",
"19 144 OFFCURVE",
"181 -9 OFFCURVE",
"401 -9 CURVE SMOOTH",
"621 -9 OFFCURVE",
"783 145 OFFCURVE",
"783 351 CURVE SMOOTH",
"783 556 OFFCURVE",
"621 707 OFFCURVE",
"401 707 CURVE SMOOTH"
);
},
{
closed = 1;
nodes = (
"496 533 OFFCURVE",
"570 456 OFFCURVE",
"570 350 CURVE SMOOTH",
"570 244 OFFCURVE",
"496 165 OFFCURVE",
"404 165 CURVE SMOOTH",
"312 165 OFFCURVE",
"232 244 OFFCURVE",
"232 350 CURVE SMOOTH",
"232 456 OFFCURVE",
"311 533 OFFCURVE",
"404 533 CURVE SMOOTH"
);
}
);
width = 802;
}
);
leftKerningGroup = C;
note = Otilde;
rightKerningGroup = D;
unicode = 00D5;
},
{
glyphname = Otildeacute;
layers = (
{
hints = (
{
horizontal = 1;
place = "{-9, 174}";
type = Stem;
},
{
horizontal = 1;
place = "{533, 174}";
type = Stem;
},
{
horizontal = 1;
place = "{774, 171}";
type = Stem;
},
{
place = "{19, 213}";
type = Stem;
},
{
place = "{570, 213}";
type = Stem;
},
{
horizontal = 1;
place = "{771, 171}";
type = Stem;
},
{
place = "{457, 122}";
type = Stem;
},
{
place = "{205, 123}";
type = Stem;
}
);
layerId = "32B14746-0B3F-40B0-A5C5-A5220BCE1F35";
paths = (
{
closed = 1;
nodes = (
"404 1158 LINE",
"297 978 LINE",
"445 978 LINE",
"579 1100 LINE"
);
},
{
closed = 1;
nodes = (
"457 942 LINE",
"457 915 OFFCURVE",
"449 902 OFFCURVE",
"430 902 CURVE SMOOTH",
"405 902 OFFCURVE",
"377 945 OFFCURVE",
"317 945 CURVE SMOOTH",
"242 945 OFFCURVE",
"205 890 OFFCURVE",
"205 774 CURVE",
"328 774 LINE",
"328 801 OFFCURVE",
"336 814 OFFCURVE",
"354 814 CURVE SMOOTH",
"380 814 OFFCURVE",
"406 771 OFFCURVE",
"468 771 CURVE SMOOTH",
"543 771 OFFCURVE",
"579 826 OFFCURVE",
"579 942 CURVE"
);
},
{
closed = 1;
nodes = (
"181 707 OFFCURVE",
"19 557 OFFCURVE",
"19 351 CURVE SMOOTH",
"19 144 OFFCURVE",
"181 -9 OFFCURVE",
"401 -9 CURVE SMOOTH",
"621 -9 OFFCURVE",
"783 145 OFFCURVE",
"783 351 CURVE SMOOTH",
"783 556 OFFCURVE",
"621 707 OFFCURVE",
"401 707 CURVE SMOOTH"
);
},
{
closed = 1;
nodes = (
"496 533 OFFCURVE",
"570 456 OFFCURVE",
"570 350 CURVE SMOOTH",
"570 244 OFFCURVE",
"496 165 OFFCURVE",
"404 165 CURVE SMOOTH",
"312 165 OFFCURVE",
"232 244 OFFCURVE",
"232 350 CURVE SMOOTH",
"232 456 OFFCURVE",
"311 533 OFFCURVE",
"404 533 CURVE SMOOTH"
);
}
);
width = 802;
}
);
note = uni1E4C;
unicode = 1E4C;
},
{
glyphname = Otildedieresis;
layers = (
{
hints = (
{
horizontal = 1;
place = "{-9, 174}";
type = Stem;
},
{
horizontal = 1;
place = "{533, 174}";
type = Stem;
},
{
horizontal = 1;
place = "{774, 171}";
type = Stem;
},
{
horizontal = 1;
place = "{993, 170}";
type = Stem;
},
{
place = "{206, 169}";
type = Stem;
},
{
place = "{407, 170}";
type = Stem;
},
{
horizontal = 1;
place = "{771, 171}";
type = Stem;
},
{
place = "{19, 213}";
type = Stem;
},
{
place = "{457, 122}";
type = Stem;
},
{
place = "{205, 123}";
type = Stem;
},
{
place = "{570, 213}";
type = Stem;
}
);
layerId = "32B14746-0B3F-40B0-A5C5-A5220BCE1F35";
paths = (
{
closed = 1;
nodes = (
"240 1163 OFFCURVE",
"206 1128 OFFCURVE",
"206 1078 CURVE SMOOTH",
"206 1029 OFFCURVE",
"240 993 OFFCURVE",
"290 993 CURVE SMOOTH",
"340 993 OFFCURVE",
"375 1029 OFFCURVE",
"375 1078 CURVE SMOOTH",
"375 1128 OFFCURVE",
"340 1163 OFFCURVE",
"290 1163 CURVE SMOOTH"
);
},
{
closed = 1;
nodes = (
"442 1163 OFFCURVE",
"407 1128 OFFCURVE",
"407 1078 CURVE SMOOTH",
"407 1029 OFFCURVE",
"442 993 OFFCURVE",
"492 993 CURVE SMOOTH",
"542 993 OFFCURVE",
"577 1029 OFFCURVE",
"577 1078 CURVE SMOOTH",
"577 1128 OFFCURVE",
"542 1163 OFFCURVE",
"492 1163 CURVE SMOOTH"
);
},
{
closed = 1;
nodes = (
"457 942 LINE",
"457 915 OFFCURVE",
"449 902 OFFCURVE",
"430 902 CURVE SMOOTH",
"405 902 OFFCURVE",
"377 945 OFFCURVE",
"317 945 CURVE SMOOTH",
"242 945 OFFCURVE",
"205 890 OFFCURVE",
"205 774 CURVE",
"328 774 LINE",
"328 801 OFFCURVE",
"336 814 OFFCURVE",
"354 814 CURVE SMOOTH",
"380 814 OFFCURVE",
"406 771 OFFCURVE",
"468 771 CURVE SMOOTH",
"543 771 OFFCURVE",
"579 826 OFFCURVE",
"579 942 CURVE"
);
},
{
closed = 1;
nodes = (
"181 707 OFFCURVE",
"19 557 OFFCURVE",
"19 351 CURVE SMOOTH",
"19 144 OFFCURVE",
"181 -9 OFFCURVE",
"401 -9 CURVE SMOOTH",
"621 -9 OFFCURVE",
"783 145 OFFCURVE",
"783 351 CURVE SMOOTH",
"783 556 OFFCURVE",
"621 707 OFFCURVE",
"401 707 CURVE SMOOTH"
);
},
{
closed = 1;
nodes = (
"496 533 OFFCURVE",
"570 456 OFFCURVE",
"570 350 CURVE SMOOTH",
"570 244 OFFCURVE",
"496 165 OFFCURVE",
"404 165 CURVE SMOOTH",
"312 165 OFFCURVE",
"232 244 OFFCURVE",
"232 350 CURVE SMOOTH",
"232 456 OFFCURVE",
"311 533 OFFCURVE",
"404 533 CURVE SMOOTH"
);
}
);
width = 802;
}
);
note = uni1E4E;
unicode = 1E4E;
},
{
glyphname = Otildemacron;
layers = (
{
hints = (
{
horizontal = 1;
place = "{-9, 174}";
type = Stem;
},
{
horizontal = 1;
place = "{533, 174}";
type = Stem;
},
{
horizontal = 1;
place = "{1007, 133}";
type = Stem;
},
{
place = "{19, 213}";
type = Stem;
},
{
place = "{247, 290}";
type = Stem;
},
{
place = "{570, 213}";
type = Stem;
},
{
horizontal = 1;
place = "{771, 171}";
type = Stem;
},
{
place = "{457, 122}";
type = Stem;
},
{
horizontal = 1;
place = "{774, 171}";
type = Stem;
},
{
place = "{205, 123}";
type = Stem;
}
);
layerId = "32B14746-0B3F-40B0-A5C5-A5220BCE1F35";
paths = (
{
closed = 1;
nodes = (
"247 1140 LINE",
"247 1007 LINE",
"537 1007 LINE",
"537 1140 LINE"
);
},
{
closed = 1;
nodes = (
"457 942 LINE",
"457 915 OFFCURVE",
"449 902 OFFCURVE",
"430 902 CURVE SMOOTH",
"405 902 OFFCURVE",
"377 945 OFFCURVE",
"317 945 CURVE SMOOTH",
"242 945 OFFCURVE",
"205 890 OFFCURVE",
"205 774 CURVE",
"328 774 LINE",
"328 801 OFFCURVE",
"336 814 OFFCURVE",
"354 814 CURVE SMOOTH",
"380 814 OFFCURVE",
"406 771 OFFCURVE",
"468 771 CURVE SMOOTH",
"543 771 OFFCURVE",
"579 826 OFFCURVE",
"579 942 CURVE"
);
},
{
closed = 1;
nodes = (
"181 707 OFFCURVE",
"19 557 OFFCURVE",
"19 351 CURVE SMOOTH",
"19 144 OFFCURVE",
"181 -9 OFFCURVE",
"401 -9 CURVE SMOOTH",
"621 -9 OFFCURVE",
"783 145 OFFCURVE",
"783 351 CURVE SMOOTH",
"783 556 OFFCURVE",
"621 707 OFFCURVE",
"401 707 CURVE SMOOTH"
);
},
{
closed = 1;
nodes = (
"496 533 OFFCURVE",
"570 456 OFFCURVE",
"570 350 CURVE SMOOTH",
"570 244 OFFCURVE",
"496 165 OFFCURVE",
"404 165 CURVE SMOOTH",
"312 165 OFFCURVE",
"232 244 OFFCURVE",
"232 350 CURVE SMOOTH",
"232 456 OFFCURVE",
"311 533 OFFCURVE",
"404 533 CURVE SMOOTH"
);
}
);
width = 802;
}
);
note = uni022C;
unicode = 022C;
},
{
glyphname = OE;
layers = (
{
hints = (
{
horizontal = 1;
place = "{0, 160}";
type = Stem;
},
{
horizontal = 1;
place = "{271, 160}";
type = Stem;
},
{
horizontal = 1;
place = "{541, 160}";
type = Stem;
},
{
place = "{19, 213}";
type = Stem;
},
{
place = "{497, 208}";
type = Stem;
},
{
horizontal = 1;
place = "{0, 166}";
type = Stem;
},
{
horizontal = 1;
place = "{532, 169}";
type = Stem;
}
);
layerId = "32B14746-0B3F-40B0-A5C5-A5220BCE1F35";
paths = (
{
closed = 1;
nodes = (
"705 160 LINE",
"705 271 LINE",
"1036 271 LINE",
"1036 431 LINE",
"705 431 LINE",
"705 541 LINE",
"1070 541 LINE",
"1070 701 LINE",
"400 701 LINE SMOOTH",
"180 701 OFFCURVE",
"19 550 OFFCURVE",
"19 349 CURVE SMOOTH",
"19 147 OFFCURVE",
"182 0 OFFCURVE",
"400 0 CURVE SMOOTH",
"1080 0 LINE",
"1080 160 LINE"
);
},
{
closed = 1;
nodes = (
"400 166 LINE SMOOTH",
"304 166 OFFCURVE",
"232 243 OFFCURVE",
"232 348 CURVE SMOOTH",
"232 454 OFFCURVE",
"304 532 OFFCURVE",
"400 532 CURVE SMOOTH",
"497 532 LINE",
"497 167 LINE"
);
}
);
width = 1121;
}
);
leftKerningGroup = C;
note = OE;
unicode = 0152;
},
{
glyphname = P;
layers = (
{
hints = (
{
horizontal = 1;
place = "{0, 21}";
target = up;
type = BottomGhost;
},
{
horizontal = 1;
place = "{189, 160}";
type = Stem;
},
{
horizontal = 1;
place = "{541, 160}";
type = Stem;
},
{
place = "{59, 208}";
type = Stem;
},
{
place = "{465, 197}";
type = Stem;
}
);
layerId = "32B14746-0B3F-40B0-A5C5-A5220BCE1F35";
paths = (
{
closed = 1;
nodes = (
"59 701 LINE",
"59 0 LINE",
"267 0 LINE",
"267 189 LINE",
"377 189 LINE SMOOTH",
"558 189 OFFCURVE",
"662 285 OFFCURVE",
"662 452 CURVE SMOOTH",
"662 611 OFFCURVE",
"558 701 OFFCURVE",
"377 701 CURVE SMOOTH"
);
},
{
closed = 1;
nodes = (
"267 349 LINE",
"267 541 LINE",
"367 541 LINE SMOOTH",
"429 541 OFFCURVE",
"465 507 OFFCURVE",
"465 446 CURVE SMOOTH",
"465 383 OFFCURVE",
"429 349 OFFCURVE",
"367 349 CURVE SMOOTH"
);
}
);
width = 683;
}
);
leftKerningGroup = B;
note = P;
rightKerningGroup = P;
unicode = 0050;
},
{
glyphname = Thorn;
layers = (
{
hints = (
{
horizontal = 1;
place = "{0, 21}";
target = up;
type = BottomGhost;
},
{
horizontal = 1;
place = "{107, 158}";
type = Stem;
},
{
horizontal = 1;
place = "{453, 159}";
type = Stem;
},
{
horizontal = 1;
place = "{701, -20}";
target = down;
type = TopGhost;
},
{
place = "{59, 208}";
type = Stem;
},
{
place = "{459, 214}";
type = Stem;
}
);
layerId = "32B14746-0B3F-40B0-A5C5-A5220BCE1F35";
paths = (
{
closed = 1;
nodes = (
"267 612 LINE",
"267 701 LINE",
"59 701 LINE",
"59 0 LINE",
"267 0 LINE",
"267 107 LINE",
"377 107 LINE SMOOTH",
"559 107 OFFCURVE",
"673 207 OFFCURVE",
"673 367 CURVE SMOOTH",
"673 518 OFFCURVE",
"559 612 OFFCURVE",
"377 612 CURVE SMOOTH"
);
},
{
closed = 1;
nodes = (
"267 265 LINE",
"267 453 LINE",
"368 453 LINE SMOOTH",
"425 453 OFFCURVE",
"459 418 OFFCURVE",
"459 361 CURVE SMOOTH",
"459 301 OFFCURVE",
"425 265 OFFCURVE",
"368 265 CURVE SMOOTH"
);
}
);
width = 694;
}
);
leftKerningGroup = B;
note = Thorn;
rightKerningGroup = Thorn;
unicode = 00DE;
},
{
glyphname = Q;
layers = (
{
hints = (
{
horizontal = 1;
place = "{-172, 153}";
type = Stem;
},
{
horizontal = 1;
place = "{533, 174}";
type = Stem;
},
{
place = "{19, 213}";
type = Stem;
},
{
place = "{570, 213}";
type = Stem;
}
);
layerId = "32B14746-0B3F-40B0-A5C5-A5220BCE1F35";
paths = (
{
closed = 1;
nodes = (
"745 31 LINE",
"703 0 OFFCURVE",
"659 -19 OFFCURVE",
"629 -19 CURVE SMOOTH",
"602 -19 OFFCURVE",
"578 -4 OFFCURVE",
"559 20 CURVE",
"694 75 OFFCURVE",
"783 199 OFFCURVE",
"783 351 CURVE SMOOTH",
"783 556 OFFCURVE",
"621 707 OFFCURVE",
"401 707 CURVE SMOOTH",
"181 707 OFFCURVE",
"19 557 OFFCURVE",
"19 351 CURVE SMOOTH",
"19 151 OFFCURVE",
"170 2 OFFCURVE",
"379 -8 CURVE",
"420 -108 OFFCURVE",
"504 -172 OFFCURVE",
"606 -172 CURVE SMOOTH",
"678 -172 OFFCURVE",
"761 -141 OFFCURVE",
"815 -94 CURVE"
);
},
{
closed = 1;
nodes = (
"232 456 OFFCURVE",
"311 533 OFFCURVE",
"404 533 CURVE SMOOTH",
"496 533 OFFCURVE",
"570 456 OFFCURVE",
"570 350 CURVE SMOOTH",
"570 244 OFFCURVE",
"496 165 OFFCURVE",
"404 165 CURVE SMOOTH",
"312 165 OFFCURVE",
"232 244 OFFCURVE",
"232 350 CURVE SMOOTH"
);
}
);
width = 805;
}
);
leftKerningGroup = C;
note = Q;
rightKerningGroup = D;
unicode = 0051;
},
{
glyphname = R;
layers = (
{
hints = (
{
horizontal = 1;
place = "{0, 21}";
target = up;
type = BottomGhost;
},
{
horizontal = 1;
place = "{189, 160}";
type = Stem;
},
{
horizontal = 1;
place = "{541, 160}";
type = Stem;
},
{
place = "{59, 208}";
type = Stem;
},
{
place = "{484, 198}";
type = Stem;
}
);
layerId = "32B14746-0B3F-40B0-A5C5-A5220BCE1F35";
paths = (
{
closed = 1;
nodes = (
"706 0 LINE",
"564 229 LINE",
"640 272 OFFCURVE",
"682 348 OFFCURVE",
"682 452 CURVE SMOOTH",
"682 611 OFFCURVE",
"574 701 OFFCURVE",
"386 701 CURVE SMOOTH",
"59 701 LINE",
"59 0 LINE",
"267 0 LINE",
"267 189 LINE",
"377 189 LINE",
"470 0 LINE"
);
},
{
closed = 1;
nodes = (
"267 541 LINE",
"386 541 LINE SMOOTH",
"448 541 OFFCURVE",
"484 507 OFFCURVE",
"484 446 CURVE SMOOTH",
"484 383 OFFCURVE",
"448 349 OFFCURVE",
"386 349 CURVE SMOOTH",
"267 349 LINE"
);
}
);
width = 725;
}
);
leftKerningGroup = B;
note = R;
rightKerningGroup = R;
unicode = 0052;
},
{
glyphname = Racute;
layers = (
{
hints = (
{
horizontal = 1;
place = "{0, 21}";
target = up;
type = BottomGhost;
},
{
horizontal = 1;
place = "{189, 160}";
type = Stem;
},
{
horizontal = 1;
place = "{541, 160}";
type = Stem;
},
{
place = "{59, 208}";
type = Stem;
},
{
place = "{484, 198}";
type = Stem;
}
);
layerId = "32B14746-0B3F-40B0-A5C5-A5220BCE1F35";
paths = (
{
closed = 1;
nodes = (
"554 874 LINE",
"379 932 LINE",
"272 752 LINE",
"420 752 LINE"
);
},
{
closed = 1;
nodes = (
"706 0 LINE",
"564 229 LINE",
"640 272 OFFCURVE",
"682 348 OFFCURVE",
"682 452 CURVE SMOOTH",
"682 611 OFFCURVE",
"574 701 OFFCURVE",
"386 701 CURVE SMOOTH",
"59 701 LINE",
"59 0 LINE",
"267 0 LINE",
"267 189 LINE",
"377 189 LINE",
"470 0 LINE"
);
},
{
closed = 1;
nodes = (
"267 541 LINE",
"386 541 LINE SMOOTH",
"448 541 OFFCURVE",
"484 507 OFFCURVE",
"484 446 CURVE SMOOTH",
"484 383 OFFCURVE",
"448 349 OFFCURVE",
"386 349 CURVE SMOOTH",
"267 349 LINE"
);
}
);
width = 725;
}
);
leftKerningGroup = B;
note = Racute;
rightKerningGroup = R;
unicode = 0154;
},
{
glyphname = Rcaron;
layers = (
{
hints = (
{
horizontal = 1;
place = "{0, 21}";
target = up;
type = BottomGhost;
},
{
horizontal = 1;
place = "{189, 160}";
type = Stem;
},
{
horizontal = 1;
place = "{541, 160}";
type = Stem;
},
{
horizontal = 1;
place = "{751, 172}";
type = Stem;
},
{
place = "{59, 208}";
type = Stem;
},
{
place = "{484, 198}";
type = Stem;
}
);
layerId = "32B14746-0B3F-40B0-A5C5-A5220BCE1F35";
paths = (
{
closed = 1;
nodes = (
"449 751 LINE",
"576 923 LINE",
"425 923 LINE",
"364 832 LINE",
"303 923 LINE",
"152 923 LINE",
"279 751 LINE"
);
},
{
closed = 1;
nodes = (
"706 0 LINE",
"564 229 LINE",
"640 272 OFFCURVE",
"682 348 OFFCURVE",
"682 452 CURVE SMOOTH",
"682 611 OFFCURVE",
"574 701 OFFCURVE",
"386 701 CURVE SMOOTH",
"59 701 LINE",
"59 0 LINE",
"267 0 LINE",
"267 189 LINE",
"377 189 LINE",
"470 0 LINE"
);
},
{
closed = 1;
nodes = (
"267 541 LINE",
"386 541 LINE SMOOTH",
"448 541 OFFCURVE",
"484 507 OFFCURVE",
"484 446 CURVE SMOOTH",
"484 383 OFFCURVE",
"448 349 OFFCURVE",
"386 349 CURVE SMOOTH",
"267 349 LINE"
);
}
);
width = 725;
}
);
leftKerningGroup = B;
note = Rcaron;
rightKerningGroup = R;
unicode = 0158;
},
{
glyphname = Rcommaaccent;
layers = (
{
hints = (
{
horizontal = 1;
place = "{0, 21}";
target = up;
type = BottomGhost;
},
{
horizontal = 1;
place = "{189, 160}";
type = Stem;
},
{
horizontal = 1;
place = "{541, 160}";
type = Stem;
},
{
place = "{59, 208}";
type = Stem;
},
{
place = "{484, 198}";
type = Stem;
},
{
place = "{279, 159}";
type = Stem;
}
);
layerId = "32B14746-0B3F-40B0-A5C5-A5220BCE1F35";
paths = (
{
closed = 1;
nodes = (
"564 229 LINE",
"640 272 OFFCURVE",
"682 348 OFFCURVE",
"682 452 CURVE SMOOTH",
"682 611 OFFCURVE",
"574 701 OFFCURVE",
"386 701 CURVE SMOOTH",
"59 701 LINE",
"59 0 LINE",
"267 0 LINE",
"267 189 LINE",
"377 189 LINE",
"470 0 LINE",
"706 0 LINE"
);
},
{
closed = 1;
nodes = (
"267 541 LINE",
"386 541 LINE SMOOTH",
"448 541 OFFCURVE",
"484 507 OFFCURVE",
"484 446 CURVE SMOOTH",
"484 383 OFFCURVE",
"448 349 OFFCURVE",
"386 349 CURVE SMOOTH",
"267 349 LINE"
);
},
{
closed = 1;
nodes = (
"312 -50 OFFCURVE",
"279 -83 OFFCURVE",
"279 -129 CURVE SMOOTH",
"279 -153 OFFCURVE",
"289 -176 OFFCURVE",
"309 -190 CURVE",
"268 -291 LINE",
"348 -291 LINE",
"416 -191 LINE SMOOTH",
"429 -173 OFFCURVE",
"438 -153 OFFCURVE",
"438 -128 CURVE SMOOTH",
"438 -78 OFFCURVE",
"400 -50 OFFCURVE",
"359 -50 CURVE SMOOTH"
);
}
);
width = 725;
}
);
leftKerningGroup = B;
note = Rcommaaccent;
rightKerningGroup = R;
unicode = 0156;
},
{
glyphname = Rdblgrave;
layers = (
{
hints = (
{
horizontal = 1;
place = "{0, 21}";
target = up;
type = BottomGhost;
},
{
horizontal = 1;
place = "{189, 160}";
type = Stem;
},
{
horizontal = 1;
place = "{541, 160}";
type = Stem;
},
{
place = "{59, 208}";
type = Stem;
},
{
place = "{484, 198}";
type = Stem;
}
);
layerId = "32B14746-0B3F-40B0-A5C5-A5220BCE1F35";
paths = (
{
closed = 1;
nodes = (
"358 752 LINE",
"272 933 LINE",
"124 882 LINE",
"213 752 LINE"
);
},
{
closed = 1;
nodes = (
"568 752 LINE",
"481 933 LINE",
"333 882 LINE",
"423 752 LINE"
);
},
{
closed = 1;
nodes = (
"706 0 LINE",
"564 229 LINE",
"640 272 OFFCURVE",
"682 348 OFFCURVE",
"682 452 CURVE SMOOTH",
"682 611 OFFCURVE",
"574 701 OFFCURVE",
"386 701 CURVE SMOOTH",
"59 701 LINE",
"59 0 LINE",
"267 0 LINE",
"267 189 LINE",
"377 189 LINE",
"470 0 LINE"
);
},
{
closed = 1;
nodes = (
"267 541 LINE",
"386 541 LINE SMOOTH",
"448 541 OFFCURVE",
"484 507 OFFCURVE",
"484 446 CURVE SMOOTH",
"484 383 OFFCURVE",
"448 349 OFFCURVE",
"386 349 CURVE SMOOTH",
"267 349 LINE"
);
}
);
width = 725;
}
);
note = uni0210;
unicode = 0210;
},
{
glyphname = Rdotbelow;
layers = (
{
hints = (
{
horizontal = 1;
place = "{0, 21}";
target = up;
type = BottomGhost;
},
{
horizontal = 1;
place = "{189, 160}";
type = Stem;
},
{
horizontal = 1;
place = "{541, 160}";
type = Stem;
},
{
place = "{59, 208}";
type = Stem;
},
{
place = "{484, 198}";
type = Stem;
},
{
horizontal = 1;
place = "{-222, 172}";
type = Stem;
},
{
place = "{273, 172}";
type = Stem;
}
);
layerId = "32B14746-0B3F-40B0-A5C5-A5220BCE1F35";
paths = (
{
closed = 1;
nodes = (
"564 229 LINE",
"640 272 OFFCURVE",
"682 348 OFFCURVE",
"682 452 CURVE SMOOTH",
"682 611 OFFCURVE",
"574 701 OFFCURVE",
"386 701 CURVE SMOOTH",
"59 701 LINE",
"59 0 LINE",
"267 0 LINE",
"267 189 LINE",
"377 189 LINE",
"470 0 LINE",
"706 0 LINE"
);
},
{
closed = 1;
nodes = (
"267 541 LINE",
"386 541 LINE SMOOTH",
"448 541 OFFCURVE",
"484 507 OFFCURVE",
"484 446 CURVE SMOOTH",
"484 383 OFFCURVE",
"448 349 OFFCURVE",
"386 349 CURVE SMOOTH",
"267 349 LINE"
);
},
{
closed = 1;
nodes = (
"308 -50 OFFCURVE",
"273 -86 OFFCURVE",
"273 -137 CURVE SMOOTH",
"273 -186 OFFCURVE",
"308 -222 OFFCURVE",
"359 -222 CURVE SMOOTH",
"410 -222 OFFCURVE",
"445 -186 OFFCURVE",
"445 -137 CURVE SMOOTH",
"445 -86 OFFCURVE",
"410 -50 OFFCURVE",
"359 -50 CURVE SMOOTH"
);
}
);
width = 725;
}
);
note = uni1E5A;
unicode = 1E5A;
},
{
glyphname = Rinvertedbreve;
layers = (
{
hints = (
{
horizontal = 1;
place = "{0, 21}";
target = up;
type = BottomGhost;
},
{
horizontal = 1;
place = "{189, 160}";
type = Stem;
},
{
horizontal = 1;
place = "{541, 160}";
type = Stem;
},
{
horizontal = 1;
place = "{755, 167}";
type = Stem;
},
{
place = "{194, 123}";
type = Stem;
},
{
place = "{421, 123}";
type = Stem;
},
{
place = "{59, 208}";
type = Stem;
},
{
place = "{484, 198}";
type = Stem;
}
);
layerId = "32B14746-0B3F-40B0-A5C5-A5220BCE1F35";
paths = (
{
closed = 1;
nodes = (
"398 808 OFFCURVE",
"418 787 OFFCURVE",
"421 755 CURVE",
"544 755 LINE",
"539 856 OFFCURVE",
"470 922 OFFCURVE",
"369 922 CURVE SMOOTH",
"268 922 OFFCURVE",
"199 856 OFFCURVE",
"194 755 CURVE",
"317 755 LINE",
"320 787 OFFCURVE",
"340 808 OFFCURVE",
"369 808 CURVE SMOOTH"
);
},
{
closed = 1;
nodes = (
"706 0 LINE",
"564 229 LINE",
"640 272 OFFCURVE",
"682 348 OFFCURVE",
"682 452 CURVE SMOOTH",
"682 611 OFFCURVE",
"574 701 OFFCURVE",
"386 701 CURVE SMOOTH",
"59 701 LINE",
"59 0 LINE",
"267 0 LINE",
"267 189 LINE",
"377 189 LINE",
"470 0 LINE"
);
},
{
closed = 1;
nodes = (
"267 541 LINE",
"386 541 LINE SMOOTH",
"448 541 OFFCURVE",
"484 507 OFFCURVE",
"484 446 CURVE SMOOTH",
"484 383 OFFCURVE",
"448 349 OFFCURVE",
"386 349 CURVE SMOOTH",
"267 349 LINE"
);
}
);
width = 725;
}
);
note = uni0212;
unicode = 0212;
},
{
glyphname = Rlinebelow;
layers = (
{
hints = (
{
horizontal = 1;
place = "{-196, 133}";
type = Stem;
},
{
horizontal = 1;
place = "{0, 21}";
target = up;
type = BottomGhost;
},
{
horizontal = 1;
place = "{189, 160}";
type = Stem;
},
{
horizontal = 1;
place = "{541, 160}";
type = Stem;
},
{
place = "{59, 208}";
type = Stem;
},
{
place = "{484, 198}";
type = Stem;
}
);
layerId = "32B14746-0B3F-40B0-A5C5-A5220BCE1F35";
paths = (
{
closed = 1;
nodes = (
"267 189 LINE",
"377 189 LINE",
"470 0 LINE",
"706 0 LINE",
"564 229 LINE",
"640 272 OFFCURVE",
"682 348 OFFCURVE",
"682 452 CURVE SMOOTH",
"682 611 OFFCURVE",
"574 701 OFFCURVE",
"386 701 CURVE SMOOTH",
"59 701 LINE",
"59 0 LINE",
"267 0 LINE"
);
},
{
closed = 1;
nodes = (
"267 541 LINE",
"386 541 LINE SMOOTH",
"448 541 OFFCURVE",
"484 507 OFFCURVE",
"484 446 CURVE SMOOTH",
"484 383 OFFCURVE",
"448 349 OFFCURVE",
"386 349 CURVE SMOOTH",
"267 349 LINE"
);
},
{
closed = 1;
nodes = (
"214 -196 LINE",
"504 -196 LINE",
"504 -63 LINE",
"214 -63 LINE"
);
}
);
width = 725;
}
);
note = uni1E5E;
unicode = 1E5E;
},
{
glyphname = S;
layers = (
{
hints = (
{
horizontal = 1;
place = "{-6, 162}";
type = Stem;
},
{
horizontal = 1;
place = "{547, 163}";
type = Stem;
},
{
place = "{57, 215}";
type = Stem;
},
{
place = "{423, 215}";
type = Stem;
}
);
layerId = "32B14746-0B3F-40B0-A5C5-A5220BCE1F35";
paths = (
{
closed = 1;
nodes = (
"640 629 LINE",
"564 678 OFFCURVE",
"454 710 OFFCURVE",
"347 710 CURVE SMOOTH",
"172 710 OFFCURVE",
"57 624 OFFCURVE",
"57 489 CURVE SMOOTH",
"57 242 OFFCURVE",
"423 309 OFFCURVE",
"423 203 CURVE SMOOTH",
"423 171 OFFCURVE",
"395 156 OFFCURVE",
"351 156 CURVE SMOOTH",
"279 156 OFFCURVE",
"162 202 OFFCURVE",
"90 263 CURVE",
"12 105 LINE",
"100 36 OFFCURVE",
"230 -6 OFFCURVE",
"349 -6 CURVE SMOOTH",
"506 -6 OFFCURVE",
"638 65 OFFCURVE",
"638 214 CURVE SMOOTH",
"638 467 OFFCURVE",
"272 406 OFFCURVE",
"272 509 CURVE SMOOTH",
"272 535 OFFCURVE",
"295 547 OFFCURVE",
"330 547 CURVE SMOOTH",
"389 547 OFFCURVE",
"491 510 OFFCURVE",
"563 469 CURVE"
);
}
);
width = 655;
}
);
leftKerningGroup = S;
note = S;
rightKerningGroup = S;
unicode = 0053;
},
{
glyphname = Sacute;
layers = (
{
hints = (
{
horizontal = 1;
place = "{-6, 162}";
type = Stem;
},
{
horizontal = 1;
place = "{547, 163}";
type = Stem;
},
{
place = "{57, 215}";
type = Stem;
},
{
place = "{423, 215}";
type = Stem;
}
);
layerId = "32B14746-0B3F-40B0-A5C5-A5220BCE1F35";
paths = (
{
closed = 1;
nodes = (
"361 932 LINE",
"254 752 LINE",
"402 752 LINE",
"536 874 LINE"
);
},
{
closed = 1;
nodes = (
"640 629 LINE",
"564 678 OFFCURVE",
"454 710 OFFCURVE",
"347 710 CURVE SMOOTH",
"172 710 OFFCURVE",
"57 624 OFFCURVE",
"57 489 CURVE SMOOTH",
"57 242 OFFCURVE",
"423 309 OFFCURVE",
"423 203 CURVE SMOOTH",
"423 171 OFFCURVE",
"395 156 OFFCURVE",
"351 156 CURVE SMOOTH",
"279 156 OFFCURVE",
"162 202 OFFCURVE",
"90 263 CURVE",
"12 105 LINE",
"100 36 OFFCURVE",
"230 -6 OFFCURVE",
"349 -6 CURVE SMOOTH",
"506 -6 OFFCURVE",
"638 65 OFFCURVE",
"638 214 CURVE SMOOTH",
"638 467 OFFCURVE",
"272 406 OFFCURVE",
"272 509 CURVE SMOOTH",
"272 535 OFFCURVE",
"295 547 OFFCURVE",
"330 547 CURVE SMOOTH",
"389 547 OFFCURVE",
"491 510 OFFCURVE",
"563 469 CURVE"
);
}
);
width = 655;
}
);
leftKerningGroup = S;
note = Sacute;
rightKerningGroup = S;
unicode = 015A;
},
{
glyphname = Sacutedotaccent;
layers = (
{
hints = (
{
horizontal = 1;
place = "{-6, 162}";
type = Stem;
},
{
horizontal = 1;
place = "{547, 163}";
type = Stem;
},
{
horizontal = 1;
place = "{990, 172}";
type = Stem;
},
{
place = "{265, 172}";
type = Stem;
},
{
place = "{57, 215}";
type = Stem;
},
{
place = "{423, 215}";
type = Stem;
}
);
layerId = "32B14746-0B3F-40B0-A5C5-A5220BCE1F35";
paths = (
{
closed = 1;
nodes = (
"300 1162 OFFCURVE",
"265 1126 OFFCURVE",
"265 1075 CURVE SMOOTH",
"265 1026 OFFCURVE",
"300 990 OFFCURVE",
"351 990 CURVE SMOOTH",
"402 990 OFFCURVE",
"437 1026 OFFCURVE",
"437 1075 CURVE SMOOTH",
"437 1126 OFFCURVE",
"402 1162 OFFCURVE",
"351 1162 CURVE SMOOTH"
);
},
{
closed = 1;
nodes = (
"363 932 LINE",
"256 752 LINE",
"404 752 LINE",
"538 874 LINE"
);
},
{
closed = 1;
nodes = (
"640 629 LINE",
"564 678 OFFCURVE",
"454 710 OFFCURVE",
"347 710 CURVE SMOOTH",
"172 710 OFFCURVE",
"57 624 OFFCURVE",
"57 489 CURVE SMOOTH",
"57 242 OFFCURVE",
"423 309 OFFCURVE",
"423 203 CURVE SMOOTH",
"423 171 OFFCURVE",
"395 156 OFFCURVE",
"351 156 CURVE SMOOTH",
"279 156 OFFCURVE",
"162 202 OFFCURVE",
"90 263 CURVE",
"12 105 LINE",
"100 36 OFFCURVE",
"230 -6 OFFCURVE",
"349 -6 CURVE SMOOTH",
"506 -6 OFFCURVE",
"638 65 OFFCURVE",
"638 214 CURVE SMOOTH",
"638 467 OFFCURVE",
"272 406 OFFCURVE",
"272 509 CURVE SMOOTH",
"272 535 OFFCURVE",
"295 547 OFFCURVE",
"330 547 CURVE SMOOTH",
"389 547 OFFCURVE",
"491 510 OFFCURVE",
"563 469 CURVE"
);
}
);
width = 655;
}
);
note = uni1E64;
unicode = 1E64;
},
{
glyphname = Scaron;
layers = (
{
hints = (
{
horizontal = 1;
place = "{-6, 162}";
type = Stem;
},
{
horizontal = 1;
place = "{547, 163}";
type = Stem;
},
{
horizontal = 1;
place = "{751, 172}";
type = Stem;
},
{
place = "{57, 215}";
type = Stem;
},
{
place = "{423, 215}";
type = Stem;
}
);
layerId = "32B14746-0B3F-40B0-A5C5-A5220BCE1F35";
paths = (
{
closed = 1;
nodes = (
"134 923 LINE",
"261 751 LINE",
"431 751 LINE",
"558 923 LINE",
"407 923 LINE",
"346 832 LINE",
"285 923 LINE"
);
},
{
closed = 1;
nodes = (
"640 629 LINE",
"564 678 OFFCURVE",
"454 710 OFFCURVE",
"347 710 CURVE SMOOTH",
"172 710 OFFCURVE",
"57 624 OFFCURVE",
"57 489 CURVE SMOOTH",
"57 242 OFFCURVE",
"423 309 OFFCURVE",
"423 203 CURVE SMOOTH",
"423 171 OFFCURVE",
"395 156 OFFCURVE",
"351 156 CURVE SMOOTH",
"279 156 OFFCURVE",
"162 202 OFFCURVE",
"90 263 CURVE",
"12 105 LINE",
"100 36 OFFCURVE",
"230 -6 OFFCURVE",
"349 -6 CURVE SMOOTH",
"506 -6 OFFCURVE",
"638 65 OFFCURVE",
"638 214 CURVE SMOOTH",
"638 467 OFFCURVE",
"272 406 OFFCURVE",
"272 509 CURVE SMOOTH",
"272 535 OFFCURVE",
"295 547 OFFCURVE",
"330 547 CURVE SMOOTH",
"389 547 OFFCURVE",
"491 510 OFFCURVE",
"563 469 CURVE"
);
}
);
width = 655;
}
);
leftKerningGroup = S;
note = Scaron;
rightKerningGroup = S;
unicode = 0160;
},
{
glyphname = Scarondotaccent;
layers = (
{
hints = (
{
horizontal = 1;
place = "{-6, 162}";
type = Stem;
},
{
horizontal = 1;
place = "{547, 163}";
type = Stem;
},
{
horizontal = 1;
place = "{751, 172}";
type = Stem;
},
{
horizontal = 1;
place = "{983, 172}";
type = Stem;
},
{
place = "{265, 172}";
type = Stem;
},
{
place = "{57, 215}";
type = Stem;
},
{
place = "{423, 215}";
type = Stem;
}
);
layerId = "32B14746-0B3F-40B0-A5C5-A5220BCE1F35";
paths = (
{
closed = 1;
nodes = (
"300 1155 OFFCURVE",
"265 1119 OFFCURVE",
"265 1068 CURVE SMOOTH",
"265 1019 OFFCURVE",
"300 983 OFFCURVE",
"351 983 CURVE SMOOTH",
"402 983 OFFCURVE",
"437 1019 OFFCURVE",
"437 1068 CURVE SMOOTH",
"437 1119 OFFCURVE",
"402 1155 OFFCURVE",
"351 1155 CURVE SMOOTH"
);
},
{
closed = 1;
nodes = (
"139 923 LINE",
"266 751 LINE",
"436 751 LINE",
"563 923 LINE",
"412 923 LINE",
"351 832 LINE",
"290 923 LINE"
);
},
{
closed = 1;
nodes = (
"640 629 LINE",
"564 678 OFFCURVE",
"454 710 OFFCURVE",
"347 710 CURVE SMOOTH",
"172 710 OFFCURVE",
"57 624 OFFCURVE",
"57 489 CURVE SMOOTH",
"57 242 OFFCURVE",
"423 309 OFFCURVE",
"423 203 CURVE SMOOTH",
"423 171 OFFCURVE",
"395 156 OFFCURVE",
"351 156 CURVE SMOOTH",
"279 156 OFFCURVE",
"162 202 OFFCURVE",
"90 263 CURVE",
"12 105 LINE",
"100 36 OFFCURVE",
"230 -6 OFFCURVE",
"349 -6 CURVE SMOOTH",
"506 -6 OFFCURVE",
"638 65 OFFCURVE",
"638 214 CURVE SMOOTH",
"638 467 OFFCURVE",
"272 406 OFFCURVE",
"272 509 CURVE SMOOTH",
"272 535 OFFCURVE",
"295 547 OFFCURVE",
"330 547 CURVE SMOOTH",
"389 547 OFFCURVE",
"491 510 OFFCURVE",
"563 469 CURVE"
);
}
);
width = 655;
}
);
note = uni1E66;
unicode = 1E66;
},
{
glyphname = Scedilla;
layers = (
{
hints = (
{
horizontal = 1;
place = "{-242, 95}";
type = Stem;
},
{
horizontal = 1;
place = "{-4, 21}";
target = up;
type = BottomGhost;
},
{
horizontal = 1;
place = "{547, 163}";
type = Stem;
},
{
place = "{57, 215}";
type = Stem;
},
{
place = "{423, 215}";
type = Stem;
},
{
place = "{343, 112}";
type = Stem;
}
);
layerId = "32B14746-0B3F-40B0-A5C5-A5220BCE1F35";
paths = (
{
closed = 1;
nodes = (
"272 535 OFFCURVE",
"295 547 OFFCURVE",
"330 547 CURVE SMOOTH",
"389 547 OFFCURVE",
"491 510 OFFCURVE",
"563 469 CURVE",
"640 629 LINE",
"564 678 OFFCURVE",
"454 710 OFFCURVE",
"347 710 CURVE SMOOTH",
"172 710 OFFCURVE",
"57 624 OFFCURVE",
"57 489 CURVE SMOOTH",
"57 242 OFFCURVE",
"423 309 OFFCURVE",
"423 203 CURVE SMOOTH",
"423 171 OFFCURVE",
"395 156 OFFCURVE",
"351 156 CURVE SMOOTH",
"279 156 OFFCURVE",
"162 202 OFFCURVE",
"90 263 CURVE",
"12 105 LINE",
"89 45 OFFCURVE",
"197 5 OFFCURVE",
"302 -4 CURVE",
"263 -82 LINE",
"275 -80 OFFCURVE",
"290 -78 OFFCURVE",
"299 -78 CURVE SMOOTH",
"327 -78 OFFCURVE",
"343 -92 OFFCURVE",
"343 -113 CURVE SMOOTH",
"343 -133 OFFCURVE",
"328 -147 OFFCURVE",
"304 -147 CURVE SMOOTH",
"288 -147 OFFCURVE",
"271 -139 OFFCURVE",
"259 -127 CURVE",
"223 -209 LINE",
"252 -229 OFFCURVE",
"291 -242 OFFCURVE",
"321 -242 CURVE SMOOTH",
"402 -242 OFFCURVE",
"455 -199 OFFCURVE",
"455 -133 CURVE SMOOTH",
"455 -95 OFFCURVE",
"429 -64 OFFCURVE",
"388 -51 CURVE",
"414 -2 LINE",
"541 16 OFFCURVE",
"638 86 OFFCURVE",
"638 214 CURVE SMOOTH",
"638 467 OFFCURVE",
"272 406 OFFCURVE",
"272 509 CURVE SMOOTH"
);
}
);
width = 655;
}
);
leftKerningGroup = S;
note = Scedilla;
rightKerningGroup = S;
unicode = 015E;
},
{
glyphname = Scircumflex;
layers = (
{
hints = (
{
horizontal = 1;
place = "{-6, 162}";
type = Stem;
},
{
horizontal = 1;
place = "{547, 163}";
type = Stem;
},
{
horizontal = 1;
place = "{766, 157}";
type = Stem;
},
{
place = "{57, 215}";
type = Stem;
},
{
place = "{423, 215}";
type = Stem;
}
);
layerId = "32B14746-0B3F-40B0-A5C5-A5220BCE1F35";
paths = (
{
closed = 1;
nodes = (
"273 923 LINE",
"156 766 LINE",
"295 766 LINE",
"351 849 LINE",
"407 766 LINE",
"546 766 LINE",
"429 923 LINE"
);
},
{
closed = 1;
nodes = (
"640 629 LINE",
"564 678 OFFCURVE",
"454 710 OFFCURVE",
"347 710 CURVE SMOOTH",
"172 710 OFFCURVE",
"57 624 OFFCURVE",
"57 489 CURVE SMOOTH",
"57 242 OFFCURVE",
"423 309 OFFCURVE",
"423 203 CURVE SMOOTH",
"423 171 OFFCURVE",
"395 156 OFFCURVE",
"351 156 CURVE SMOOTH",
"279 156 OFFCURVE",
"162 202 OFFCURVE",
"90 263 CURVE",
"12 105 LINE",
"100 36 OFFCURVE",
"230 -6 OFFCURVE",
"349 -6 CURVE SMOOTH",
"506 -6 OFFCURVE",
"638 65 OFFCURVE",
"638 214 CURVE SMOOTH",
"638 467 OFFCURVE",
"272 406 OFFCURVE",
"272 509 CURVE SMOOTH",
"272 535 OFFCURVE",
"295 547 OFFCURVE",
"330 547 CURVE SMOOTH",
"389 547 OFFCURVE",
"491 510 OFFCURVE",
"563 469 CURVE"
);
}
);
width = 655;
}
);
leftKerningGroup = S;
note = Scircumflex;
rightKerningGroup = S;
unicode = 015C;
},
{
glyphname = Scommaaccent;
layers = (
{
hints = (
{
horizontal = 1;
place = "{-6, 162}";
type = Stem;
},
{
horizontal = 1;
place = "{547, 163}";
type = Stem;
},
{
place = "{57, 215}";
type = Stem;
},
{
place = "{423, 215}";
type = Stem;
},
{
place = "{259, 159}";
type = Stem;
}
);
layerId = "32B14746-0B3F-40B0-A5C5-A5220BCE1F35";
paths = (
{
closed = 1;
nodes = (
"272 535 OFFCURVE",
"295 547 OFFCURVE",
"330 547 CURVE SMOOTH",
"389 547 OFFCURVE",
"491 510 OFFCURVE",
"563 469 CURVE",
"640 629 LINE",
"564 678 OFFCURVE",
"454 710 OFFCURVE",
"347 710 CURVE SMOOTH",
"172 710 OFFCURVE",
"57 624 OFFCURVE",
"57 489 CURVE SMOOTH",
"57 242 OFFCURVE",
"423 309 OFFCURVE",
"423 203 CURVE SMOOTH",
"423 171 OFFCURVE",
"395 156 OFFCURVE",
"351 156 CURVE SMOOTH",
"279 156 OFFCURVE",
"162 202 OFFCURVE",
"90 263 CURVE",
"12 105 LINE",
"100 36 OFFCURVE",
"230 -6 OFFCURVE",
"349 -6 CURVE SMOOTH",
"506 -6 OFFCURVE",
"638 65 OFFCURVE",
"638 214 CURVE SMOOTH",
"638 467 OFFCURVE",
"272 406 OFFCURVE",
"272 509 CURVE SMOOTH"
);
},
{
closed = 1;
nodes = (
"292 -50 OFFCURVE",
"259 -83 OFFCURVE",
"259 -129 CURVE SMOOTH",
"259 -153 OFFCURVE",
"269 -176 OFFCURVE",
"289 -190 CURVE",
"248 -291 LINE",
"328 -291 LINE",
"396 -191 LINE SMOOTH",
"409 -173 OFFCURVE",
"418 -153 OFFCURVE",
"418 -128 CURVE SMOOTH",
"418 -78 OFFCURVE",
"380 -50 OFFCURVE",
"339 -50 CURVE SMOOTH"
);
}
);
width = 655;
}
);
leftKerningGroup = S;
note = Scommaaccent;
rightKerningGroup = S;
unicode = 0218;
},
{
glyphname = Sdotaccent;
layers = (
{
hints = (
{
horizontal = 1;
place = "{-6, 162}";
type = Stem;
},
{
horizontal = 1;
place = "{547, 163}";
type = Stem;
},
{
horizontal = 1;
place = "{768, 172}";
type = Stem;
},
{
place = "{265, 172}";
type = Stem;
},
{
place = "{57, 215}";
type = Stem;
},
{
place = "{423, 215}";
type = Stem;
}
);
layerId = "32B14746-0B3F-40B0-A5C5-A5220BCE1F35";
paths = (
{
closed = 1;
nodes = (
"300 940 OFFCURVE",
"265 904 OFFCURVE",
"265 853 CURVE SMOOTH",
"265 804 OFFCURVE",
"300 768 OFFCURVE",
"351 768 CURVE SMOOTH",
"402 768 OFFCURVE",
"437 804 OFFCURVE",
"437 853 CURVE SMOOTH",
"437 904 OFFCURVE",
"402 940 OFFCURVE",
"351 940 CURVE SMOOTH"
);
},
{
closed = 1;
nodes = (
"640 629 LINE",
"564 678 OFFCURVE",
"454 710 OFFCURVE",
"347 710 CURVE SMOOTH",
"172 710 OFFCURVE",
"57 624 OFFCURVE",
"57 489 CURVE SMOOTH",
"57 242 OFFCURVE",
"423 309 OFFCURVE",
"423 203 CURVE SMOOTH",
"423 171 OFFCURVE",
"395 156 OFFCURVE",
"351 156 CURVE SMOOTH",
"279 156 OFFCURVE",
"162 202 OFFCURVE",
"90 263 CURVE",
"12 105 LINE",
"100 36 OFFCURVE",
"230 -6 OFFCURVE",
"349 -6 CURVE SMOOTH",
"506 -6 OFFCURVE",
"638 65 OFFCURVE",
"638 214 CURVE SMOOTH",
"638 467 OFFCURVE",
"272 406 OFFCURVE",
"272 509 CURVE SMOOTH",
"272 535 OFFCURVE",
"295 547 OFFCURVE",
"330 547 CURVE SMOOTH",
"389 547 OFFCURVE",
"491 510 OFFCURVE",
"563 469 CURVE"
);
}
);
width = 655;
}
);
note = uni1E60;
unicode = 1E60;
},
{
glyphname = Sdotbelow;
layers = (
{
hints = (
{
horizontal = 1;
place = "{-222, 172}";
type = Stem;
},
{
horizontal = 1;
place = "{-6, 162}";
type = Stem;
},
{
horizontal = 1;
place = "{547, 163}";
type = Stem;
},
{
place = "{57, 215}";
type = Stem;
},
{
place = "{423, 215}";
type = Stem;
},
{
place = "{253, 172}";
type = Stem;
}
);
layerId = "32B14746-0B3F-40B0-A5C5-A5220BCE1F35";
paths = (
{
closed = 1;
nodes = (
"640 629 LINE",
"564 678 OFFCURVE",
"454 710 OFFCURVE",
"347 710 CURVE SMOOTH",
"172 710 OFFCURVE",
"57 624 OFFCURVE",
"57 489 CURVE SMOOTH",
"57 242 OFFCURVE",
"423 309 OFFCURVE",
"423 203 CURVE SMOOTH",
"423 171 OFFCURVE",
"395 156 OFFCURVE",
"351 156 CURVE SMOOTH",
"279 156 OFFCURVE",
"162 202 OFFCURVE",
"90 263 CURVE",
"12 105 LINE",
"100 36 OFFCURVE",
"230 -6 OFFCURVE",
"349 -6 CURVE SMOOTH",
"506 -6 OFFCURVE",
"638 65 OFFCURVE",
"638 214 CURVE SMOOTH",
"638 467 OFFCURVE",
"272 406 OFFCURVE",
"272 509 CURVE SMOOTH",
"272 535 OFFCURVE",
"295 547 OFFCURVE",
"330 547 CURVE SMOOTH",
"389 547 OFFCURVE",
"491 510 OFFCURVE",
"563 469 CURVE"
);
},
{
closed = 1;
nodes = (
"288 -50 OFFCURVE",
"253 -86 OFFCURVE",
"253 -137 CURVE SMOOTH",
"253 -186 OFFCURVE",
"288 -222 OFFCURVE",
"339 -222 CURVE SMOOTH",
"390 -222 OFFCURVE",
"425 -186 OFFCURVE",
"425 -137 CURVE SMOOTH",
"425 -86 OFFCURVE",
"390 -50 OFFCURVE",
"339 -50 CURVE SMOOTH"
);
}
);
width = 655;
}
);
note = uni1E62;
unicode = 1E62;
},
